/* XPM */
static char *result[] = {
/* columns rows colors chars-per-pixel */
"32 32 8 1 ",
"  c #192121",
". c #2F5B53",
"X c #DD433B",
"o c #4E8653",
"O c #A99E40",
"+ c #FA8B58",
"@ c #F3E9F0",
"# c #6CA246",
/* pixels */
"################################",
"################################",
"################################",
"################################",
"################      ##########",
"################      ##########",
"########        oooooo    ######",
"########        oooooo    ######",
"######  OOOOOOOOooOOOO  oo  ####",
"######  OOOOOOOOooOOOO  oo  ####",
"####  OOOOOOOOOOOOOOoooo  oo  ##",
"####  OOOOOOOOOOOOOOoooo  oo  ##",
"##  ooOOOOOOOOOOOOOOooOOOOoo  ##",
"##  ooOOOOOOOOOOOOOOooOOOOoo  ##",
"##  ooOOOOOOOOOOOOOOOOOOOOoo  ##",
"##  ooOOOOOOOOOOOOOOOOOOOOoo  ##",
"####  ooOOOOOOOOOOOOOOOOoooo  ##",
"####  ooOOOOOOOOOOOOOOOOoooo  ##",
"####  XX    XX..oooooooooooo  ##",
"####  XX    XX..oooooooooooo  ##",
"##  OOXX  @@XX..oooooooooooo  ##",
"##  OOXX  @@XX..oooooooooooo  ##",
"##  OOOOOOOOoooooooooooooooo  ##",
"##  OOOOOOOOoooooooooooooooo  ##",
"####  oooooooooooooooooooo  ####",
"####  oooooooooooooooooooo  ####",
"######  ++++............  ######",
"######  ++++............  ######",
"######  ++++    ..........  ####",
"######  ++++    ..........  ####",
"########    ####  ........  ####",
"########    ####  ........  ####"
};
