/* XPM */
static char *tile0961694789387[] = {
/* columns rows colors chars-per-pixel */
"32 32 5 1 ",
"  c #FFA767",
". c #FA8B58",
"X c #FFB77C",
"o c #FFC792",
"O c white",
/* pixels */
"    ..XXXXooooooooooooXXXX..    ",
"    ..XXXXooooooooooooXXXX..    ",
"  ..XXXXXXooooooooooooXXXXXX..  ",
"  ..XXXXXXooooooooooooXXXXXX..  ",
"..XXXXXXooooooooooooooooXXXXXX..",
"..XXXXXXooooooooooooooooXXXXXX..",
"XXXXXXooooooooooooooooooooXXXXXX",
"XXXXXXooooooooooooooooooooXXXXXX",
"XXXXooooooooooooooooooooooooXXXX",
"XXXXooooooooooooooooooooooooXXXX",
"XXoooooooooooooooooooooooooooooo",
"XXoooooooooooooooooooooooooooooo",
"XXoooooooooooooooooooooooooooooo",
"XXoooooooooooooooooooooooooooooo",
"XXoooooooooooooooooooooooooooooo",
"XXoooooooooooooooooooooooooooooo",
"XXoooooooooooooooooooooooooooooo",
"XXoooooooooooooooooooooooooooooo",
"XXoooooooooooooooooooooooooooooo",
"XXoooooooooooooooooooooooooooooo",
"XXoooooooooooooooooooooooooooooo",
"XXoooooooooooooooooooooooooooooo",
"XXoooooooooooooooooooooooooooooo",
"XXoooooooooooooooooooooooooooooo",
"XXoooooooooooooooooooooooooooooo",
"XXoooooooooooooooooooooooooooooo",
"..oooooooooooooooooooooooooooo..",
"..oooooooooooooooooooooooooooo..",
"  ..oooooooooooooooooooooooo..  ",
"  ..oooooooooooooooooooooooo..  ",
"    ..oooooooooooooooooooo..    ",
"    ..oooooooooooooooooooo..    "
};
