/* XPM */
static char *tile3971694789391[] = {
/* columns rows colors chars-per-pixel */
"32 32 2 1 ",
"  c white",
". c #F3E9F0",
/* pixels */
"                                ",
"                                ",
"                                ",
"                                ",
"                                ",
"                                ",
"    ....                        ",
"    ....                        ",
"    ....                        ",
"    ....                        ",
"                                ",
"                                ",
"              ..........        ",
"              ..........        ",
"            ..............      ",
"            ..............      ",
"          ................      ",
"          ................      ",
"          ................      ",
"          ................      ",
"          ................      ",
"          ................      ",
"          ..............        ",
"          ..............        ",
"            ..........          ",
"            ..........          ",
"                                ",
"                                ",
"                                ",
"                                ",
"                                ",
"                                "
};
