/* XPM */
static char *tile3641694789390[] = {
/* columns rows colors chars-per-pixel */
"32 32 5 1 ",
"  c #937560",
". c #846757",
"X c #8F7A73",
"o c #B69280",
"O c white",
/* pixels */
"        ......................  ",
"        ......................  ",
"............          ..........",
"............          ..........",
"........        ....            ",
"........        ....            ",
"                                ",
"                                ",
"                    ....        ",
"                    ....        ",
"                                ",
"                                ",
"  ............                  ",
"  ............                  ",
"....................        ....",
"....................        ....",
"              ..................",
"              ..................",
"                        XXXXXX  ",
"                        XXXXXX  ",
"XXXX                XXXXXXXXXXXX",
"XXXX                XXXXXXXXXXXX",
"XXooXXXXXXXXXXXXXXXXXXXXooXXXXoo",
"XXooXXXXXXXXXXXXXXXXXXXXooXXXXoo",
"XXooooXXXXXXooXXXXXXXXooooXXoooo",
"XXooooXXXXXXooXXXXXXXXooooXXoooo",
"XXooooXXooXXooooXXooooooooXXoooo",
"XXooooXXooXXooooXXooooooooXXoooo",
"ooooXXooooXXooooooooooooXXooooXX",
"ooooXXooooXXooooooooooooXXooooXX",
"ooooooooooooXXooooooooXXoooooooo",
"ooooooooooooXXooooooooXXoooooooo"
};
