/* XPM */
static char *tile3221694789390[] = {
/* columns rows colors chars-per-pixel */
"32 32 5 1 ",
"  c #B69280",
". c #8F7A73",
"X c #846757",
"o c #937560",
"O c white",
/* pixels */
"          ..                ..  ",
"          ..                ..  ",
"          ..    ..          ..  ",
"          ..    ..          ..  ",
"        ....  ..XX....    ..    ",
"        ....  ..XX....    ..    ",
"      ....oo..oooooo..  ....    ",
"      ....oo..oooooo..  ....    ",
"    ..ooooooooooooooXX......    ",
"    ..ooooooooooooooXX......    ",
"  ..oooooooooooooooooooo......  ",
"  ..oooooooooooooooooooo......  ",
"  ..XXXXXXXXXXoooooooooooo....  ",
"  ..XXXXXXXXXXoooooooooooo....  ",
"    ..XXXXXXXXXXXXXXoooooooo....",
"    ..XXXXXXXXXXXXXXoooooooo....",
"      ..ooooooXXXXXXXXXXXXXX..  ",
"      ..ooooooXXXXXXXXXXXXXX..  ",
"    ..oooooooooooooooooooo..    ",
"    ..oooooooooooooooooooo..    ",
"  ....ooooooooooooooooXXXX......",
"  ....ooooooooooooooooXXXX......",
"......XXXXXXoooooooooooo..    ..",
"......XXXXXXoooooooooooo..    ..",
"....XXXXXXXXXXXXooXXoooo..      ",
"....XXXXXXXXXXXXooXXoooo..      ",
"  ..XXoooooooooooooooooooo..    ",
"  ..XXoooooooooooooooooooo..    ",
"    ..oooooooooooooooooooo....  ",
"    ..oooooooooooooooooooo....  ",
"    ..ooooooooXXXXXXXXXXoo..  ..",
"    ..ooooooooXXXXXXXXXXoo..  .."
};
