/* XPM */
static char *tile3911694789391[] = {
/* columns rows colors chars-per-pixel */
"32 32 5 1 ",
"  c #B69280",
". c #8F7A73",
"X c #846757",
"o c #937560",
"O c white",
/* pixels */
"  ..      ..XXXXXXXXXXXXXXXXXXoo",
"  ..      ..XXXXXXXXXXXXXXXXXXoo",
"        ....XXooooooooXXXXXXXXXX",
"        ....XXooooooooXXXXXXXXXX",
"    ......XXXXXXXXXXoooooooooooo",
"    ......XXXXXXXXXXoooooooooooo",
"........XXXXoooooooooooooooooooo",
"........XXXXoooooooooooooooooooo",
"XXXXXXXXXXooooooooooXXXXoooooooo",
"XXXXXXXXXXooooooooooXXXXoooooooo",
"oooooooooooooooooooooooooooooooo",
"oooooooooooooooooooooooooooooooo",
"ooooooooXXXXXXoooooooooooooooooo",
"ooooooooXXXXXXoooooooooooooooooo",
"XXXXXXXXXXXXXXXXXXXXooooooooXXXX",
"XXXXXXXXXXXXXXXXXXXXooooooooXXXX",
"ooooooooooooooXXXXXXXXXXXXXXXXXX",
"ooooooooooooooXXXXXXXXXXXXXXXXXX",
"oooooooooooooooooooooooo......oo",
"oooooooooooooooooooooooo......oo",
"oooooooooooooooooooo............",
"oooooooooooooooooooo............",
"oooooooooo..............  ....  ",
"oooooooooo..............  ....  ",
"............  ........    ..    ",
"............  ........    ..    ",
"    ..    ..    ..        ..    ",
"    ..    ..    ..        ..    ",
"      ..  ..            ..    ..",
"      ..  ..            ..    ..",
"      ..    ..        ..        ",
"      ..    ..        ..        "
};
