/* XPM */
static char *tile5691694789393[] = {
/* columns rows colors chars-per-pixel */
"32 32 3 1 ",
"  c white",
". c #F3E9F0",
"X c #FA8B58",
/* pixels */
"    ..XXXXXXXXXXXXXXXXXX....    ",
"    ..XXXXXXXXXXXXXXXXXX....    ",
"    ....XXXXXXXXXXXXXX....      ",
"    ....XXXXXXXXXXXXXX....      ",
"..    ....XXXXXXXXXX....    ....",
"..    ....XXXXXXXXXX....    ....",
"....    ..XXXXXXXXXX....  ....XX",
"....    ..XXXXXXXXXX....  ....XX",
"XX........XXXXXXXXXX........XXXX",
"XX........XXXXXXXXXX........XXXX",
"XXXX........XXXXXXXX..XXXXXXXXXX",
"XXXX........XXXXXXXX..XXXXXXXXXX",
"XXXXXXXXXXXXXXXXXXXXXXXXXXXXXXXX",
"XXXXXXXXXXXXXXXXXXXXXXXXXXXXXXXX",
"XXXXXXXXXXXXXXXXXXXXXXXXXXXXXXXX",
"XXXXXXXXXXXXXXXXXXXXXXXXXXXXXXXX",
"XXXXXXXXXXXXXXXXXXXXXXXXXXXXXXXX",
"XXXXXXXXXXXXXXXXXXXXXXXXXXXXXXXX",
"XXXXXXXXXXXXXXXXXXXXXXXXXXXXXXXX",
"XXXXXXXXXXXXXXXXXXXXXXXXXXXXXXXX",
"XXXXXXXXXXXXXXXXXXXXXX......XXXX",
"XXXXXXXXXXXXXXXXXXXXXX......XXXX",
"XXXX........XXXXXXXXXX........XX",
"XXXX........XXXXXXXXXX........XX",
"XX..........XXXXXXXXXX....  ....",
"XX..........XXXXXXXXXX....  ....",
"....    ....XXXXXXXXXX....    ..",
"....    ....XXXXXXXXXX....    ..",
"      ....XXXXXXXXXXXXXX....    ",
"      ....XXXXXXXXXXXXXX....    ",
"    ....XXXXXXXXXXXXXXXXXX..    ",
"    ....XXXXXXXXXXXXXXXXXX..    "
};
