/* XPM */
static char *tile4031694789391[] = {
/* columns rows colors chars-per-pixel */
"32 32 3 1 ",
"  c #F3E9F0",
". c #D2C7C8",
"X c white",
/* pixels */
"    ..XXXXXXXXXXXXXXXXXXXX..    ",
"    ..XXXXXXXXXXXXXXXXXXXX..    ",
"  ..XXXXXXXXXXXXXXXXXXXXXX..    ",
"  ..XXXXXXXXXXXXXXXXXXXXXX..    ",
"..XXXXXXXXXXXXXXXXXXXXXX......  ",
"..XXXXXXXXXXXXXXXXXXXXXX......  ",
"XXXXXXXXXXXXXXXXXXXXXX..      ..",
"XXXXXXXXXXXXXXXXXXXXXX..      ..",
"XXXXXXXXXXXXXXXXXXXXXXXX..      ",
"XXXXXXXXXXXXXXXXXXXXXXXX..      ",
"XXXXXXXXXXXXXXXXXXXXXXXX....    ",
"XXXXXXXXXXXXXXXXXXXXXXXX....    ",
"XXXXXXXXXXXXXXXXXXXXXXXXXX....  ",
"XXXXXXXXXXXXXXXXXXXXXXXXXX....  ",
"XXXXXXXXXXXXXXXXXXXXXXXXXXXX....",
"XXXXXXXXXXXXXXXXXXXXXXXXXXXX....",
"XXXXXXXXXXXXXXXXXXXXXXXXXXXX..  ",
"XXXXXXXXXXXXXXXXXXXXXXXXXXXX..  ",
"XXXXXXXXXXXXXXXXXXXXXXXXXX..    ",
"XXXXXXXXXXXXXXXXXXXXXXXXXX..    ",
"XXXXXXXXXXXXXXXXXXXXXXXXXX......",
"XXXXXXXXXXXXXXXXXXXXXXXXXX......",
"XXXXXXXXXXXXXXXXXXXXXXXX..    ..",
"XXXXXXXXXXXXXXXXXXXXXXXX..    ..",
"XXXXXXXXXXXXXXXXXXXXXXXX..      ",
"XXXXXXXXXXXXXXXXXXXXXXXX..      ",
"..XXXXXXXXXXXXXXXXXXXXXXXX..    ",
"..XXXXXXXXXXXXXXXXXXXXXXXX..    ",
"  ..XXXXXXXXXXXXXXXXXXXXXX....  ",
"  ..XXXXXXXXXXXXXXXXXXXXXX....  ",
"    ..XXXXXXXXXXXXXXXXXXXX..  ..",
"    ..XXXXXXXXXXXXXXXXXXXX..  .."
};
