/* XPM */
static char *tile1731694789388[] = {
/* columns rows colors chars-per-pixel */
"32 32 5 1 ",
"  c #6CA246",
". c #4E8653",
"X c #A1624B",
"o c #A87253",
"O c white",
/* pixels */
"      ..      ..    ....      ..",
"      ..      ..    ....      ..",
"    ..      ......  ..      ..  ",
"    ..      ......  ..      ..  ",
"......    ....XXXX....    ......",
"......    ....XXXX....    ......",
"XXXX..  ....XXooooXXXX....XXXXXX",
"XXXX..  ....XXooooXXXX....XXXXXX",
"ooooXX..XXXXooooooooXXXXXXoooooo",
"ooooXX..XXXXooooooooXXXXXXoooooo",
"ooooooXXoooooooooooooooooooooooo",
"ooooooXXoooooooooooooooooooooooo",
"ooXXXXXXXXXXXXoooooooooooooooooo",
"ooXXXXXXXXXXXXoooooooooooooooooo",
"XXXXXXXXXXXXXXXXXXXXooooooooXXXX",
"XXXXXXXXXXXXXXXXXXXXooooooooXXXX",
"ooooooooooooooXXXXXXXXXXXXXXXXXX",
"ooooooooooooooXXXXXXXXXXXXXXXXXX",
"oooooooooooooooooooooooooooooooo",
"oooooooooooooooooooooooooooooooo",
"ooooooooooooooooooooooXXXXXXoooo",
"ooooooooooooooooooooooXXXXXXoooo",
"ooooXXXXXXXXoooooooooooooooooooo",
"ooooXXXXXXXXoooooooooooooooooooo",
"XXXXXXXXXXXXXXXXooXXooooooXXXXXX",
"XXXXXXXXXXXXXXXXooXXooooooXXXXXX",
"..XXooooooooooooooooooooooooXX..",
"..XXooooooooooooooooooooooooXX..",
"  ..XXooooooooooooooooooooXX..  ",
"  ..XXooooooooooooooooooooXX..  ",
"    ..XXooooooXXXXXXXXXXXX..    ",
"    ..XXooooooXXXXXXXXXXXX..    "
};
