/* XPM */
static char *tile0691694789387[] = {
/* columns rows colors chars-per-pixel */
"32 32 5 1 ",
"  c #FFA767",
". c #FA8B58",
"X c #FFB77C",
"o c #FFC792",
"O c white",
/* pixels */
"    ..            ....    ..    ",
"    ..            ....    ..    ",
"      ..          ..      ..    ",
"      ..          ..      ..    ",
"        ............    ......  ",
"        ............    ......  ",
"....    ..XXXXXXXXXX............",
"....    ..XXXXXXXXXX............",
"    ....XXXXXXXXXXXXXXXX....    ",
"    ....XXXXXXXXXXXXXXXX....    ",
"  ....XXXXXXooooooXXXXXX..      ",
"  ....XXXXXXooooooXXXXXX..      ",
"  ....XXXXooooooooooooXXXX..    ",
"  ....XXXXooooooooooooXXXX..    ",
"......XXooooooooooooooXXXX......",
"......XXooooooooooooooXXXX......",
"    ..XXooooooooooooooooXX....  ",
"    ..XXooooooooooooooooXX....  ",
"      ..ooooooooooooooooXX..    ",
"      ..ooooooooooooooooXX..    ",
"......XXXXooooooooooooooXX......",
"......XXXXooooooooooooooXX......",
"    ....XXoooooooooooooo......  ",
"    ....XXoooooooooooooo......  ",
"  ..    ....oooooooo............",
"  ..    ....oooooooo............",
"..      ..  ............  ....  ",
"..      ..  ............  ....  ",
"..      ..    ........    ..    ",
"..      ..    ........    ..    ",
"..      ..      ..        ..    ",
"..      ..      ..        ..    "
};
