/* XPM */
static char *tile0651694789387[] = {
/* columns rows colors chars-per-pixel */
"32 32 5 1 ",
"  c #FFC7AB",
". c #F99096",
"X c #FFC792",
"o c #FFB77C",
"O c white",
/* pixels */
"    ..XXXXXXXXXXXXXXXXXXXX..    ",
"    ..XXXXXXXXXXXXXXXXXXXX..    ",
"  ..ooooXXXXXXXXXXXXXXXXoooo..  ",
"  ..ooooXXXXXXXXXXXXXXXXoooo..  ",
"..ooooooXXXXXXXXXXXXXXXXoooooo..",
"..ooooooXXXXXXXXXXXXXXXXoooooo..",
"ooooooXXXXXXXXXXXXXXXXXXXXoooooo",
"ooooooXXXXXXXXXXXXXXXXXXXXoooooo",
"ooooXXXXXXXXXXXXXXXXXXXXXXXXoooo",
"ooooXXXXXXXXXXXXXXXXXXXXXXXXoooo",
"XXXXXXXXXXXXXXXXXXXXXXXXXXXXXXXX",
"XXXXXXXXXXXXXXXXXXXXXXXXXXXXXXXX",
"XXXXXXXXXXXXXXXXXXXXXXXXXXXXXXXX",
"XXXXXXXXXXXXXXXXXXXXXXXXXXXXXXXX",
"XXXXXXXXXXXXXXXXXXXXXXXXXXXXXXXX",
"XXXXXXXXXXXXXXXXXXXXXXXXXXXXXXXX",
"XXXXXXXXXXXXXXXXXXXXXXXXXXXXXXXX",
"XXXXXXXXXXXXXXXXXXXXXXXXXXXXXXXX",
"XXXXXXXXXXXXXXXXXXXXXXXXXXXXXXXX",
"XXXXXXXXXXXXXXXXXXXXXXXXXXXXXXXX",
"XXXXXXXXXXXXXXXXXXXXXXXXXXXXXXXX",
"XXXXXXXXXXXXXXXXXXXXXXXXXXXXXXXX",
"XXXXXXXXXXXXXXXXXXXXXXXXXXXXXXXX",
"XXXXXXXXXXXXXXXXXXXXXXXXXXXXXXXX",
"XXXXXXXXXXXXXXXXXXXXXXXXXXXXXXXX",
"XXXXXXXXXXXXXXXXXXXXXXXXXXXXXXXX",
"XXXXXXXXXXXXXXXXXXXXXXXXXXXXXX..",
"XXXXXXXXXXXXXXXXXXXXXXXXXXXXXX..",
"XXXXXXXXXXXXXXXXXXXXXXXXXXXX..  ",
"XXXXXXXXXXXXXXXXXXXXXXXXXXXX..  ",
"XXXXXXXXXXXXXXXXXXXXXXXXXX..    ",
"XXXXXXXXXXXXXXXXXXXXXXXXXX..    "
};
