/* XPM */
static char *tile1691694789388[] = {
/* columns rows colors chars-per-pixel */
"32 32 5 1 ",
"  c #6CA246",
". c #4E8653",
"X c #A1624B",
"o c #A87253",
"O c white",
/* pixels */
"              ..    ....      ..",
"              ..    ....      ..",
"  ..        ......  ..      ..  ",
"  ..        ......  ..      ..  ",
"    ..    ....XXXX....    ......",
"    ..    ....XXXX....    ......",
"      ......XXooooXXXX....XXXXXX",
"      ......XXooooXXXX....XXXXXX",
"....  ..XXXXooooooooXXXXXXoooooo",
"....  ..XXXXooooooooXXXXXXoooooo",
"    ..XXoooooooooooooooooooooooo",
"    ..XXoooooooooooooooooooooooo",
"  ..XXXXXXXXXXoooooooooooooooooo",
"  ..XXXXXXXXXXoooooooooooooooooo",
"......XXXXXXXXXXXXXXooooooooXXXX",
"......XXXXXXXXXXXXXXooooooooXXXX",
"      ..ooooooXXXXXXXXXXXXXXXXXX",
"      ..ooooooXXXXXXXXXXXXXXXXXX",
"    ..XXoooooooooooooooooooooooo",
"    ..XXoooooooooooooooooooooooo",
"  ....XXooooooooooooooXXXXXXoooo",
"  ....XXooooooooooooooXXXXXXoooo",
"......XXXXXXoooooooooooooooooooo",
"......XXXXXXoooooooooooooooooooo",
"....XXXXXXXXXXXXooXXooooooXXXXXX",
"....XXXXXXXXXXXXooXXooooooXXXXXX",
"  ..XXXXooooooooooooooooooooXX..",
"  ..XXXXooooooooooooooooooooXX..",
"    ..XXooooooooooooooooooXX..  ",
"    ..XXooooooooooooooooooXX..  ",
"    ..XXooooooXXXXXXXXXXXX..    ",
"    ..XXooooooXXXXXXXXXXXX..    "
};
