/* XPM */
static char *tile3481694789390[] = {
/* columns rows colors chars-per-pixel */
"32 32 5 1 ",
"  c #937560",
". c #846757",
"X c #8F7A73",
"o c #B69280",
"O c white",
/* pixels */
"        ............XXooooooXXoo",
"        ............XXooooooXXoo",
"............      XXXXXXoooooooo",
"............      XXXXXXoooooooo",
"........        ..XXXXXXXXXXoooo",
"........        ..XXXXXXXXXXoooo",
"                  XXXXooooooXXoo",
"                  XXXXooooooXXoo",
"                    XXXXooooooXX",
"                    XXXXooooooXX",
"                    XXXXXXoooooo",
"                    XXXXXXoooooo",
"  ............        XXXXoooooo",
"  ............        XXXXoooooo",
"....................  XXXXXXoooo",
"....................  XXXXXXoooo",
"              ........XXXXoooooo",
"              ........XXXXoooooo",
"                      XXooooooXX",
"                      XXooooooXX",
"                      XXXXXXXXoo",
"                      XXXXXXXXoo",
"    ........          XXXXoooooo",
"    ........          XXXXoooooo",
"................  ..  XXXXXXoooo",
"................  ..  XXXXXXoooo",
"XX..                  XXooooXXoo",
"XX..                  XXooooXXoo",
"ooXX..              XXoooooooooo",
"ooXX..              XXoooooooooo",
"ooooXX..      ......XXXXXXXXoooo",
"ooooXX..      ......XXXXXXXXoooo"
};
