/* XPM */
static char *tile0381694789386[] = {
/* columns rows colors chars-per-pixel */
"32 32 5 1 ",
"  c #FFC792",
". c #F99096",
"X c #FFB77C",
"o c #FFC7AB",
"O c white",
/* pixels */
"                                ",
"                                ",
"                                ",
"                                ",
"                                ",
"                                ",
"                                ",
"                                ",
"                                ",
"                                ",
"                                ",
"                                ",
"                                ",
"                                ",
"                                ",
"                                ",
"                                ",
"                                ",
"                        ......  ",
"                        ......  ",
"                      ..........",
"                      ..........",
"                    XX..oo....oo",
"                    XX..oo....oo",
"                    XX......oooo",
"                    XX......oooo",
"                    XX..oooooooo",
"                    XX..oooooooo",
"                    ..oooooooo..",
"                    ..oooooooo..",
"                  XX........oooo",
"                  XX........oooo"
};
