/* XPM */
static char *tile1581694789388[] = {
/* columns rows colors chars-per-pixel */
"32 32 5 1 ",
"  c #ABBA4F",
". c #A99E40",
"X c #C4755D",
"o c #DC8163",
"O c white",
/* pixels */
"              ..    ....      ..",
"              ..    ....      ..",
"  ..        ......  ..      ..  ",
"  ..        ......  ..      ..  ",
"    ..    ....XXXX....    ......",
"    ..    ....XXXX....    ......",
"      ......XXooooXXXX....XXXXXX",
"      ......XXooooXXXX....XXXXXX",
"....  ..XXXXooooooooXXXXXXoooooo",
"....  ..XXXXooooooooXXXXXXoooooo",
"    ..XXoooooooooooooooooooooooo",
"    ..XXoooooooooooooooooooooooo",
"  ..XXXXXXXXXXoooooooooooooooooo",
"  ..XXXXXXXXXXoooooooooooooooooo",
"......XXXXXXXXXXXXXXooooooooXXXX",
"......XXXXXXXXXXXXXXooooooooXXXX",
"      ..ooooooXXXXXXXXXXXXXXXXXX",
"      ..ooooooXXXXXXXXXXXXXXXXXX",
"    ..XXoooooooooooooooooooooooo",
"    ..XXoooooooooooooooooooooooo",
"  ....XXooooooooooooooXXXXXXoooo",
"  ....XXooooooooooooooXXXXXXoooo",
"......XXXXXXoooooooooooooooooooo",
"......XXXXXXoooooooooooooooooooo",
"....XXXXXXXXXXXXooXXooooooXXXXXX",
"....XXXXXXXXXXXXooXXooooooXXXXXX",
"  ..XXXXooooooooooooooooooooXX..",
"  ..XXXXooooooooooooooooooooXX..",
"    ..XXooooooooooooooooooXX..  ",
"    ..XXooooooooooooooooooXX..  ",
"    ..XXooooooXXXXXXXXXXXX..    ",
"    ..XXooooooXXXXXXXXXXXX..    "
};
