/* XPM */
static char *tile5201694789392[] = {
/* columns rows colors chars-per-pixel */
"32 32 3 1 ",
"  c white",
". c #F3E9F0",
"X c #FA8B58",
/* pixels */
"    ......XXXXXXXXXXXXXXXX..    ",
"    ......XXXXXXXXXXXXXXXX..    ",
"        ....XXXXXX............  ",
"        ....XXXXXX............  ",
"          ....XX............    ",
"          ....XX............    ",
"          ........              ",
"          ........              ",
"            ....                ",
"            ....                ",
"            ....                ",
"            ....                ",
"              ..                ",
"              ..                ",
"                                ",
"                                ",
"                                ",
"                                ",
"                                ",
"                                ",
"                                ",
"                                ",
"                                ",
"                                ",
"                                ",
"                                ",
"                                ",
"                                ",
"                                ",
"                                ",
"                                ",
"                                "
};
