/* XPM */
static char *tile1111694789387[] = {
/* columns rows colors chars-per-pixel */
"32 32 3 1 ",
"  c #FFA767",
". c #FA8B58",
"X c white",
/* pixels */
"                                ",
"                                ",
"                                ",
"                                ",
"                                ",
"                                ",
"    ......      ........        ",
"    ......      ........        ",
"  ..      ..  ..        ..      ",
"  ..      ..  ..        ..      ",
"    ..      ..        ..        ",
"    ..      ..        ..        ",
"      ..  ..        ....        ",
"      ..  ..        ....        ",
"      ..  ..      ........      ",
"      ..  ..      ........      ",
"    ..    ..      ..........    ",
"    ..    ..      ..........    ",
"          ..        ..      ..  ",
"          ..        ..      ..  ",
"            ..    ..      ..    ",
"            ..    ..      ..    ",
"                  ..      ..    ",
"                  ..      ..    ",
"                  ..            ",
"                  ..            ",
"                    ..          ",
"                    ..          ",
"                                ",
"                                ",
"                                ",
"                                "
};
