/* XPM */
static char *tile3081694789389[] = {
/* columns rows colors chars-per-pixel */
"32 32 3 1 ",
"  c #F3E9F0",
". c #D2C7C8",
"X c white",
/* pixels */
"                                ",
"                                ",
"          ..                    ",
"          ..                    ",
"        ..      ..              ",
"        ..      ..              ",
"        ..    ..            ..  ",
"        ..    ..            ..  ",
"        ....  ..            ....",
"        ....  ..            ....",
"          ......      ..    ....",
"          ......      ..    ....",
"            ....      ....  ..XX",
"            ....      ....  ..XX",
"      ..      ....      ......XX",
"      ..      ....      ......XX",
"        ..      ....      ..XXXX",
"        ..      ....      ..XXXX",
"        ..        ........XXXXXX",
"        ..        ........XXXXXX",
"          ..        ..XXXXXXXXXX",
"          ..        ..XXXXXXXXXX",
"  ..        ........XXXXXXXXXXXX",
"  ..        ........XXXXXXXXXXXX",
"  ....      ..XXXXXXXXXXXXXXXXXX",
"  ....      ..XXXXXXXXXXXXXXXXXX",
"    ........XXXXXXXXXXXXXXXXXXXX",
"    ........XXXXXXXXXXXXXXXXXXXX",
"        ..XXXXXXXXXXXXXXXXXXXXXX",
"        ..XXXXXXXXXXXXXXXXXXXXXX",
"          ..XXXXXXXXXXXXXXXXXXXX",
"          ..XXXXXXXXXXXXXXXXXXXX"
};
