/* XPM */
static char *tile2181694789389[] = {
/* columns rows colors chars-per-pixel */
"32 32 5 1 ",
"  c #6CA246",
". c #4E8653",
"X c #A1624B",
"o c #A87253",
"O c white",
/* pixels */
"    ..XXXXXXXXXXXXXXXXXXXX..    ",
"    ..XXXXXXXXXXXXXXXXXXXX..    ",
"  ..XXXXXXXXooooooooooooooXX..  ",
"  ..XXXXXXXXooooooooooooooXX..  ",
"..XXXXXXooooooooXXXXooooooooXX..",
"..XXXXXXooooooooXXXXooooooooXX..",
"XXXXXXooooooooooooooooooooooooXX",
"XXXXXXooooooooooooooooooooooooXX",
"ooooooooooooooooooooXXXXoooooooo",
"ooooooooooooooooooooXXXXoooooooo",
"oooooooooooooooooooooooooooooooo",
"oooooooooooooooooooooooooooooooo",
"ooXXXXXXXXXXXXoooooooooooooooooo",
"ooXXXXXXXXXXXXoooooooooooooooooo",
"XXXXXXXXXXXXXXXXXXXXooooooooXXXX",
"XXXXXXXXXXXXXXXXXXXXooooooooXXXX",
"ooooooooooooooXXXXXXXXXXXXXXXXXX",
"ooooooooooooooXXXXXXXXXXXXXXXXXX",
"oooooooooooooooooooooooooooooooo",
"oooooooooooooooooooooooooooooooo",
"ooooooooooooooooooooooXXXXXXoooo",
"ooooooooooooooooooooooXXXXXXoooo",
"ooooXXXXXXXXoooooooooooooooooooo",
"ooooXXXXXXXXoooooooooooooooooooo",
"XXXXXXXXXXXXXXXXooXXooooooXXXXoo",
"XXXXXXXXXXXXXXXXooXXooooooXXXXoo",
"..XXoooooooooooooooooooooooooooo",
"..XXoooooooooooooooooooooooooooo",
"  ..XXoooooooooooooooooooooooooo",
"  ..XXoooooooooooooooooooooooooo",
"    ..XXooooooXXXXXXXXXXoooooooo",
"    ..XXooooooXXXXXXXXXXoooooooo"
};
