/* XPM */
static char *tile2051694789388[] = {
/* columns rows colors chars-per-pixel */
"32 32 5 1 ",
"  c #ABBA4F",
". c #A99E40",
"X c #C4755D",
"o c #DC8163",
"O c white",
/* pixels */
"    ..XXXXXXXXXXXXXX..      ..  ",
"    ..XXXXXXXXXXXXXX..      ..  ",
"  ..XXXXXXXXoooooo......        ",
"  ..XXXXXXXXoooooo......        ",
"..XXXXXXooooooooXX..........    ",
"..XXXXXXooooooooXX..........    ",
"XXXXXXoooooooooooo....      ..  ",
"XXXXXXoooooooooooo....      ..  ",
"oooooooooooooooooooo....      ..",
"oooooooooooooooooooo....      ..",
"oooooooooooooooooooo......      ",
"oooooooooooooooooooo......      ",
"ooXXXXXXXXXXXXoooooooo....      ",
"ooXXXXXXXXXXXXoooooooo....      ",
"XXXXXXXXXXXXXXXXXXXXoo......    ",
"XXXXXXXXXXXXXXXXXXXXoo......    ",
"ooooooooooooooXXXXXXXX....      ",
"ooooooooooooooXXXXXXXX....      ",
"oooooooooooooooooooooo..      ..",
"oooooooooooooooooooooo..      ..",
"oooooooooooooooooooooo........  ",
"oooooooooooooooooooooo........  ",
"ooooooXXXXXXoooooooooo....      ",
"ooooooXXXXXXoooooooooo....      ",
"ooXXXXXXXXXXXXXXooXXoo......    ",
"ooXXXXXXXXXXXXXXooXXoo......    ",
"XXXXXXoooooooooooooooo..    ..  ",
"XXXXXXoooooooooooooooo..    ..  ",
"oooooooooooooooooooo..          ",
"oooooooooooooooooooo..          ",
"ooooooooooooooXXXXXX........    ",
"ooooooooooooooXXXXXX........    "
};
