/* XPM */
static char *tile2501694789389[] = {
/* columns rows colors chars-per-pixel */
"32 32 5 1 ",
"  c #ABBA4F",
". c #A99E40",
"X c #C4755D",
"o c #DC8163",
"O c white",
/* pixels */
"    ..XXXXXXXXXXXXXXXXXXXX..    ",
"    ..XXXXXXXXXXXXXXXXXXXX..    ",
"  ..XXXXXXXXooooooooooooooXX..  ",
"  ..XXXXXXXXooooooooooooooXX..  ",
"..XXXXXXooooooooXXXXooooooooXX..",
"..XXXXXXooooooooXXXXooooooooXX..",
"XXXXXXooooooooooooooooooooooooXX",
"XXXXXXooooooooooooooooooooooooXX",
"ooooooooooooooooooooXXXXoooooooo",
"ooooooooooooooooooooXXXXoooooooo",
"oooooooooooooooooooooooooooooooo",
"oooooooooooooooooooooooooooooooo",
"ooXXXXXXXXXXXXoooooooooooooooooo",
"ooXXXXXXXXXXXXoooooooooooooooooo",
"XXXXXXXXXXXXXXXXXXXXooooooooXXXX",
"XXXXXXXXXXXXXXXXXXXXooooooooXXXX",
"ooooooooooooooXXXXXXXXXXXXXXXXXX",
"ooooooooooooooXXXXXXXXXXXXXXXXXX",
"oooooooooooooooooooooooooooooooo",
"oooooooooooooooooooooooooooooooo",
"ooooooooooooooooooooooXXXXXXoooo",
"ooooooooooooooooooooooXXXXXXoooo",
"ooooXXXXXXXXoooooooooooooooooooo",
"ooooXXXXXXXXoooooooooooooooooooo",
"XXXXXXXXXXXXXXXXooXXooooooXXXXXX",
"XXXXXXXXXXXXXXXXooXXooooooXXXXXX",
"..XXooooooooooooooooooooooooXX..",
"..XXooooooooooooooooooooooooXX..",
"  ..XXooooooooooooooooooooXX..  ",
"  ..XXooooooooooooooooooooXX..  ",
"    ..XXooooooXXXXXXXXXXXX..    ",
"    ..XXooooooXXXXXXXXXXXX..    "
};
