/* XPM */
static char *tile0051694789386[] = {
/* columns rows colors chars-per-pixel */
"32 32 5 1 ",
"  c #FFA767",
". c #FA8B58",
"X c #FFB77C",
"o c #FFC792",
"O c white",
/* pixels */
"        ..        ..      ..    ",
"        ..        ..      ..    ",
"..    ..            ..  ..    ..",
"..    ..            ..  ..    ..",
"    ..        ..    ......    ..",
"    ..        ..    ......    ..",
"    ..    ........  ........  ..",
"    ..    ........  ........  ..",
"  ....  ..............XXXXXX....",
"  ....  ..............XXXXXX....",
"............XXXXXXXXXXXXXXXXXXXX",
"............XXXXXXXXXXXXXXXXXXXX",
"XX......XXXXXXXXXXXXXXXXooXXXXXX",
"XX......XXXXXXXXXXXXXXXXooXXXXXX",
"XXXXXXXXXXXXXXoooooooooooooooooo",
"XXXXXXXXXXXXXXoooooooooooooooooo",
"XXXXXXXXXXoooooooooooooooooooooo",
"XXXXXXXXXXoooooooooooooooooooooo",
"oooooooooooooooooooooooooooooooo",
"oooooooooooooooooooooooooooooooo",
"oooooooooooooooooooooooooooooooo",
"oooooooooooooooooooooooooooooooo",
"oooooooooooooooooooooooooooooooo",
"oooooooooooooooooooooooooooooooo",
"oooooooooooooooooooooooooooooooo",
"oooooooooooooooooooooooooooooooo",
"oooooooooooooooooooooooo........",
"oooooooooooooooooooooooo........",
"oooooooooooooooooooooo......    ",
"oooooooooooooooooooooo......    ",
"oooooooooooooooooooo....        ",
"oooooooooooooooooooo....        "
};
