/* XPM */
static char *tile0811694789387[] = {
/* columns rows colors chars-per-pixel */
"32 32 5 1 ",
"  c #FFC7AB",
". c #F99096",
"X c #FFB77C",
"o c #FFC792",
"O c white",
/* pixels */
"  ..XXooooooooooooooooooXX..    ",
"  ..XXooooooooooooooooooXX..    ",
"......XXooooooooooooooooXXXX..  ",
"......XXooooooooooooooooXXXX..  ",
"      ..ooooooooooooooooXXXXXX..",
"      ..ooooooooooooooooXXXXXX..",
"    ..XXXXooooooooooooooooXXXXXX",
"    ..XXXXooooooooooooooooXXXXXX",
"......XXXXooooooooooooooooooXXXX",
"......XXXXooooooooooooooooooXXXX",
"    ..XXoooooooooooooooooooooooo",
"    ..XXoooooooooooooooooooooooo",
"  ..XXXXoooooooooooooooooooooooo",
"  ..XXXXoooooooooooooooooooooooo",
"......XXoooooooooooooooooooooooo",
"......XXoooooooooooooooooooooooo",
"      ..oooooooooooooooooooooooo",
"      ..oooooooooooooooooooooooo",
"    ..XXXXoooooooooooooooooooooo",
"    ..XXXXoooooooooooooooooooooo",
"  ....XXXXoooooooooooooooooooooo",
"  ....XXXXoooooooooooooooooooooo",
"......XXoooooooooooooooooooooooo",
"......XXoooooooooooooooooooooooo",
"      ..oooooooo..oooooooooooooo",
"      ..oooooooo..oooooooooooooo",
"    ........oo..  ......oooo....",
"    ........oo..  ......oooo....",
"  ..    ..  ....    ........    ",
"  ..    ..  ....    ........    ",
"  ..    ..    ..      ....      ",
"  ..    ..    ..      ....      "
};
