/* XPM */
static char *tile0171694789386[] = {
/* columns rows colors chars-per-pixel */
"32 32 5 1 ",
"  c #F99096",
". c #FFC7AB",
"X c #FFB77C",
"o c #FFC792",
"O c white",
/* pixels */
"  ....    ........  ............",
"  ....    ........  ............",
"....  ..............  ....  ....",
"....  ..............  ....  ....",
"....  ........  ....  ..  ....  ",
"....  ........  ....  ..  ....  ",
"..    ....        ..      ....  ",
"..    ....        ..      ....  ",
"                            ..  ",
"                            ..  ",
"XX          XXXXXXXXXXXXXXXX    ",
"XX          XXXXXXXXXXXXXXXX    ",
"XXXXXXXXXXXXXXXXXXXXXXXXXXXXXXXX",
"XXXXXXXXXXXXXXXXXXXXXXXXXXXXXXXX",
"XXXXXXXXXXXXXXooooooooooooXXXXXX",
"XXXXXXXXXXXXXXooooooooooooXXXXXX",
"oooooooooooooooooooooooooooooooo",
"oooooooooooooooooooooooooooooooo",
"oooooooooooooooooooooooooooooooo",
"oooooooooooooooooooooooooooooooo",
"oooooooooooooooooooooooooooooooo",
"oooooooooooooooooooooooooooooooo",
"oooooooooooooooooooooooooooooooo",
"oooooooooooooooooooooooooooooooo",
"oooooooooooooooooooooooooooooooo",
"oooooooooooooooooooooooooooooooo",
"        oooooooooooooooooooooooo",
"        oooooooooooooooooooooooo",
"....      oooooooooooooooooooooo",
"....      oooooooooooooooooooooo",
"........    oooooooooooooooooooo",
"........    oooooooooooooooooooo"
};
