/* XPM */
static char *tile2761694789389[] = {
/* columns rows colors chars-per-pixel */
"32 32 3 1 ",
"  c #6CA246",
". c #4E8653",
"X c white",
/* pixels */
"                                ",
"                                ",
"                                ",
"                                ",
"                                ",
"                                ",
"    ......      ........        ",
"    ......      ........        ",
"  ..      ..  ..        ..      ",
"  ..      ..  ..        ..      ",
"    ..      ..        ..        ",
"    ..      ..        ..        ",
"      ..  ..        ....        ",
"      ..  ..        ....        ",
"      ..  ..      ........      ",
"      ..  ..      ........      ",
"    ..    ..      ..........    ",
"    ..    ..      ..........    ",
"          ..        ..      ..  ",
"          ..        ..      ..  ",
"            ..    ..      ..    ",
"            ..    ..      ..    ",
"                  ..      ..    ",
"                  ..      ..    ",
"                  ..            ",
"                  ..            ",
"                    ..          ",
"                    ..          ",
"                                ",
"                                ",
"                                ",
"                                "
};
