/* XPM */
static char *tile0661694789387[] = {
/* columns rows colors chars-per-pixel */
"32 32 5 1 ",
"  c #FFA767",
". c #FA8B58",
"X c #FFB77C",
"o c #FFC792",
"O c white",
/* pixels */
"              ..    ....      ..",
"              ..    ....      ..",
"....      ........  ..      ..  ",
"....      ........  ..      ..  ",
"    ..........XXXX....    ......",
"    ..........XXXX....    ......",
"      ......XXXXXXXXXX....XXXXXX",
"      ......XXXXXXXXXX....XXXXXX",
"        ..XXXXXXXXXXXXXXXXXXXXXX",
"        ..XXXXXXXXXXXXXXXXXXXXXX",
"    ....XXXXXXooooooXXXXXXXXoooo",
"    ....XXXXXXooooooXXXXXXXXoooo",
"    ..XXXXXXoooooooooooooooooooo",
"    ..XXXXXXoooooooooooooooooooo",
"  ..XXXXXXoooooooooooooooooooooo",
"  ..XXXXXXoooooooooooooooooooooo",
"    ..XXoooooooooooooooooooooooo",
"    ..XXoooooooooooooooooooooooo",
"      ..oooooooooooooooooooooooo",
"      ..oooooooooooooooooooooooo",
"......XXXXoooooooooooooooooooooo",
"......XXXXoooooooooooooooooooooo",
"    ....XXoooooooooooooooooooooo",
"    ....XXoooooooooooooooooooooo",
"      ..XXoooooo..oooooooooooooo",
"      ..XXoooooo..oooooooooooooo",
"        ..oooo..  ......oooo....",
"        ..oooo..  ......oooo....",
"          ....      ........    ",
"          ....      ........    ",
"                      ....      ",
"                      ....      "
};
