/* XPM */
static char *tile4891694789392[] = {
/* columns rows colors chars-per-pixel */
"32 32 3 1 ",
"  c #B0DCE3",
". c #F3E9F0",
"X c white",
/* pixels */
"                                ",
"                                ",
"                                ",
"                                ",
"                                ",
"                                ",
"                                ",
"                                ",
"                                ",
"                                ",
"                                ",
"                                ",
"                                ",
"                                ",
"                                ",
"                                ",
"                                ",
"                                ",
"                                ",
"                                ",
"                      ......    ",
"                      ......    ",
"                      ........  ",
"                      ........  ",
"                      ....XX....",
"                      ....XX....",
"                      ....XXXX..",
"                      ....XXXX..",
"                        ....XXXX",
"                        ....XXXX",
"                          ..XXXX",
"                          ..XXXX"
};
