/* XPM */
static char *tile2201694789389[] = {
/* columns rows colors chars-per-pixel */
"32 32 5 1 ",
"  c #ABBA4F",
". c #A99E40",
"X c #C4755D",
"o c #DC8163",
"O c white",
/* pixels */
"              ..    ....      ..",
"              ..    ....      ..",
"....      ........  ..      ..  ",
"....      ........  ..      ..  ",
"    ..........XXXX....    ......",
"    ..........XXXX....    ......",
"      ......XXooooXXXX....XXXXXX",
"      ......XXooooXXXX....XXXXXX",
"        ..XXooooooooXXXXXXoooooo",
"        ..XXooooooooXXXXXXoooooo",
"    ....XXoooooooooooooooooooooo",
"    ....XXoooooooooooooooooooooo",
"    ..XXXXXXXXoooooooooooooooooo",
"    ..XXXXXXXXoooooooooooooooooo",
"  ..XXXXXXXXXXXXXXXXooooooooXXXX",
"  ..XXXXXXXXXXXXXXXXooooooooXXXX",
"    ..XXXXooooXXXXXXXXXXXXXXXXXX",
"    ..XXXXooooXXXXXXXXXXXXXXXXXX",
"      ..XXoooooooooooooooooooooo",
"      ..XXoooooooooooooooooooooo",
"......XXooooooooooooooXXXXXXoooo",
"......XXooooooooooooooXXXXXXoooo",
"    ....XXXXoooooooooooooooooooo",
"    ....XXXXoooooooooooooooooooo",
"      ..XXXXXXXX..XXooooooXXXXoo",
"      ..XXXXXXXX..XXooooooXXXXoo",
"        ..XXXX..  ......XXXX....",
"        ..XXXX..  ......XXXX....",
"          ....      ........    ",
"          ....      ........    ",
"                      ....      ",
"                      ....      "
};
