/* XPM */
static char *tile5391694789393[] = {
/* columns rows colors chars-per-pixel */
"32 32 3 1 ",
"  c white",
". c #F3E9F0",
"X c #FA8B58",
/* pixels */
"                                ",
"                                ",
"                                ",
"                                ",
"                              ..",
"                              ..",
"                              ..",
"                              ..",
"                            ....",
"                            ....",
"                        ......XX",
"                        ......XX",
"                    ........XXXX",
"                    ........XXXX",
"                  ........XXXXXX",
"                  ........XXXXXX",
"                        ....XXXX",
"                        ....XXXX",
"                          ....XX",
"                          ....XX",
"                          ....XX",
"                          ....XX",
"                          ....XX",
"                          ....XX",
"                          ....XX",
"                          ....XX",
"                          ......",
"                          ......",
"                            ..  ",
"                            ..  ",
"                                ",
"                                "
};
