/* XPM */
static char *tile2421694789389[] = {
/* columns rows colors chars-per-pixel */
"32 32 4 1 ",
"  c #DC8163",
". c #C4755D",
"X c #B36D50",
"o c white",
/* pixels */
"        ......................  ",
"        ......................  ",
"............          ..........",
"............          ..........",
"........        ....            ",
"........        ....            ",
"                                ",
"                                ",
"      XX            ..XX        ",
"      XX            ..XX        ",
"      XXXX          XXXX        ",
"      XXXX          XXXX        ",
"  ......XXXX..    XXXXXX        ",
"  ......XXXX..    XXXXXX        ",
"..........XXXX..XXXXXX      ....",
"..........XXXX..XXXXXX      ....",
"            XXXXXXXX............",
"            XXXXXXXX............",
"              XXXX              ",
"              XXXX              ",
"                XXXX  ......    ",
"                XXXX  ......    ",
"      ......      XXXX          ",
"      ......      XXXX          ",
"  ..............  ..XXXX  ....  ",
"  ..............  ..XXXX  ....  ",
"......                XXXX      ",
"......                XXXX      ",
"                                ",
"                                ",
"              ..........        ",
"              ..........        "
};
