/* XPM */
static char *tile1811694789388[] = {
/* columns rows colors chars-per-pixel */
"32 32 5 1 ",
"  c #DC8163",
". c #C4755D",
"X c #A99E40",
"o c #ABBA4F",
"O c white",
/* pixels */
"        ......................  ",
"        ......................  ",
"............          ..........",
"............          ..........",
"........        ....            ",
"........        ....            ",
"                                ",
"                                ",
"                    ....        ",
"                    ....        ",
"                                ",
"                                ",
"  ............                  ",
"  ............                  ",
"....................        ....",
"....................        ....",
"              ..................",
"              ..................",
"                        XXXXXX  ",
"                        XXXXXX  ",
"                      XXXXXXXXXX",
"                      XXXXXXXXXX",
"      ......          XXooXXXXoo",
"      ......          XXooXXXXoo",
"  ..............  ..  XXXXXXoooo",
"  ..............  ..  XXXXXXoooo",
"......                XXoooooooo",
"......                XXoooooooo",
"                    XXooooooooXX",
"                    XXooooooooXX",
"              ......XXXXXXXXoooo",
"              ......XXXXXXXXoooo"
};
