/* XPM */
static char *tile0271694789386[] = {
/* columns rows colors chars-per-pixel */
"32 32 5 1 ",
"  c #FFC792",
". c #FA8B58",
"X c #FFB77C",
"o c #FFA767",
"O c white",
/* pixels */
"                                ",
"                                ",
"                                ",
"                                ",
"                                ",
"                                ",
"                                ",
"                                ",
"                                ",
"                                ",
"                                ",
"                                ",
"                                ",
"                                ",
"                                ",
"                                ",
"                                ",
"                                ",
"                        ......  ",
"                        ......  ",
"                      ..........",
"                      ..........",
"                    XX..oo....oo",
"                    XX..oo....oo",
"                    XX......oooo",
"                    XX......oooo",
"                    XX..oooooooo",
"                    XX..oooooooo",
"                    ..oooooooo..",
"                    ..oooooooo..",
"                  XX........oooo",
"                  XX........oooo"
};
