/* XPM */
static char *tile0561694789387[] = {
/* columns rows colors chars-per-pixel */
"32 32 4 1 ",
"  c #FFC792",
". c #F99096",
"X c #FFC7AB",
"o c white",
/* pixels */
"                                ",
"                                ",
"                                ",
"                                ",
"                                ",
"                                ",
"                                ",
"                                ",
"                                ",
"                                ",
"                                ",
"                                ",
"                                ",
"                                ",
"                                ",
"                                ",
"                                ",
"                                ",
"                        ......  ",
"                        ......  ",
"....                ............",
"....                ............",
"..XX....................XX....XX",
"..XX....................XX....XX",
"..XXXX......XX........XXXX..XXXX",
"..XXXX......XX........XXXX..XXXX",
"..XXXX..XX..XXXX..XXXXXXXX..XXXX",
"..XXXX..XX..XXXX..XXXXXXXX..XXXX",
"XXXX..XXXX..XXXXXXXXXXXX..XXXX..",
"XXXX..XXXX..XXXXXXXXXXXX..XXXX..",
"XXXXXXXXXXXX..XXXXXXXX..XXXXXXXX",
"XXXXXXXXXXXX..XXXXXXXX..XXXXXXXX"
};
