/* XPM */
static char *tile3551694789390[] = {
/* columns rows colors chars-per-pixel */
"32 32 3 1 ",
"  c #F3E9F0",
". c #D2C7C8",
"X c white",
/* pixels */
"    ..XXXXXXXXXXXXXXXXXXXX..  ..",
"    ..XXXXXXXXXXXXXXXXXXXX..  ..",
"    ..XXXXXXXXXXXXXXXXXXXX....  ",
"    ..XXXXXXXXXXXXXXXXXXXX....  ",
"  ..XXXXXXXXXXXXXXXXXXXXXX..    ",
"  ..XXXXXXXXXXXXXXXXXXXXXX..    ",
"....XXXXXXXXXXXXXXXXXXXX..      ",
"....XXXXXXXXXXXXXXXXXXXX..      ",
"......XXXXXXXXXXXXXXXXXX..    ..",
"......XXXXXXXXXXXXXXXXXX..    ..",
"  ....XXXXXXXXXXXXXXXXXXXX......",
"  ....XXXXXXXXXXXXXXXXXXXX......",
"    ..XXXXXXXXXXXXXXXXXXXX..    ",
"    ..XXXXXXXXXXXXXXXXXXXX..    ",
"      ..XXXXXXXXXXXXXXXXXXXX..  ",
"      ..XXXXXXXXXXXXXXXXXXXX..  ",
"    ..XXXXXXXXXXXXXXXXXXXXXX....",
"    ..XXXXXXXXXXXXXXXXXXXXXX....",
"  ..XXXXXXXXXXXXXXXXXXXXXX....  ",
"  ..XXXXXXXXXXXXXXXXXXXXXX....  ",
"  ..XXXXXXXXXXXXXXXXXXXX......  ",
"  ..XXXXXXXXXXXXXXXXXXXX......  ",
"    ..XXXXXXXXXXXXXXXX......    ",
"    ..XXXXXXXXXXXXXXXX......    ",
"      ....XX..XXXXXX..  ....    ",
"      ....XX..XXXXXX..  ....    ",
"        ....  ..XX....    ..    ",
"        ....  ..XX....    ..    ",
"          ..    ..          ..  ",
"          ..    ..          ..  ",
"          ..                ..  ",
"          ..                ..  "
};
