/* XPM */
static char *tile1431694789388[] = {
/* columns rows colors chars-per-pixel */
"32 32 5 1 ",
"  c #FFC7AB",
". c #F99096",
"X c #4E8653",
"o c #6CA246",
"O c white",
/* pixels */
"                ....XXooooooXXoo",
"                ....XXooooooXXoo",
"              ....XXXXXXoooooooo",
"              ....XXXXXXoooooooo",
"              ....XXXXXXXXXXoooo",
"              ....XXXXXXXXXXoooo",
"              ....XXXXooooooXXoo",
"              ....XXXXooooooXXoo",
"                ....XXXXooooooXX",
"                ....XXXXooooooXX",
"                ....XXXXXXoooooo",
"                ....XXXXXXoooooo",
"                  ....XXXXoooooo",
"                  ....XXXXoooooo",
"                  ....XXXXXXoooo",
"                  ....XXXXXXoooo",
"                  ....XXXXoooooo",
"                  ....XXXXoooooo",
"                  ....XXooooooXX",
"                  ....XXooooooXX",
"                  ....XXXXXXXXoo",
"                  ....XXXXXXXXoo",
"                  ....XXXXoooooo",
"                  ....XXXXoooooo",
"                  ....XXXXXXoooo",
"                  ....XXXXXXoooo",
"                  ....XXooooXXoo",
"                  ....XXooooXXoo",
"                ....XXoooooooooo",
"                ....XXoooooooooo",
"                ....XXXXXXXXoooo",
"                ....XXXXXXXXoooo"
};
