/* XPM */
static char *tile0081694789386[] = {
/* columns rows colors chars-per-pixel */
"32 32 5 1 ",
"  c #FFA767",
". c #FA8B58",
"X c #FFB77C",
"o c #FFC792",
"O c white",
/* pixels */
"      ..      ..    ....      ..",
"      ..      ..    ....      ..",
"    ..      ......  ..      ..  ",
"    ..      ......  ..      ..  ",
"......    ....XXXX....    ......",
"......    ....XXXX....    ......",
"XXXX..  ....XXXXXXXXXX....XXXXXX",
"XXXX..  ....XXXXXXXXXX....XXXXXX",
"XXXXXX..XXXXXXXXXXXXXXXXXXXXXXXX",
"XXXXXX..XXXXXXXXXXXXXXXXXXXXXXXX",
"XXXXXXXXXXXXXXooooooXXXXXXXXoooo",
"XXXXXXXXXXXXXXooooooXXXXXXXXoooo",
"ooooXXXXXXoooooooooooooooooooooo",
"ooooXXXXXXoooooooooooooooooooooo",
"oooooooooooooooooooooooooooooooo",
"oooooooooooooooooooooooooooooooo",
"oooooooooooooooooooooooooooooooo",
"oooooooooooooooooooooooooooooooo",
"oooooooooooooooooooooooooooooooo",
"oooooooooooooooooooooooooooooooo",
"oooooooooooooooooooooooooooooooo",
"oooooooooooooooooooooooooooooooo",
"ooooooooooooooooooooooooooooooXX",
"ooooooooooooooooooooooooooooooXX",
"ooooooooooooooooooooooooooooooXX",
"ooooooooooooooooooooooooooooooXX",
"..oooooooooooooooooooooooooooo..",
"..oooooooooooooooooooooooooooo..",
"  ..oooooooooooooooooooooooo..  ",
"  ..oooooooooooooooooooooooo..  ",
"    ..oooooooooooooooooooo..    ",
"    ..oooooooooooooooooooo..    "
};
