/* XPM */
static char *tile3651694789390[] = {
/* columns rows colors chars-per-pixel */
"32 32 5 1 ",
"  c #937560",
". c #846757",
"X c #8F7A73",
"o c #B69280",
"O c white",
/* pixels */
"        ............XXoooooooooo",
"        ............XXoooooooooo",
"............          XXoooooooo",
"............          XXoooooooo",
"........        ....XXXXXXXXoooo",
"........        ....XXXXXXXXoooo",
"                  XXooooooXXXXoo",
"                  XXooooooXXXXoo",
"            XXXXXXXXooooooooXXoo",
"            XXXXXXXXooooooooXXoo",
"          XXooooooooXXoooooooooo",
"          XXooooooooXXoooooooooo",
"  ....XXXXXXXXooooooooXXoooooooo",
"  ....XXXXXXXXooooooooXXoooooooo",
"....XXooooooXXXXooooooXXoooooooo",
"....XXooooooXXXXooooooXXoooooooo",
"  XXXXXXooooooXXXXooooooXXoooooo",
"  XXXXXXooooooXXXXooooooXXoooooo",
"  XXooXXXXooooooXXXXoooooooooooo",
"  XXooXXXXooooooXXXXoooooooooooo",
"XXXXooooXXooooooooooooooooooXXoo",
"XXXXooooXXooooooooooooooooooXXoo",
"XXXXoooooooooooooooooooooooooooo",
"XXXXoooooooooooooooooooooooooooo",
"ooXXoooooooooooooooooooooooooooo",
"ooXXoooooooooooooooooooooooooooo",
"oooooooooooooooooooooooooooooooo",
"oooooooooooooooooooooooooooooooo",
"oooooooooooooooooooooooooooooooo",
"oooooooooooooooooooooooooooooooo",
"oooooooooooooooooooooooooooooooo",
"oooooooooooooooooooooooooooooooo"
};
