/* XPM */
static char *tile3391694789390[] = {
/* columns rows colors chars-per-pixel */
"32 32 3 1 ",
"  c #F3E9F0",
". c #D2C7C8",
"X c white",
/* pixels */
"    ........XXXXXXXXXXXXXXXXXXXX",
"    ........XXXXXXXXXXXXXXXXXXXX",
"..        ..XXXXXXXXXXXXXXXXXXXX",
"..        ..XXXXXXXXXXXXXXXXXXXX",
"    ..  ..XXXXXXXXXXXXXXXXXXXXXX",
"    ..  ..XXXXXXXXXXXXXXXXXXXXXX",
"    ..  ..XXXXXXXXXXXXXXXXXXXXXX",
"    ..  ..XXXXXXXXXXXXXXXXXXXXXX",
"  ....  ..XXXXXXXXXXXXXXXXXXXXXX",
"  ....  ..XXXXXXXXXXXXXXXXXXXXXX",
"............XXXXXXXXXXXXXXXXXXXX",
"............XXXXXXXXXXXXXXXXXXXX",
"XX......XXXXXXXXXXXXXXXXXXXXXXXX",
"XX......XXXXXXXXXXXXXXXXXXXXXXXX",
"XXXXXXXXXXXXXXXXXXXXXXXXXXXXXXXX",
"XXXXXXXXXXXXXXXXXXXXXXXXXXXXXXXX",
"XXXXXXXXXXXXXXXXXXXXXXXXXXXXXXXX",
"XXXXXXXXXXXXXXXXXXXXXXXXXXXXXXXX",
"XXXXXXXXXXXXXXXXXXXXXXXX......XX",
"XXXXXXXXXXXXXXXXXXXXXXXX......XX",
"XXXXXXXXXXXXXXXXXXXXXX..........",
"XXXXXXXXXXXXXXXXXXXXXX..........",
"XXXXXXXXXXXXXXXXXXXXXX..  ....  ",
"XXXXXXXXXXXXXXXXXXXXXX..  ....  ",
"XXXXXXXXXXXXXXXXXXXXXX......    ",
"XXXXXXXXXXXXXXXXXXXXXX......    ",
"XXXXXXXXXXXXXXXXXXXXXX..        ",
"XXXXXXXXXXXXXXXXXXXXXX..        ",
"XXXXXXXXXXXXXXXXXXXX..        ..",
"XXXXXXXXXXXXXXXXXXXX..        ..",
"XXXXXXXXXXXXXXXXXXXX........    ",
"XXXXXXXXXXXXXXXXXXXX........    "
};
