/* XPM */
static char *tile3491694789390[] = {
/* columns rows colors chars-per-pixel */
"32 32 5 1 ",
"  c #937560",
". c #846757",
"X c #8F7A73",
"o c #B69280",
"O c white",
/* pixels */
"        ......................  ",
"        ......................  ",
"............          ..........",
"............          ..........",
"........        ....            ",
"........        ....            ",
"                                ",
"                                ",
"                    ....        ",
"                    ....        ",
"                                ",
"                                ",
"  ............                  ",
"  ............                  ",
"....................        ....",
"....................        ....",
"              ..................",
"              ..................",
"                                ",
"                                ",
"                      ......    ",
"                      ......    ",
"    ........                    ",
"    ........                    ",
"................  ..      ......",
"................  ..      ......",
"XX....                      ..XX",
"XX....                      ..XX",
"ooXX..                    ..XXoo",
"ooXX..                    ..XXoo",
"ooooXX..      ............XXoooo",
"ooooXX..      ............XXoooo"
};
