/* XPM */
static char *tile0011694789386[] = {
/* columns rows colors chars-per-pixel */
"32 32 5 1 ",
"  c #FFA767",
". c #FA8B58",
"X c #FFB77C",
"o c #FFC792",
"O c white",
/* pixels */
"        ..        ..            ",
"        ..        ..            ",
"..    ..            ..    ..    ",
"..    ..            ..    ..    ",
"    ..        ..    ..  ..    ..",
"    ..        ..    ..  ..    ..",
"    ..    ........  ......    ..",
"    ..    ........  ......    ..",
"  ....  ....................  ..",
"  ....  ....................  ..",
"............XXXXXXXXXXXXXXXX....",
"............XXXXXXXXXXXXXXXX....",
"XX......XXXXXXXXXXXXXXXXXXXXXXXX",
"XX......XXXXXXXXXXXXXXXXXXXXXXXX",
"XXXXXXXXXXXXXXooooooooooooXXXXXX",
"XXXXXXXXXXXXXXooooooooooooXXXXXX",
"XXXXXXXXXXoooooooooooooooooooooo",
"XXXXXXXXXXoooooooooooooooooooooo",
"oooooooooooooooooooooooooooooooo",
"oooooooooooooooooooooooooooooooo",
"oooooooooooooooooooooooooooooooo",
"oooooooooooooooooooooooooooooooo",
"oooooooooooooooooooooooooooooooo",
"oooooooooooooooooooooooooooooooo",
"oooooooooooooooooooooooooooooooo",
"oooooooooooooooooooooooooooooooo",
"oooooooooooooooooooooooooooooooo",
"oooooooooooooooooooooooooooooooo",
"oooooooooooooooooooooooooooooooo",
"oooooooooooooooooooooooooooooooo",
"oooooooooooooooooooooooooooooooo",
"oooooooooooooooooooooooooooooooo"
};
