/* XPM */
static char *tile0091694789386[] = {
/* columns rows colors chars-per-pixel */
"32 32 5 1 ",
"  c #FFC792",
". c #FA8B58",
"X c #FFA767",
"o c #FFB77C",
"O c white",
/* pixels */
"                    ..XXXXXX..XX",
"                    ..XXXXXX..XX",
"                  ......XXXXXXXX",
"                  ......XXXXXXXX",
"                oo..........XX..",
"                oo..........XX..",
"                oo....XXXXXXXX..",
"                oo....XXXXXXXX..",
"                oooo........XX..",
"                oooo........XX..",
"                  oooooooooo....",
"                  oooooooooo....",
"                  oooooooooooooo",
"                  oooooooooooooo",
"                    oooo  oooooo",
"                    oooo  oooooo",
"                                ",
"                                ",
"                                ",
"                                ",
"....                            ",
"....                            ",
"..XX........                    ",
"..XX........                    ",
"..XXXX..XX....                  ",
"..XXXX..XX....                  ",
"..XXXX........oo                ",
"..XXXX........oo                ",
"XXXXXXXX......oo                ",
"XXXXXXXX......oo                ",
"XX..XXXXXX..oooo                ",
"XX..XXXXXX..oooo                "
};
