/* XPM */
static char *tile5541694789393[] = {
/* columns rows colors chars-per-pixel */
"32 32 3 1 ",
"  c white",
". c #F3E9F0",
"X c #B0DCE3",
/* pixels */
"    ..XXXXXXXXXXXXXXXXXX....    ",
"    ..XXXXXXXXXXXXXXXXXX....    ",
"    ....XXXXXXXXXXXXXX....      ",
"    ....XXXXXXXXXXXXXX....      ",
"      ....XXXXXXXXXX....    ....",
"      ....XXXXXXXXXX....    ....",
"      ....XXXXXXXXXX....  ....XX",
"      ....XXXXXXXXXX....  ....XX",
"      ....XXXXXXXXXX........XXXX",
"      ....XXXXXXXXXX........XXXX",
"    ....XXXXXXXXXXXX..XXXXXXXXXX",
"    ....XXXXXXXXXXXX..XXXXXXXXXX",
"  ....XXXXXXXXXXXXXXXXXXXXXXXXXX",
"  ....XXXXXXXXXXXXXXXXXXXXXXXXXX",
"    ....XXXXXXXXXXXXXXXXXXXXXXXX",
"    ....XXXXXXXXXXXXXXXXXXXXXXXX",
"      ....XXXXXXXXXXXXXXXXXXXXXX",
"      ....XXXXXXXXXXXXXXXXXXXXXX",
"        ....XXXXXXXXXXXXXXXXXXXX",
"        ....XXXXXXXXXXXXXXXXXXXX",
"        ....XXXXXXXXXX......XXXX",
"        ....XXXXXXXXXX......XXXX",
"        ....XXXXXXXXXX........XX",
"        ....XXXXXXXXXX........XX",
"        ....XXXXXXXXXX....  ....",
"        ....XXXXXXXXXX....  ....",
"        ....XXXXXXXXXX....    ..",
"        ....XXXXXXXXXX....    ..",
"      ....XXXXXXXXXXXXXX....    ",
"      ....XXXXXXXXXXXXXX....    ",
"    ....XXXXXXXXXXXXXXXXXX..    ",
"    ....XXXXXXXXXXXXXXXXXX..    "
};
