/* XPM */
static char *tile5671694789393[] = {
/* columns rows colors chars-per-pixel */
"32 32 3 1 ",
"  c white",
". c #F3E9F0",
"X c #FA8B58",
/* pixels */
"    ..XXXXXXXXXXXXXXXXXXXXXXXXXX",
"    ..XXXXXXXXXXXXXXXXXXXXXXXXXX",
"    ....XXXXXXXXXXXXXXXXXXXXXXXX",
"    ....XXXXXXXXXXXXXXXXXXXXXXXX",
"..    ....XXXXXXXXXXXXXXXXXXXXXX",
"..    ....XXXXXXXXXXXXXXXXXXXXXX",
"....    ..XXXXXXXXXXXXXXXXXXXXXX",
"....    ..XXXXXXXXXXXXXXXXXXXXXX",
"XX........XXXXXXXXXXXXXXXXXXXXXX",
"XX........XXXXXXXXXXXXXXXXXXXXXX",
"XXXX........XXXXXXXXXXXXXXXXXXXX",
"XXXX........XXXXXXXXXXXXXXXXXXXX",
"XXXXXXXXXXXXXXXXXXXXXXXXXXXXXXXX",
"XXXXXXXXXXXXXXXXXXXXXXXXXXXXXXXX",
"XXXXXXXXXXXXXXXXXXXXXXXXXXXXXXXX",
"XXXXXXXXXXXXXXXXXXXXXXXXXXXXXXXX",
"XXXXXXXXXXXXXXXXXXXXXXXXXXXXXXXX",
"XXXXXXXXXXXXXXXXXXXXXXXXXXXXXXXX",
"XXXXXXXXXXXXXXXXXXXXXXXXXXXXXXXX",
"XXXXXXXXXXXXXXXXXXXXXXXXXXXXXXXX",
"XXXXXXXXXXXXXXXXXXXXXXXXXXXXXXXX",
"XXXXXXXXXXXXXXXXXXXXXXXXXXXXXXXX",
"XXXX........XXXXXXXXXXXXXXXXXXXX",
"XXXX........XXXXXXXXXXXXXXXXXXXX",
"XX..........XXXXXXXXXXXXXXXXXXXX",
"XX..........XXXXXXXXXXXXXXXXXXXX",
"....    ....XXXXXXXXXXXXXXXXXXXX",
"....    ....XXXXXXXXXXXXXXXXXXXX",
"      ....XXXXXXXXXXXXXXXXXXXXXX",
"      ....XXXXXXXXXXXXXXXXXXXXXX",
"    ....XXXXXXXXXXXXXXXXXXXXXXXX",
"    ....XXXXXXXXXXXXXXXXXXXXXXXX"
};
