/* XPM */
static char *tile3711694789390[] = {
/* columns rows colors chars-per-pixel */
"32 32 5 1 ",
"  c #B69280",
". c #8F7A73",
"X c #846757",
"o c #937560",
"O c white",
/* pixels */
"    ..XXXXXXXXXXXXXXXXXXXX..    ",
"    ..XXXXXXXXXXXXXXXXXXXX..    ",
"  ..XXXXXXXXooooooooooXXXXXX..  ",
"  ..XXXXXXXXooooooooooXXXXXX..  ",
"..XXXXXXooooooooXXXXooooooooXX..",
"..XXXXXXooooooooXXXXooooooooXX..",
"XXXXXXooooooooooooooooooooooooXX",
"XXXXXXooooooooooooooooooooooooXX",
"ooooooooooooooooooooXXXXoooooooo",
"ooooooooooooooooooooXXXXoooooooo",
"oooooooooooooooooooooooooooooooo",
"oooooooooooooooooooooooooooooooo",
"ooXXXXXXXXXXXXoooooooooooooooooo",
"ooXXXXXXXXXXXXoooooooooooooooooo",
"XXXXXXXXXXXXXXXXXXXXooooooooXXXX",
"XXXXXXXXXXXXXXXXXXXXooooooooXXXX",
"ooooooooooooooXXXXXXXXXXXXXXXXXX",
"ooooooooooooooXXXXXXXXXXXXXXXXXX",
"oooooooooooooooooooooooooooooooo",
"oooooooooooooooooooooooooooooooo",
"ooooooooooooooooooooooXXXXXXoooo",
"ooooooooooooooooooooooXXXXXXoooo",
"ooooooXXXXXXoooooooooooooooooooo",
"ooooooXXXXXXoooooooooooooooooooo",
"ooXXXXXXXXXXXXXXooXXooooooXXXXoo",
"ooXXXXXXXXXXXXXXooXXooooooXXXXoo",
"XXXXXXoooooooooooooooooooooooooo",
"XXXXXXoooooooooooooooooooooooooo",
"oooooooooooooooooooooooooooooooo",
"oooooooooooooooooooooooooooooooo",
"ooooooooooooooXXXXXXXXXXoooooooo",
"ooooooooooooooXXXXXXXXXXoooooooo"
};
