/* XPM */
static char *tile0631694789387[] = {
/* columns rows colors chars-per-pixel */
"32 32 5 1 ",
"  c #FFC7AB",
". c #F99096",
"X c #FFB77C",
"o c #FFC792",
"O c white",
/* pixels */
"    ..XXooooooooooooooooXX..    ",
"    ..XXooooooooooooooooXX..    ",
"  ..XXXXooooooooooooooooXXXX..  ",
"  ..XXXXooooooooooooooooXXXX..  ",
"..XXXXXXooooooooooooooooXXXXXX..",
"..XXXXXXooooooooooooooooXXXXXX..",
"XXXXXXooooooooooooooooooooXXXXXX",
"XXXXXXooooooooooooooooooooXXXXXX",
"XXXXooooooooooooooooooooooooXXXX",
"XXXXooooooooooooooooooooooooXXXX",
"XXoooooooooooooooooooooooooooooo",
"XXoooooooooooooooooooooooooooooo",
"oooooooooooooooooooooooooooooooo",
"oooooooooooooooooooooooooooooooo",
"oooooooooooooooooooooooooooooooo",
"oooooooooooooooooooooooooooooooo",
"oooooooooooooooooooooooooooooooo",
"oooooooooooooooooooooooooooooooo",
"oooooooooooooooooooooooooooooooo",
"oooooooooooooooooooooooooooooooo",
"oooooooooooooooooooooooooooooooo",
"oooooooooooooooooooooooooooooooo",
"oooooooooooooooooooooooooooooooo",
"oooooooooooooooooooooooooooooooo",
"oooooooooooooooooooooooooooooooo",
"oooooooooooooooooooooooooooooooo",
"oooooooooooooooooooooooooooooooo",
"oooooooooooooooooooooooooooooooo",
"oooooooooooooooooooooooooooooooo",
"oooooooooooooooooooooooooooooooo",
"oooooooooooooooooooooooooooooooo",
"oooooooooooooooooooooooooooooooo"
};
