/* XPM */
static char *tile0861694789387[] = {
/* columns rows colors chars-per-pixel */
"32 32 5 1 ",
"  c #FFC7AB",
". c #F99096",
"X c #FFB77C",
"o c #FFC792",
"O c white",
/* pixels */
"    ..XXoooooooooooooooooooooooo",
"    ..XXoooooooooooooooooooooooo",
"  ..XXXXoooooooooooooooooooooooo",
"  ..XXXXoooooooooooooooooooooooo",
"..XXXXXXoooooooooooooooooooooooo",
"..XXXXXXoooooooooooooooooooooooo",
"XXXXXXoooooooooooooooooooooooooo",
"XXXXXXoooooooooooooooooooooooooo",
"XXXXoooooooooooooooooooooooooooo",
"XXXXoooooooooooooooooooooooooooo",
"oooooooooooooooooooooooooooooooo",
"oooooooooooooooooooooooooooooooo",
"oooooooooooooooooooooooooooooooo",
"oooooooooooooooooooooooooooooooo",
"oooooooooooooooooooooooooooooooo",
"oooooooooooooooooooooooooooooooo",
"oooooooooooooooooooooooooooooooo",
"oooooooooooooooooooooooooooooooo",
"oooooooooooooooooooooooooooooooo",
"oooooooooooooooooooooooooooooooo",
"oooooooooooooooooooooooooooooooo",
"oooooooooooooooooooooooooooooooo",
"oooooooooooooooooooooooooooooooo",
"oooooooooooooooooooooooooooooooo",
"oooooooooooooooooooooooooooooooo",
"oooooooooooooooooooooooooooooooo",
"..oooooooooooooooooooooooooooo..",
"..oooooooooooooooooooooooooooo..",
"  ..oooooooooooooooooooooooo..  ",
"  ..oooooooooooooooooooooooo..  ",
"    ..oooooooooooooooooooo..    ",
"    ..oooooooooooooooooooo..    "
};
