/* XPM */
static char *tile0671694789387[] = {
/* columns rows colors chars-per-pixel */
"32 32 5 1 ",
"  c #FFA767",
". c #FA8B58",
"X c #FFB77C",
"o c #FFC792",
"O c white",
/* pixels */
"      ..      ..    ....      ..",
"      ..      ..    ....      ..",
"    ..      ......  ..      ..  ",
"    ..      ......  ..      ..  ",
"......    ....XXXX....    ......",
"......    ....XXXX....    ......",
"XXXX..  ....XXXXXXXXXX....XXXXXX",
"XXXX..  ....XXXXXXXXXX....XXXXXX",
"XXXXXX..XXXXXXXXXXXXXXXXXXXXXXXX",
"XXXXXX..XXXXXXXXXXXXXXXXXXXXXXXX",
"ooXXXXXXXXXXXXooooooXXXXXXXXoooo",
"ooXXXXXXXXXXXXooooooXXXXXXXXoooo",
"ooooXXXXXXoooooooooooooooooooooo",
"ooooXXXXXXoooooooooooooooooooooo",
"oooooooooooooooooooooooooooooooo",
"oooooooooooooooooooooooooooooooo",
"oooooooooooooooooooooooooooooooo",
"oooooooooooooooooooooooooooooooo",
"oooooooooooooooooooooooooooooooo",
"oooooooooooooooooooooooooooooooo",
"oooooooooooooooooooooooooooooooo",
"oooooooooooooooooooooooooooooooo",
"oooooooooooooooooooooooooooooooo",
"oooooooooooooooooooooooooooooooo",
"oooo..oooooooooo..oooooooooooooo",
"oooo..oooooooooo..oooooooooooooo",
"oo..  ......oo..  ......oooo....",
"oo..  ......oo..  ......oooo....",
"....    ..  ....    ........    ",
"....    ..  ....    ........    ",
"  ..    ..    ..      ....      ",
"  ..    ..    ..      ....      "
};
