/* XPM */
static char *tile2031694789388[] = {
/* columns rows colors chars-per-pixel */
"32 32 5 1 ",
"  c #DC8163",
". c #C4755D",
"X c #A99E40",
"o c #ABBA4F",
"O c white",
/* pixels */
"        ............XXooooooXXoo",
"        ............XXooooooXXoo",
"............      XXXXXXoooooooo",
"............      XXXXXXoooooooo",
"........        ..XXXXXXXXXXooXX",
"........        ..XXXXXXXXXXooXX",
"                  XXXXooooooooXX",
"                  XXXXooooooooXX",
"                    XXXXXXXXooXX",
"                    XXXXXXXXooXX",
"                    XX      XXXX",
"                    XX      XXXX",
"  ............                  ",
"  ............                  ",
"....................        ....",
"....................        ....",
"              ..................",
"              ..................",
"                                ",
"                                ",
"                      ......    ",
"                      ......    ",
"      ......                    ",
"      ......                    ",
"  ..............  ..      ....  ",
"  ..............  ..      ....  ",
"......                          ",
"......                          ",
"                                ",
"                                ",
"              ..........        ",
"              ..........        "
};
