/* XPM */
static char *tile3011694789389[] = {
/* columns rows colors chars-per-pixel */
"32 32 5 1 ",
"  c #ABBA4F",
". c #A99E40",
"X c #4E8653",
"o c #6CA246",
"O c white",
/* pixels */
"                                ",
"                                ",
"      ....                      ",
"      ....                      ",
"    ....                        ",
"    ....                        ",
"    ..          ..              ",
"    ..          ..              ",
"  ....      ....      ......    ",
"  ....      ....      ......    ",
"..XX..    ..        ....    ..  ",
"..XX..    ..        ....    ..  ",
"XXXXXX....        ....          ",
"XXXXXX....        ....          ",
"XXooXXXX..      ..........      ",
"XXooXXXX..      ..........      ",
"ooooXXXX..    ....        ..    ",
"ooooXXXX..    ....        ..    ",
"ooooXXXX..  ....                ",
"ooooXXXX..  ....                ",
"ooooooXXXX....                  ",
"ooooooXXXX....                  ",
"ooooooooXXXX..    ....          ",
"ooooooooXXXX..    ....          ",
"ooooooooXXXX..  ....            ",
"ooooooooXXXX..  ....            ",
"ooooooooooXXXX....              ",
"ooooooooooXXXX....              ",
"ooooooooooooXXXX..........      ",
"ooooooooooooXXXX..........      ",
"ooooooooooooooXXXXXX....        ",
"ooooooooooooooXXXXXX....        "
};
