/* XPM */
static char *tile0681694787632[] = {
/* columns rows colors chars-per-pixel */
"32 32 5 1 ",
"  c #6CA246",
". c #192121",
"X c #9C5144",
"o c #F06643",
"O c #FFA767",
/* pixels */
"                  ..OOooooOOooOO",
"                  ..OOooooOOooOO",
"          ..........OOooooOOooOO",
"          ..........OOooooOOooOO",
"        ..OOOOOOOOXXOOooooOOooOO",
"        ..OOOOOOOOXXOOooooOOooOO",
"      ..OOOOooooooXXOOOOoooooooo",
"      ..OOOOooooooXXOOOOoooooooo",
"      ..OOooooOOooXXooOOOOOOOOOO",
"      ..OOooooOOooXXooOOOOOOOOOO",
"      ..OOooooOOooXXoooooooooooo",
"      ..OOooooOOooXXoooooooooooo",
"      ..OOooooOOooXXooooXXXXXXXX",
"      ..OOooooOOooXXooooXXXXXXXX",
"      ..OOooooOOooXXooXXXXooXXoo",
"      ..OOooooOOooXXooXXXXooXXoo",
"      ..OOOOooooooXXooooXXXXXXXX",
"      ..OOOOooooooXXooooXXXXXXXX",
"      ..ooOOOOOOOOXXXXoooooooooo",
"      ..ooOOOOOOOOXXXXoooooooooo",
"      ..ooooooooooooXXXXXXXXXXXX",
"      ..ooooooooooooXXXXXXXXXXXX",
"      ..ooooXXXXXXXXXXXXXXXXoooo",
"      ..ooooXXXXXXXXXXXXXXXXoooo",
"      ..ooXXXXooXXooXXooXXooXXoo",
"      ..ooXXXXooXXooXXooXXooXXoo",
"      ..ooooXXXXXXXXXXXXXXXXoooo",
"      ..ooooXXXXXXXXXXXXXXXXoooo",
"      XXXXooooooooooooooooooooXX",
"      XXXXooooooooooooooooooooXX",
"        XXXXXXXXXXXXXXXXXXXXXXXX",
"        XXXXXXXXXXXXXXXXXXXXXXXX"
};
