/* XPM */
static char *tile0461694787630[] = {
/* columns rows colors chars-per-pixel */
"32 32 5 1 ",
"  c #6CA246",
". c #192121",
"X c #69B8CB",
"o c #D6B081",
"O c white",
/* pixels */
"                                ",
"                                ",
"                                ",
"                                ",
"                                ",
"                                ",
"                                ",
"                                ",
"                                ",
"                                ",
"                                ",
"                                ",
"                                ",
"                                ",
"                                ",
"                                ",
"                                ",
"                                ",
"  ..........    ..........      ",
"  ..........    ..........      ",
"  ..OO..OO..    ..OO..OO..      ",
"  ..OO..OO..    ..OO..OO..      ",
"  ..OOOOOO..    ..OOOOOO..      ",
"  ..OOOOOO..    ..OOOOOO..      ",
"....OOOOOO........OOOOOO........",
"....OOOOOO........OOOOOO........",
"OOOOOOOOOOooOOOOOOOOOOOOooOOOOOO",
"OOOOOOOOOOooOOOOOOOOOOOOooOOOOOO",
"ooooXXXXXXooooooooXXXXXXoooooooo",
"ooooXXXXXXooooooooXXXXXXoooooooo",
"....XXXXXX........XXXXXX........",
"....XXXXXX........XXXXXX........"
};
