/* XPM */
static char *tile2001694787650[] = {
/* columns rows colors chars-per-pixel */
"32 32 6 1 ",
"  c #6CA246",
". c #192121",
"X c #563831",
"o c #9C5144",
"O c #F06643",
"+ c #FA8B58",
/* pixels */
"                  ............  ",
"                  ............  ",
"                  ..++++++++..  ",
"                  ..++++++++..  ",
"          ..........++++++++..  ",
"          ..........++++++++..  ",
"          ..++++++OO++++++++..  ",
"          ..++++++OO++++++++..  ",
"  ..........++++++OO++++++++..  ",
"  ..........++++++OO++++++++..  ",
"  ..++++++OO++++++OO++++++++..  ",
"  ..++++++OO++++++OO++++++++..  ",
"  ..++++++OO++++++OO++++++++..  ",
"  ..++++++OO++++++OO++++++++..  ",
"  ..++++++OO++++++OO++++++++..  ",
"  ..++++++OO++++++OO++++++++..  ",
"  ..++++++OO++++++OO++++++++..  ",
"  ..++++++OO++++++OO++++++++..  ",
"  ..++++++OO++++++OOOOOOOOOO..  ",
"  ..++++++OO++++++OOOOOOOOOO..  ",
"  ..++++++OO++++++OOoooooooo..  ",
"  ..++++++OO++++++OOoooooooo..  ",
"  ..++++++OOOOOOOOOOoooooooo..  ",
"  ..++++++OOOOOOOOOOoooooooo..  ",
"  ..++++++OOoooooooooooooooo..  ",
"  ..++++++OOoooooooooooooooo..  ",
"  ..OOOOOOOOoooooooooooooooo..  ",
"  ..OOOOOOOOoooooooooooooooo..  ",
"    XXXXXXXXXXXXXXXXXXXXXXXX    ",
"    XXXXXXXXXXXXXXXXXXXXXXXX    ",
"                                ",
"                                "
};
