/* XPM */
static char *tile0781694787634[] = {
/* columns rows colors chars-per-pixel */
"32 32 4 1 ",
"  c #6CA246",
". c #E08653",
"X c #F8C079",
"o c #FFDE94",
/* pixels */
"....  ......      ......  ......",
"....  ......      ......  ......",
"XX......XX..  ......XX......XXXX",
"XX......XX..  ......XX......XXXX",
"XX..XX..XX......XX..XX..XX..XXXX",
"XX..XX..XX......XX..XX..XX..XXXX",
"XX..XXXXXX..XX..XXXXXX..XXXXXXXX",
"XX..XXXXXX..XX..XXXXXX..XXXXXXXX",
"XXXXXXXXXXXXXXXXXXXXXXXXXXXXXXXX",
"XXXXXXXXXXXXXXXXXXXXXXXXXXXXXXXX",
"XXXXXXXXXXXXXXXXXXXXXXXXXXXXXXXX",
"XXXXXXXXXXXXXXXXXXXXXXXXXXXXXXXX",
"XXXXXXXXXXXXXXXXXXXXXXXXXXXXXXXX",
"XXXXXXXXXXXXXXXXXXXXXXXXXXXXXXXX",
"XXXXXXXXooooXXXXXXXXXXXXXXXXXXXX",
"XXXXXXXXooooXXXXXXXXXXXXXXXXXXXX",
"XXooooXXXXXXXXXXXXXXXXXXXXXXXXXX",
"XXooooXXXXXXXXXXXXXXXXXXXXXXXXXX",
"XXXXXXXXXXooooXXXXXXXXXXXXXXXXXX",
"XXXXXXXXXXooooXXXXXXXXXXXXXXXXXX",
"ooXXooooXXooXXXXXXXXXXXXXXXXXXXX",
"ooXXooooXXooXXXXXXXXXXXXXXXXXXXX",
"XXXXXXXXXXXXXXXXXXXXXXXXXXXXXXXX",
"XXXXXXXXXXXXXXXXXXXXXXXXXXXXXXXX",
"XXooXXooooXXXXXXXXXXXXXXXXXXXXXX",
"XXooXXooooXXXXXXXXXXXXXXXXXXXXXX",
"XXXXXXXXXXXXXXXXXXXXXXXXXXXXXXXX",
"XXXXXXXXXXXXXXXXXXXXXXXXXXXXXXXX",
"XXXXXXXXXXXXXXXXXXXXXXXXXXXXXXXX",
"XXXXXXXXXXXXXXXXXXXXXXXXXXXXXXXX",
"XXXXXXXXXXXXXXXXXXXXXXXXXXXXXXXX",
"XXXXXXXXXXXXXXXXXXXXXXXXXXXXXXXX"
};
