/* XPM */
static char *tile1141694787638[] = {
/* columns rows colors chars-per-pixel */
"32 32 4 1 ",
"  c #6CA246",
". c #192121",
"X c #FFA767",
"o c #FFC7AB",
/* pixels */
"                                ",
"                                ",
"                                ",
"                                ",
"                                ",
"                                ",
"                                ",
"                                ",
"                                ",
"                                ",
"                                ",
"                                ",
"                                ",
"                                ",
"                                ",
"                                ",
"................................",
"................................",
"..XXXXXXXXXXXXXXXXXXXXXXXXXXXX..",
"..XXXXXXXXXXXXXXXXXXXXXXXXXXXX..",
"..XXXXXXXXXXXXXXXXXXXXXXXXXXXX..",
"..XXXXXXXXXXXXXXXXXXXXXXXXXXXX..",
"..XXXXXXXXXXXXXXXXXXXXXXXXXXXX..",
"..XXXXXXXXXXXXXXXXXXXXXXXXXXXX..",
"..XXXXXXXXXXXXXXXXXXXXXXXXXXXX..",
"..XXXXXXXXXXXXXXXXXXXXXXXXXXXX..",
"..XXXXXXXXXXXXXXXXXXXXXXXXXXXX..",
"..XXXXXXXXXXXXXXXXXXXXXXXXXXXX..",
"..ooXXXXXXXXXXXXXXXXXXXXXXXXXX..",
"..ooXXXXXXXXXXXXXXXXXXXXXXXXXX..",
"..ooXXXXXXXXXXXXXXXXXXXXXXXXXX..",
"..ooXXXXXXXXXXXXXXXXXXXXXXXXXX.."
};
