/* XPM */
static char *tile1171694787639[] = {
/* columns rows colors chars-per-pixel */
"32 32 6 1 ",
"  c #6CA246",
". c #192121",
"X c #573E52",
"o c #CE926F",
"O c #D6B081",
"+ c #FFE0CB",
/* pixels */
"                                ",
"                                ",
"                                ",
"                                ",
"                                ",
"                                ",
"                                ",
"                                ",
"                                ",
"                                ",
"                                ",
"                                ",
"                                ",
"                                ",
"    ..XXXXXXXXXXXXXXXXXXXX..    ",
"    ..XXXXXXXXXXXXXXXXXXXX..    ",
"  ..++OOOOOOOOOOOOOOOOOOOOOO..  ",
"  ..++OOOOOOOOOOOOOOOOOOOOOO..  ",
"..++++OOOOOOOOOOOOOOOOOOOOOOOO..",
"..++++OOOOOOOOOOOOOOOOOOOOOOOO..",
"..++++OOOOOOOOOOOOOOOOOOOOOOOO..",
"..++++OOOOOOOOOOOOOOOOOOOOOOOO..",
"..++++OOOOOOOOOOOOOOOOOOOOOOOO..",
"..++++OOOOOOOOOOOOOOOOOOOOOOOO..",
"..++++ooooooooooooooooooooOOOO..",
"..++++ooooooooooooooooooooOOOO..",
"..++ooooooooooooooooooooooooOO..",
"..++ooooooooooooooooooooooooOO..",
"..ooooooooXXXXXXXXXXXXoooooooo..",
"..ooooooooXXXXXXXXXXXXoooooooo..",
"....ooooXX............XXoooo....",
"....ooooXX............XXoooo...."
};
