/* XPM */
static char *tile1541694787643[] = {
/* columns rows colors chars-per-pixel */
"32 32 7 1 ",
"  c #6CA246",
". c #192121",
"X c #3E3944",
"o c #EE2B4E",
"O c #9C5144",
"+ c #FFC7AB",
"@ c white",
/* pixels */
"                                ",
"                                ",
"                                ",
"                                ",
"................                ",
"................                ",
"++oooooooo++@@..                ",
"++oooooooo++@@..                ",
"..OOOOOOOOXX....                ",
"..OOOOOOOOXX....                ",
"OOOOOOOOOO..                    ",
"OOOOOOOOOO..                    ",
"ooooOOOOOO..                    ",
"ooooOOOOOO..                    ",
"ooooOOoooo..                    ",
"ooooOOoooo..                    ",
"ooooOOoooo..                    ",
"ooooOOoooo..                    ",
"ooooOOoooo..                    ",
"ooooOOoooo..                    ",
"ooooOOoooo..                    ",
"ooooOOoooo..                    ",
"....OOoooo..                    ",
"....OOoooo..                    ",
"    ........                    ",
"    ........                    ",
"                                ",
"                                ",
"                                ",
"                                ",
"                                ",
"                                "
};
