/* XPM */
static char *tile0491694787630[] = {
/* columns rows colors chars-per-pixel */
"32 32 4 1 ",
"  c #6CA246",
". c #192121",
"X c #9C5144",
"o c #F06643",
/* pixels */
"                                ",
"                                ",
"                                ",
"                                ",
"                                ",
"                                ",
"                                ",
"                                ",
"..                              ",
"..                              ",
"oo....                          ",
"oo....                          ",
"XXoooo....                      ",
"XXoooo....                      ",
"XXXXXXoooo....                  ",
"XXXXXXoooo....                  ",
"XXXXXXXXXXoooo....              ",
"XXXXXXXXXXoooo....              ",
"XXXXXXXXXXXXXXoooo....          ",
"XXXXXXXXXXXXXXoooo....          ",
"XXXXXXXXXXXXXXXXXXoooo..        ",
"XXXXXXXXXXXXXXXXXXoooo..        ",
"ooXXXXXXXXXXXXXXXXXXXX..        ",
"ooXXXXXXXXXXXXXXXXXXXX..        ",
"ooXXooooXXXXXXXXXXXX..          ",
"ooXXooooXXXXXXXXXXXX..          ",
"ooXXooooXXooXXXXXX..            ",
"ooXXooooXXooXXXXXX..            ",
"ooXXooooXXooooXXXX..            ",
"ooXXooooXXooooXXXX..            ",
"ooXXooooXXooooXXoo..            ",
"ooXXooooXXooooXXoo..            "
};
