/* XPM */
static char *tile1491694787642[] = {
/* columns rows colors chars-per-pixel */
"32 32 6 1 ",
"  c #6CA246",
". c #192121",
"X c #9C5144",
"o c #F06643",
"O c #FFC7AB",
"+ c #FFE0CB",
/* pixels */
"                                ",
"                                ",
"                                ",
"                                ",
"                                ",
"                                ",
"                                ",
"                                ",
"                                ",
"                                ",
"                                ",
"                                ",
"                                ",
"                                ",
"          ......                ",
"          ......                ",
"      oo..++..++..oooooooo      ",
"      oo..++..++..oooooooo      ",
"    ..OO..++++++..OOooooOO..    ",
"    ..OO..++++++..OOooooOO..    ",
"    ..OO..++++++..OOooooOO..    ",
"    ..OO..++++++..OOooooOO..    ",
"    ..OOOOOOOOOOOOOOOOOOOO..    ",
"    ..OOOOOOOOOOOOOOOOOOOO..    ",
"    ..oooooooooooooooooooo..    ",
"    ..oooooooooooooooooooo..    ",
"    XX....................XX    ",
"    XX....................XX    ",
"      XXXXXXXXXXXXXXXXXXXX      ",
"      XXXXXXXXXXXXXXXXXXXX      ",
"                                ",
"                                "
};
