/* XPM */
static char *tile0001694789386[] = {
/* columns rows colors chars-per-pixel */
"32 32 5 1 ",
"  c #FFA767",
". c #FA8B58",
"X c #FFB77C",
"o c #FFC792",
"O c white",
/* pixels */
"                                ",
"                                ",
"          ..                    ",
"          ..                    ",
"        ..      ..              ",
"        ..      ..              ",
"        ..    ..            ..  ",
"        ..    ..            ..  ",
"        ....  ..            ....",
"        ....  ..            ....",
"          ......      ..    ....",
"          ......      ..    ....",
"            ....      ....  ..XX",
"            ....      ....  ..XX",
"      ..      ....      ......XX",
"      ..      ....      ......XX",
"        ..      ....      ..XXXX",
"        ..      ....      ..XXXX",
"        ..        ........XXXXXX",
"        ..        ........XXXXXX",
"          ..        ..XXXXXXXXoo",
"          ..        ..XXXXXXXXoo",
"  ..        ........XXXXXXXXoooo",
"  ..        ........XXXXXXXXoooo",
"  ....      ..XXXXXXXXXXoooooooo",
"  ....      ..XXXXXXXXXXoooooooo",
"    ........XXXXXXXXXXoooooooooo",
"    ........XXXXXXXXXXoooooooooo",
"        ..XXXXXXoooooooooooooooo",
"        ..XXXXXXoooooooooooooooo",
"          ..XXoooooooooooooooooo",
"          ..XXoooooooooooooooooo"
};
