/* XPM */
static char *tile3091694789389[] = {
/* columns rows colors chars-per-pixel */
"32 32 3 1 ",
"  c #F3E9F0",
". c #D2C7C8",
"X c white",
/* pixels */
"        ..        ..            ",
"        ..        ..            ",
"..    ..            ..    ..    ",
"..    ..            ..    ..    ",
"    ..        ..    ..  ..    ..",
"    ..        ..    ..  ..    ..",
"    ..    ........  ......    ..",
"    ..    ........  ......    ..",
"  ....  ....................  ..",
"  ....  ....................  ..",
"............XXXXXXXXXXXXXXXX....",
"............XXXXXXXXXXXXXXXX....",
"XX......XXXXXXXXXXXXXXXXXXXXXXXX",
"XX......XXXXXXXXXXXXXXXXXXXXXXXX",
"XXXXXXXXXXXXXXXXXXXXXXXXXXXXXXXX",
"XXXXXXXXXXXXXXXXXXXXXXXXXXXXXXXX",
"XXXXXXXXXXXXXXXXXXXXXXXXXXXXXXXX",
"XXXXXXXXXXXXXXXXXXXXXXXXXXXXXXXX",
"XXXXXXXXXXXXXXXXXXXXXXXXXXXXXXXX",
"XXXXXXXXXXXXXXXXXXXXXXXXXXXXXXXX",
"XXXXXXXXXXXXXXXXXXXXXXXXXXXXXXXX",
"XXXXXXXXXXXXXXXXXXXXXXXXXXXXXXXX",
"XXXXXXXXXXXXXXXXXXXXXXXXXXXXXXXX",
"XXXXXXXXXXXXXXXXXXXXXXXXXXXXXXXX",
"XXXXXXXXXXXXXXXXXXXXXXXXXXXXXXXX",
"XXXXXXXXXXXXXXXXXXXXXXXXXXXXXXXX",
"XXXXXXXXXXXXXXXXXXXXXXXXXXXXXXXX",
"XXXXXXXXXXXXXXXXXXXXXXXXXXXXXXXX",
"XXXXXXXXXXXXXXXXXXXXXXXXXXXXXXXX",
"XXXXXXXXXXXXXXXXXXXXXXXXXXXXXXXX",
"XXXXXXXXXXXXXXXXXXXXXXXXXXXXXXXX",
"XXXXXXXXXXXXXXXXXXXXXXXXXXXXXXXX"
};
