/* XPM */
static char *tile5101694789392[] = {
/* columns rows colors chars-per-pixel */
"32 32 3 1 ",
"  c white",
". c #F3E9F0",
"X c #B0DCE3",
/* pixels */
"    ..XXXXXXXXXXXXXXXXXX....    ",
"    ..XXXXXXXXXXXXXXXXXX....    ",
"    ....XXXXXXXXXXXXXX....      ",
"    ....XXXXXXXXXXXXXX....      ",
"      ....XXXXXXXXXX....    ....",
"      ....XXXXXXXXXX....    ....",
"      ....XXXXXXXXXX....  ....XX",
"      ....XXXXXXXXXX....  ....XX",
"      ....XXXXXXXXXX........XXXX",
"      ....XXXXXXXXXX........XXXX",
"    ....XXXXXXXXXXXX..XXXXXXXXXX",
"    ....XXXXXXXXXXXX..XXXXXXXXXX",
"  ....XXXXXXXXXXXXXXXXXXXXXXXXXX",
"  ....XXXXXXXXXXXXXXXXXXXXXXXXXX",
"    ....XXXXXXXXXXXXXXXXXXXXXXXX",
"    ....XXXXXXXXXXXXXXXXXXXXXXXX",
"      ....XXXXXXXXXXXXXXXXXXXXXX",
"      ....XXXXXXXXXXXXXXXXXXXXXX",
"        ....XXXXXXXXXXXXXXXXXXXX",
"        ....XXXXXXXXXXXXXXXXXXXX",
"        ....XXXXXXXXXXXXXXXXXXXX",
"        ....XXXXXXXXXXXXXXXXXXXX",
"        ....XXXXXXXXXXXXXXXXXXXX",
"        ....XXXXXXXXXXXXXXXXXXXX",
"        ....XXXXXXXXXXXXXXXXXXXX",
"        ....XXXXXXXXXXXXXXXXXXXX",
"        ....XXXXXXXXXXXXXXXXXXXX",
"        ....XXXXXXXXXXXXXXXXXXXX",
"      ....XXXXXXXXXXXXXXXXXXXXXX",
"      ....XXXXXXXXXXXXXXXXXXXXXX",
"    ....XXXXXXXXXXXXXXXXXXXXXXXX",
"    ....XXXXXXXXXXXXXXXXXXXXXXXX"
};
