/* XPM */
static char *tile1741694789388[] = {
/* columns rows colors chars-per-pixel */
"32 32 5 1 ",
"  c #A87253",
". c #A1624B",
"X c #4E8653",
"o c #6CA246",
"O c white",
/* pixels */
"        ............XXooooooXXoo",
"        ............XXooooooXXoo",
"............      XXXXXXoooooooo",
"............      XXXXXXoooooooo",
"........        ..XXXXXXXXXXooXX",
"........        ..XXXXXXXXXXooXX",
"                  XXXXooooooooXX",
"                  XXXXooooooooXX",
"                    XXXXXXXXooXX",
"                    XXXXXXXXooXX",
"                    XX      XXXX",
"                    XX      XXXX",
"  ............                  ",
"  ............                  ",
"....................        ....",
"....................        ....",
"              ..................",
"              ..................",
"                                ",
"                                ",
"XXXX                  ......    ",
"XXXX                  ......    ",
"XXooXXXXXXXX                    ",
"XXooXXXXXXXX                    ",
"XXooooXXooXXXX..  ..      ....  ",
"XXooooXXooXXXX..  ..      ....  ",
"XXooooXXXXXXXX                  ",
"XXooooXXXXXXXX                  ",
"ooooooooXXXXXX                  ",
"ooooooooXXXXXX                  ",
"ooXXooooooXX  ..........        ",
"ooXXooooooXX  ..........        "
};
