/* XPM */
static char *tile1961694789388[] = {
/* columns rows colors chars-per-pixel */
"32 32 5 1 ",
"  c #6CA246",
". c #4E8653",
"X c #A1624B",
"o c #A87253",
"O c white",
/* pixels */
"    ........XXXXXXXXXXXXXXXXXXoo",
"    ........XXXXXXXXXXXXXXXXXXoo",
"..        ..ooooooooooXXXXXXXXXX",
"..        ..ooooooooooXXXXXXXXXX",
"    ..  ..ooooooXXXXoooooooooooo",
"    ..  ..ooooooXXXXoooooooooooo",
"    ..  ..oooooooooooooooooooooo",
"    ..  ..oooooooooooooooooooooo",
"  ....  ..ooooooooooXXXXoooooooo",
"  ....  ..ooooooooooXXXXoooooooo",
"............oooooooooooooooooooo",
"............oooooooooooooooooooo",
"oo......XXXXXXoooooooooooooooooo",
"oo......XXXXXXoooooooooooooooooo",
"XXXXXXXXXXXXXXXXXXXXooooooooXXXX",
"XXXXXXXXXXXXXXXXXXXXooooooooXXXX",
"ooooooooooooooXXXXXXXXXXXXXXXXXX",
"ooooooooooooooXXXXXXXXXXXXXXXXXX",
"oooooooooooooooooooooooo......oo",
"oooooooooooooooooooooooo......oo",
"oooooooooooooooooooooo..........",
"oooooooooooooooooooooo..........",
"ooooooXXXXXXoooooooooo..  ....  ",
"ooooooXXXXXXoooooooooo..  ....  ",
"ooXXXXXXXXXXXXXXooXXoo......    ",
"ooXXXXXXXXXXXXXXooXXoo......    ",
"XXXXXXoooooooooooooooo..        ",
"XXXXXXoooooooooooooooo..        ",
"oooooooooooooooooooo..        ..",
"oooooooooooooooooooo..        ..",
"ooooooooooooooXXXXXX........    ",
"ooooooooooooooXXXXXX........    "
};
