/* XPM */
static char *tile4901694789392[] = {
/* columns rows colors chars-per-pixel */
"32 32 3 1 ",
"  c #B0DCE3",
". c #F3E9F0",
"X c white",
/* pixels */
"                                ",
"                                ",
"                                ",
"                                ",
"                                ",
"                                ",
"                                ",
"                                ",
"                                ",
"                                ",
"                                ",
"                                ",
"                                ",
"                                ",
"                                ",
"                                ",
"                                ",
"                                ",
"                                ",
"                                ",
"                                ",
"                                ",
"    ........                    ",
"    ........                    ",
"  ..........                    ",
"  ..........                    ",
"....XXXX....                    ",
"....XXXX....                    ",
"XXXXXX....                      ",
"XXXXXX....                      ",
"XXXX....                        ",
"XXXX....                        "
};
