/* XPM */
static char *tile2361694789389[] = {
/* columns rows colors chars-per-pixel */
"32 32 5 1 ",
"  c #A87253",
". c #A1624B",
"X c #4E8653",
"o c #6CA246",
"O c white",
/* pixels */
"        ............XXooooooXXoo",
"        ............XXooooooXXoo",
"............      ..XXXXoooooooo",
"............      ..XXXXoooooooo",
"........        ......XXXXXXoooo",
"........        ......XXXXXXoooo",
"                    ....XXXXXXXX",
"                    ....XXXXXXXX",
"                      ..........",
"                      ..........",
"                                ",
"                                ",
"  ............                  ",
"  ............                  ",
"....................        ....",
"....................        ....",
"              ..................",
"              ..................",
"                                ",
"                                ",
"XXXX                            ",
"XXXX                            ",
"XXooXXXXXXXXXXXX    XXXXXX      ",
"XXooXXXXXXXXXXXX    XXXXXX      ",
"XXooooXXXXXXooXXXXXXXXooooXXXXXX",
"XXooooXXXXXXooXXXXXXXXooooXXXXXX",
"XXooooXXooXXooooXXooooooooXXooXX",
"XXooooXXooXXooooXXooooooooXXooXX",
"ooooXXooooXXooooooooooooXXooooXX",
"ooooXXooooXXooooooooooooXXooooXX",
"ooooooooooooXXooooooooXXoooooooo",
"ooooooooooooXXooooooooXXoooooooo"
};
