/* XPM */
static char *tile0461694789387[] = {
/* columns rows colors chars-per-pixel */
"32 32 5 1 ",
"  c #FFC792",
". c #FFB77C",
"X c #FA8B58",
"o c #FFA767",
"O c white",
/* pixels */
"                  ..XXoooooooooo",
"                  ..XXoooooooooo",
"                  ....XXoooooooo",
"                  ....XXoooooooo",
"                  ..XXXXXXXXoooo",
"                  ..XXXXXXXXoooo",
"                  XXooooooXXXXoo",
"                  XXooooooXXXXoo",
"            XXXXXXXXooooooooXXoo",
"            XXXXXXXXooooooooXXoo",
"          XXooooooooXXoooooooooo",
"          XXooooooooXXoooooooooo",
"      XXXXXXXXooooooooXXoooooooo",
"      XXXXXXXXooooooooXXoooooooo",
"    XXooooooXXXXooooooXXoooooooo",
"    XXooooooXXXXooooooXXoooooooo",
"  XXXXXXooooooXXXXooooooXXoooooo",
"  XXXXXXooooooXXXXooooooXXoooooo",
"..XXooXXXXooooooXXXXoooooooooooo",
"..XXooXXXXooooooXXXXoooooooooooo",
"XXXXooooXXooooooooooooooooooXXoo",
"XXXXooooXXooooooooooooooooooXXoo",
"XXXXoooooooooooooooooooooooooooo",
"XXXXoooooooooooooooooooooooooooo",
"ooXXoooooooooooooooooooooooooooo",
"ooXXoooooooooooooooooooooooooooo",
"oooooooooooooooooooooooooooooooo",
"oooooooooooooooooooooooooooooooo",
"oooooooooooooooooooooooooooooooo",
"oooooooooooooooooooooooooooooooo",
"oooooooooooooooooooooooooooooooo",
"oooooooooooooooooooooooooooooooo"
};
