/* XPM */
static char *tile3371694789390[] = {
/* columns rows colors chars-per-pixel */
"32 32 3 1 ",
"  c white",
". c #D2C7C8",
"X c #F3E9F0",
/* pixels */
"                    ..XXXXXX..XX",
"                    ..XXXXXX..XX",
"                  ......XXXXXXXX",
"                  ......XXXXXXXX",
"                  ..........XXXX",
"                  ..........XXXX",
"                  ....XXXXXX..XX",
"                  ....XXXXXX..XX",
"                    ....XXXXXX..",
"                    ....XXXXXX..",
"                    ......XXXXXX",
"                    ......XXXXXX",
"                      ....XXXXXX",
"                      ....XXXXXX",
"                      ......XXXX",
"                      ......XXXX",
"                      ....XXXXXX",
"                      ....XXXXXX",
"                      ..XXXXXX..",
"                      ..XXXXXX..",
"                      ........XX",
"                      ........XX",
"                      ....XXXXXX",
"                      ....XXXXXX",
"                      ......XXXX",
"                      ......XXXX",
"..                    ..XXXX..XX",
"..                    ..XXXX..XX",
"XX..                ..XXXXXXXXXX",
"XX..                ..XXXXXXXXXX",
"XXXX..              ........XXXX",
"XXXX..              ........XXXX"
};
