/* XPM */
static char *tile2401694789389[] = {
/* columns rows colors chars-per-pixel */
"32 32 5 1 ",
"  c #6CA246",
". c #4E8653",
"X c #A1624B",
"o c #A87253",
"O c white",
/* pixels */
"    ..XXXXXXXXXXXXXXXXXXXXXXXXoo",
"    ..XXXXXXXXXXXXXXXXXXXXXXXXoo",
"  ..XXXXXXXXooooooooooXXXXXXXXXX",
"  ..XXXXXXXXooooooooooXXXXXXXXXX",
"..XXXXXXooooooooXXXXoooooooooooo",
"..XXXXXXooooooooXXXXoooooooooooo",
"XXXXXXoooooooooooooooooooooooooo",
"XXXXXXoooooooooooooooooooooooooo",
"ooooooooooooooooooooXXXXoooooooo",
"ooooooooooooooooooooXXXXoooooooo",
"oooooooooooooooooooooooooooooooo",
"oooooooooooooooooooooooooooooooo",
"ooXXXXXXXXXXXXoooooooooooooooooo",
"ooXXXXXXXXXXXXoooooooooooooooooo",
"XXXXXXXXXXXXXXXXXXXXooooooooXXXX",
"XXXXXXXXXXXXXXXXXXXXooooooooXXXX",
"ooooooooooooooXXXXXXXXXXXXXXXXXX",
"ooooooooooooooXXXXXXXXXXXXXXXXXX",
"oooooooooooooooooooooooooooooooo",
"oooooooooooooooooooooooooooooooo",
"ooooooooooooooooooooooooXXXXoooo",
"ooooooooooooooooooooooooXXXXoooo",
"ooooXXXXXXXXoooooooooooooooooooo",
"ooooXXXXXXXXoooooooooooooooooooo",
"XXXXXXXXXXXXXXXXooXXooooooXXXXXX",
"XXXXXXXXXXXXXXXXooXXooooooXXXXXX",
"..XXooooooooooooooooooooooooXX..",
"..XXooooooooooooooooooooooooXX..",
"  ..XXooooooooooooooooooooXX..  ",
"  ..XXooooooooooooooooooooXX..  ",
"    ..XXooooooXXXXXXXXXXXX..    ",
"    ..XXooooooXXXXXXXXXXXX..    "
};
