/* XPM */
static char *tile2301694789389[] = {
/* columns rows colors chars-per-pixel */
"32 32 5 1 ",
"  c #DC8163",
". c #C4755D",
"X c #A99E40",
"o c #ABBA4F",
"O c white",
/* pixels */
"        ..................XXoooo",
"        ..................XXoooo",
"............              ..XXoo",
"............              ..XXoo",
"........        ....        ..XX",
"........        ....        ..XX",
"                              ..",
"                              ..",
"                                ",
"                                ",
"                                ",
"                                ",
"  ............                  ",
"  ............                  ",
"....................        ....",
"....................        ....",
"              ..................",
"              ..................",
"                                ",
"                                ",
"                        ....    ",
"                        ....    ",
"    ........                    ",
"    ........                    ",
"................  ..      ......",
"................  ..      ......",
"XX..                        ..XX",
"XX..                        ..XX",
"ooXX..                    ..XXoo",
"ooXX..                    ..XXoo",
"ooooXX..      ............XXoooo",
"ooooXX..      ............XXoooo"
};
