/* XPM */
static char *tile2371694789389[] = {
/* columns rows colors chars-per-pixel */
"32 32 5 1 ",
"  c #6CA246",
". c #4E8653",
"X c #A1624B",
"o c #A87253",
"O c white",
/* pixels */
"  ..      ..XXXXXXXXXXXXXXXXXXoo",
"  ..      ..XXXXXXXXXXXXXXXXXXoo",
"        ....XXooooooooXXXXXXXXXX",
"        ....XXooooooooXXXXXXXXXX",
"    ......XXXXXXXXXXoooooooooooo",
"    ......XXXXXXXXXXoooooooooooo",
"........XXXXoooooooooooooooooooo",
"........XXXXoooooooooooooooooooo",
"XXXXXXXXXXooooooooooXXXXoooooooo",
"XXXXXXXXXXooooooooooXXXXoooooooo",
"oooooooooooooooooooooooooooooooo",
"oooooooooooooooooooooooooooooooo",
"ooooooooXXXXXXoooooooooooooooooo",
"ooooooooXXXXXXoooooooooooooooooo",
"XXXXXXXXXXXXXXXXXXXXooooooooXXXX",
"XXXXXXXXXXXXXXXXXXXXooooooooXXXX",
"ooooooooooooooXXXXXXXXXXXXXXXXXX",
"ooooooooooooooXXXXXXXXXXXXXXXXXX",
"oooooooooooooooooooooooo......oo",
"oooooooooooooooooooooooo......oo",
"oooooooooooooooooooo............",
"oooooooooooooooooooo............",
"oooooooooo..............  ....  ",
"oooooooooo..............  ....  ",
"............  ........    ..    ",
"............  ........    ..    ",
"    ..    ..    ..        ..    ",
"    ..    ..    ..        ..    ",
"      ..  ..            ..    ..",
"      ..  ..            ..    ..",
"      ..    ..        ..        ",
"      ..    ..        ..        "
};
