/* XPM */
static char *tile1451694789388[] = {
/* columns rows colors chars-per-pixel */
"32 32 5 1 ",
"  c #FFC7AB",
". c #F99096",
"X c #4E8653",
"o c #6CA246",
"O c white",
/* pixels */
"                                ",
"                                ",
"                                ",
"                                ",
"                                ",
"                                ",
"                                ",
"                                ",
"                                ",
"                                ",
"                                ",
"                                ",
"                                ",
"                                ",
"                                ",
"                                ",
"....                            ",
"....                            ",
"..............                  ",
"..............                  ",
"XXXX............                ",
"XXXX............                ",
"XXooXXXXXXXX....                ",
"XXooXXXXXXXX....                ",
"XXooooXXooXXXX....              ",
"XXooooXXooXXXX....              ",
"XXooooXXXXXXXX....              ",
"XXooooXXXXXXXX....              ",
"ooooooooXXXXXX....              ",
"ooooooooXXXXXX....              ",
"ooXXooooooXX....                ",
"ooXXooooooXX....                "
};
