/* XPM */
static char *tile2271694789389[] = {
/* columns rows colors chars-per-pixel */
"32 32 5 1 ",
"  c #ABBA4F",
". c #A99E40",
"X c #C4755D",
"o c #DC8163",
"O c white",
/* pixels */
"    ..XXXXXXXXXXXXXXXXXXXX..    ",
"    ..XXXXXXXXXXXXXXXXXXXX..    ",
"  ..XXXXXXXXooooooooooXXXX..    ",
"  ..XXXXXXXXooooooooooXXXX..    ",
"..XXXXXXooooooooXXXXooXX......  ",
"..XXXXXXooooooooXXXXooXX......  ",
"XXXXXXooooooooooooooXX..      ..",
"XXXXXXooooooooooooooXX..      ..",
"ooooooooooooooooooooXXXX..      ",
"ooooooooooooooooooooXXXX..      ",
"ooooooooooooooooooooooXX....    ",
"ooooooooooooooooooooooXX....    ",
"ooXXXXXXXXXXXXooooooooooXX....  ",
"ooXXXXXXXXXXXXooooooooooXX....  ",
"XXXXXXXXXXXXXXXXXXXXooooooXX....",
"XXXXXXXXXXXXXXXXXXXXooooooXX....",
"ooooooooooooooXXXXXXXXXXXXXX..  ",
"ooooooooooooooXXXXXXXXXXXXXX..  ",
"ooooooooooooooooooooooooXX..    ",
"ooooooooooooooooooooooooXX..    ",
"ooooooooooooooooooooooXXXX......",
"ooooooooooooooooooooooXXXX......",
"ooooXXXXXXXXooooXXoooooo..    ..",
"ooooXXXXXXXXooooXXoooooo..    ..",
"ooXX..XXXXXXXXXX..XXXXXX..      ",
"ooXX..XXXXXXXXXX..XXXXXX..      ",
"XX..  ......XX..  ..........    ",
"XX..  ......XX..  ..........    ",
"....    ..  ....    ..      ..  ",
"....    ..  ....    ..      ..  ",
"  ..    ..    ..      ..      ..",
"  ..    ..    ..      ..      .."
};
