/* XPM */
static char *tile0061694789386[] = {
/* columns rows colors chars-per-pixel */
"32 32 5 1 ",
"  c #FA8B58",
". c #FFA767",
"X c #FFB77C",
"o c #FFC792",
"O c white",
/* pixels */
"  ....    ........  ............",
"  ....    ........  ............",
"....  ..............  ....  ....",
"....  ..............  ....  ....",
"....  ........  ....  ..  ....  ",
"....  ........  ....  ..  ....  ",
"..    ....        ..      ....  ",
"..    ....        ..      ....  ",
"                            ..  ",
"                            ..  ",
"XX          XXXXXXXXXXXXXXXX    ",
"XX          XXXXXXXXXXXXXXXX    ",
"XXXXXXXXXXXXXXXXXXXXXXXXXXXXXXXX",
"XXXXXXXXXXXXXXXXXXXXXXXXXXXXXXXX",
"XXXXXXXXXXXXXXooooooooooooXXXXXX",
"XXXXXXXXXXXXXXooooooooooooXXXXXX",
"oooooooooooooooooooooooooooooooo",
"oooooooooooooooooooooooooooooooo",
"oooooooooooooooooooooooooooooooo",
"oooooooooooooooooooooooooooooooo",
"oooooooooooooooooooooooooooooooo",
"oooooooooooooooooooooooooooooooo",
"oooooooooooooooooooooooooooooooo",
"oooooooooooooooooooooooooooooooo",
"oooooooooooooooooooooooooooooooo",
"oooooooooooooooooooooooooooooooo",
"        oooooooooooooooooooooooo",
"        oooooooooooooooooooooooo",
"....      oooooooooooooooooooooo",
"....      oooooooooooooooooooooo",
"........    oooooooooooooooooooo",
"........    oooooooooooooooooooo"
};
