/* XPM */
static char *tile3571694789390[] = {
/* columns rows colors chars-per-pixel */
"32 32 3 1 ",
"  c white",
". c #D2C7C8",
"X c #F3E9F0",
/* pixels */
"                    ..XXXXXX..XX",
"                    ..XXXXXX..XX",
"                  ......XXXXXXXX",
"                  ......XXXXXXXX",
"                  ..........XX..",
"                  ..........XX..",
"                  ....XXXXXXXX..",
"                  ....XXXXXXXX..",
"                    ........XX..",
"                    ........XX..",
"                            ....",
"                            ....",
"                                ",
"                                ",
"                                ",
"                                ",
"                                ",
"                                ",
"                                ",
"                                ",
"                                ",
"                                ",
"                                ",
"                                ",
"                                ",
"                                ",
"                                ",
"                                ",
"                                ",
"                                ",
"                                ",
"                                "
};
