/* XPM */
static char *tile3101694789389[] = {
/* columns rows colors chars-per-pixel */
"32 32 3 1 ",
"  c #F3E9F0",
". c #D2C7C8",
"X c white",
/* pixels */
"                                ",
"                                ",
"      ....                      ",
"      ....                      ",
"    ....                        ",
"    ....                        ",
"    ..          ..              ",
"    ..          ..              ",
"  ....      ....      ......    ",
"  ....      ....      ......    ",
"..XX..    ..        ....    ..  ",
"..XX..    ..        ....    ..  ",
"XXXXXX....        ....          ",
"XXXXXX....        ....          ",
"XXXXXXXX..      ..........      ",
"XXXXXXXX..      ..........      ",
"XXXXXXXX..    ....        ..    ",
"XXXXXXXX..    ....        ..    ",
"XXXXXXXX..  ....                ",
"XXXXXXXX..  ....                ",
"XXXXXXXXXX....                  ",
"XXXXXXXXXX....                  ",
"XXXXXXXXXXXX..    ....          ",
"XXXXXXXXXXXX..    ....          ",
"XXXXXXXXXXXX..  ....            ",
"XXXXXXXXXXXX..  ....            ",
"XXXXXXXXXXXXXX....              ",
"XXXXXXXXXXXXXX....              ",
"XXXXXXXXXXXXXXXX..........      ",
"XXXXXXXXXXXXXXXX..........      ",
"XXXXXXXXXXXXXXXXXXXX....        ",
"XXXXXXXXXXXXXXXXXXXX....        "
};
