/* XPM */
static char *tile0491694789387[] = {
/* columns rows colors chars-per-pixel */
"32 32 5 1 ",
"  c #FFC792",
". c #FFB77C",
"X c #FA8B58",
"o c #FFA767",
"O c white",
/* pixels */
"                  ..XXooooooXXoo",
"                  ..XXooooooXXoo",
"                  XXXXXXoooooooo",
"                  XXXXXXoooooooo",
"                ..XXXXXXXXXXooXX",
"                ..XXXXXXXXXXooXX",
"                ..XXXXooooooooXX",
"                ..XXXXooooooooXX",
"                ....XXXXXXXXooXX",
"                ....XXXXXXXXooXX",
"                  ..........XXXX",
"                  ..........XXXX",
"                    ............",
"                    ............",
"                          ......",
"                          ......",
"                                ",
"                                ",
"                                ",
"                                ",
"                                ",
"                                ",
"                                ",
"                                ",
"                                ",
"                                ",
"                                ",
"                                ",
"                                ",
"                                ",
"                                ",
"                                "
};
