/* XPM */
static char *tile2011694789388[] = {
/* columns rows colors chars-per-pixel */
"32 32 5 1 ",
"  c #ABBA4F",
". c #A99E40",
"X c #C4755D",
"o c #DC8163",
"O c white",
/* pixels */
"    ..XXXXXXXXXXXXXXXXXXXX..  ..",
"    ..XXXXXXXXXXXXXXXXXXXX..  ..",
"    ..XXXXXXooooooooooXXXX....  ",
"    ..XXXXXXooooooooooXXXX....  ",
"  ..XXXXooooooooXXXXoooooo..    ",
"  ..XXXXooooooooXXXXoooooo..    ",
"....oooooooooooooooooooo..      ",
"....oooooooooooooooooooo..      ",
"......ooooooooooooooXXXX..    ..",
"......ooooooooooooooXXXX..    ..",
"  ....oooooooooooooooooooo......",
"  ....oooooooooooooooooooo......",
"    ..XXXXXXXXoooooooooooo..    ",
"    ..XXXXXXXXoooooooooooo..    ",
"      ..XXXXXXXXXXXXoooooooo..  ",
"      ..XXXXXXXXXXXXoooooooo..  ",
"    ..ooooooooXXXXXXXXXXXXXX....",
"    ..ooooooooXXXXXXXXXXXXXX....",
"  ..oooooooooooooooooooooo....  ",
"  ..oooooooooooooooooooooo....  ",
"  ..ooooooooooooooooooXX......  ",
"  ..ooooooooooooooooooXX......  ",
"    ..XXXXXXoooooooooo......    ",
"    ..XXXXXXoooooooooo......    ",
"      ....XX..XXooXX..  ....    ",
"      ....XX..XXooXX..  ....    ",
"        ....  ..oo....    ..    ",
"        ....  ..oo....    ..    ",
"          ..    ..          ..  ",
"          ..    ..          ..  ",
"          ..                ..  ",
"          ..                ..  "
};
