/* XPM */
static char *tile5181694789392[] = {
/* columns rows colors chars-per-pixel */
"32 32 3 1 ",
"  c #FA8B58",
". c #F3E9F0",
"X c white",
/* pixels */
"                                ",
"                                ",
"                                ",
"                                ",
"                                ",
"                                ",
"                                ",
"                                ",
"                                ",
"                                ",
"                                ",
"                                ",
"                                ",
"                                ",
"                                ",
"                                ",
"                                ",
"                                ",
"                                ",
"                                ",
"                  ..........    ",
"                  ..........    ",
"    ......      ..............  ",
"    ......      ..............  ",
"  ..........  ....XXXXXXXXXX....",
"  ..........  ....XXXXXXXXXX....",
"....XXXXXX......XXXXXXXXXXXXXX..",
"....XXXXXX......XXXXXXXXXXXXXX..",
"XXXXXXXXXXXX..XXXXXXXXXXXXXXXXXX",
"XXXXXXXXXXXX..XXXXXXXXXXXXXXXXXX",
"XXXXXXXXXXXXXXXXXXXXXXXXXXXXXXXX",
"XXXXXXXXXXXXXXXXXXXXXXXXXXXXXXXX"
};
