/* XPM */
static char *tile3521694789390[] = {
/* columns rows colors chars-per-pixel */
"32 32 3 1 ",
"  c #F3E9F0",
". c #D2C7C8",
"X c white",
/* pixels */
"        ....XXXXXXXXXXXXXXXXXXXX",
"        ....XXXXXXXXXXXXXXXXXXXX",
"      ..........XXXXXXXXXXXXXXXX",
"      ..........XXXXXXXXXXXXXXXX",
"              ....XXXXXXXXXXXXXX",
"              ....XXXXXXXXXXXXXX",
"            ....  ..XXXXXXXXXXXX",
"            ....  ..XXXXXXXXXXXX",
"          ....    ..XXXXXXXXXXXX",
"          ....    ..XXXXXXXXXXXX",
"                  ....XXXXXXXXXX",
"                  ....XXXXXXXXXX",
"                ....  ..XXXXXXXX",
"                ....  ..XXXXXXXX",
"    ..        ....    ..XXXXXXXX",
"    ..        ....    ..XXXXXXXX",
"      ..........      ..XXXXXXXX",
"      ..........      ..XXXXXXXX",
"          ....        ....XXXXXX",
"          ....        ....XXXXXX",
"  ..    ....        ..    ..XX..",
"  ..    ....        ..    ..XX..",
"    ......      ....      ....  ",
"    ......      ....      ....  ",
"              ..          ..    ",
"              ..          ..    ",
"                        ....    ",
"                        ....    ",
"                      ....      ",
"                      ....      ",
"                                ",
"                                "
};
