/* XPM */
static char *tile4071694789391[] = {
/* columns rows colors chars-per-pixel */
"32 32 4 1 ",
"  c #937560",
". c #846757",
"X c #6B5954",
"o c white",
/* pixels */
"        ......................  ",
"        ......................  ",
"............          ..........",
"............          ..........",
"........        ....            ",
"........        ....            ",
"                                ",
"                                ",
"      XX            ..XX        ",
"      XX            ..XX        ",
"      XXXX          XXXX        ",
"      XXXX          XXXX        ",
"  ......XXXX..    XXXXXX        ",
"  ......XXXX..    XXXXXX        ",
"..........XXXX..XXXXXX      ....",
"..........XXXX..XXXXXX      ....",
"            XXXXXXXX............",
"            XXXXXXXX............",
"              XXXX              ",
"              XXXX              ",
"                XXXX  ......    ",
"                XXXX  ......    ",
"      ......      XXXX          ",
"      ......      XXXX          ",
"  ..............  ..XXXX  ....  ",
"  ..............  ..XXXX  ....  ",
"......                XXXX      ",
"......                XXXX      ",
"                                ",
"                                ",
"              ..........        ",
"              ..........        "
};
