/* XPM */
static char *tile4911694789392[] = {
/* columns rows colors chars-per-pixel */
"32 32 3 1 ",
"  c #B0DCE3",
". c #F3E9F0",
"X c white",
/* pixels */
"                        ....XXXX",
"                        ....XXXX",
"                      ....XXXXXX",
"                      ....XXXXXX",
"                    ....XXXXXXXX",
"                    ....XXXXXXXX",
"                    ....XXXXXXXX",
"                    ....XXXXXXXX",
"                    ....XXXXXXXX",
"                    ....XXXXXXXX",
"                    ....XXXXXXXX",
"                    ....XXXXXXXX",
"                    ....XXXXXXXX",
"                    ....XXXXXXXX",
"                      ....XXXXXX",
"                      ....XXXXXX",
"                        ....XXXX",
"                        ....XXXX",
"                          ....XX",
"                          ....XX",
"                        ....XXXX",
"                        ....XXXX",
"    ........          ....XXXXXX",
"    ........          ....XXXXXX",
"  ..........          ....XXXXXX",
"  ..........          ....XXXXXX",
"....XXXX....          ....XXXXXX",
"....XXXX....          ....XXXXXX",
"XXXXXX....              ....XXXX",
"XXXXXX....              ....XXXX",
"XXXX....                  ..XXXX",
"XXXX....                  ..XXXX"
};
