/* XPM */
static char *tile4691694789392[] = {
/* columns rows colors chars-per-pixel */
"32 32 3 1 ",
"  c white",
". c #F3E9F0",
"X c #B0DCE3",
/* pixels */
"                                ",
"                                ",
"  ..                            ",
"  ..                            ",
"......                          ",
"......                          ",
"XX....                          ",
"XX....                          ",
"XX....                          ",
"XX....                          ",
"XX....                          ",
"XX....                          ",
"XX....                          ",
"XX....                          ",
"XXXX....                        ",
"XXXX....                        ",
"XXXXXXXXXXXXXXXX                ",
"XXXXXXXXXXXXXXXX                ",
"XXXXXXXXXXXXXXXX..              ",
"XXXXXXXXXXXXXXXX..              ",
"XXXXXXXXXXXXXXXX....            ",
"XXXXXXXXXXXXXXXX....            ",
"XXXX........XXXX....            ",
"XXXX........XXXX....            ",
"XX..........XXXX......          ",
"XX..........XXXX......          ",
"....    ....XXXXXX....          ",
"....    ....XXXXXX....          ",
"      ....XXXXXXXXXX....        ",
"      ....XXXXXXXXXX....        ",
"    ....XXXXXXXXXXXXXX......    ",
"    ....XXXXXXXXXXXXXX......    "
};
