/* XPM */
static char *tile5461694789393[] = {
/* columns rows colors chars-per-pixel */
"32 32 3 1 ",
"  c white",
". c #F3E9F0",
"X c #FA8B58",
/* pixels */
"    ..XXXXXXXXXXXXXXXXXXXX..    ",
"    ..XXXXXXXXXXXXXXXXXXXX..    ",
"    ....XXXXXXXXXX............  ",
"    ....XXXXXXXXXX............  ",
"..    ....XXXXXX............    ",
"..    ....XXXXXX............    ",
"....    ..XXXXXX..              ",
"....    ..XXXXXX..              ",
"XX........XXXXXX                ",
"XX........XXXXXX                ",
"XXXX........XXXX                ",
"XXXX........XXXX                ",
"XXXXXXXXXXXXXXXX                ",
"XXXXXXXXXXXXXXXX                ",
"XXXXXXXXXXXXXXXX                ",
"XXXXXXXXXXXXXXXX                ",
"XXXXXX........                  ",
"XXXXXX........                  ",
"XXXX........                    ",
"XXXX........                    ",
"XX......                        ",
"XX......                        ",
"....                            ",
"....                            ",
"..                              ",
"..                              ",
"..                              ",
"..                              ",
"                                ",
"                                ",
"                                ",
"                                "
};
