/* XPM */
static char *tile2381694789389[] = {
/* columns rows colors chars-per-pixel */
"32 32 5 1 ",
"  c #6CA246",
". c #4E8653",
"X c #A1624B",
"o c #A87253",
"O c white",
/* pixels */
"    ..XXXXXXXXXXXXXXXXXXXX..    ",
"    ..XXXXXXXXXXXXXXXXXXXX..    ",
"  ..XXXXXXXXooooooooooXXXX..    ",
"  ..XXXXXXXXooooooooooXXXX..    ",
"..XXXXXXooooooooXXXXooXX......  ",
"..XXXXXXooooooooXXXXooXX......  ",
"XXXXXXooooooooooooooXX..      ..",
"XXXXXXooooooooooooooXX..      ..",
"ooooooooooooooooooooXXXX..      ",
"ooooooooooooooooooooXXXX..      ",
"ooooooooooooooooooooooXX....    ",
"ooooooooooooooooooooooXX....    ",
"ooXXXXXXXXXXXXooooooooooXX....  ",
"ooXXXXXXXXXXXXooooooooooXX....  ",
"XXXXXXXXXXXXXXXXXXXXooooooXX....",
"XXXXXXXXXXXXXXXXXXXXooooooXX....",
"ooooooooooooooXXXXXXXXXXXXXX..  ",
"ooooooooooooooXXXXXXXXXXXXXX..  ",
"ooooooooooooooooooooooooXX..    ",
"ooooooooooooooooooooooooXX..    ",
"ooooooooooooooooooooooXXXX......",
"ooooooooooooooooooooooXXXX......",
"ooooXXXXXXXXooooXXoooooo..    ..",
"ooooXXXXXXXXooooXXoooooo..    ..",
"ooXX..XXXXXXXXXX..XXXXXX..      ",
"ooXX..XXXXXXXXXX..XXXXXX..      ",
"XX..  ......XX..  ..........    ",
"XX..  ......XX..  ..........    ",
"....    ..  ....    ..      ..  ",
"....    ..  ....    ..      ..  ",
"  ..    ..    ..      ..      ..",
"  ..    ..    ..      ..      .."
};
