/* XPM */
static char *tile2461694789389[] = {
/* columns rows colors chars-per-pixel */
"32 32 5 1 ",
"  c #ABBA4F",
". c #A99E40",
"X c #C4755D",
"o c #DC8163",
"O c white",
/* pixels */
"  ..XXXXXXXXXXXXXXXXXXXXXX..    ",
"  ..XXXXXXXXXXXXXXXXXXXXXX..    ",
"......XXXXXXooooooooooooooXX..  ",
"......XXXXXXooooooooooooooXX..  ",
"      ..XXooooooXXXXooooooooXX..",
"      ..XXooooooXXXXooooooooXX..",
"    ..XXooooooooooooooooooooooXX",
"    ..XXooooooooooooooooooooooXX",
"......XXooooooooooooXXXXoooooooo",
"......XXooooooooooooXXXXoooooooo",
"    ..XXoooooooooooooooooooooooo",
"    ..XXoooooooooooooooooooooooo",
"  ..XXXXXXXXXXoooooooooooooooooo",
"  ..XXXXXXXXXXoooooooooooooooooo",
"......XXXXXXXXXXXXXXooooooooXXXX",
"......XXXXXXXXXXXXXXooooooooXXXX",
"      ..ooooooXXXXXXXXXXXXXXXXXX",
"      ..ooooooXXXXXXXXXXXXXXXXXX",
"    ..oooooooooooooooooooooooooo",
"    ..oooooooooooooooooooooooooo",
"  ....XXooooooooooooooXXXXXXoooo",
"  ....XXooooooooooooooXXXXXXoooo",
"......XXXXXXoooooooooooooooooooo",
"......XXXXXXoooooooooooooooooooo",
"....XXXXXXXXXXXXooXXooooooXXXXXX",
"....XXXXXXXXXXXXooXXooooooXXXXXX",
"  ..XXooooooooooooooooooooooXX..",
"  ..XXooooooooooooooooooooooXX..",
"    ..ooooooooooooooooooooXX..  ",
"    ..ooooooooooooooooooooXX..  ",
"    ..ooooooooXXXXXXXXXXXX..    ",
"    ..ooooooooXXXXXXXXXXXX..    "
};
