/* XPM */
static char *tile0591694789387[] = {
/* columns rows colors chars-per-pixel */
"32 32 5 1 ",
"  c #FFC7AB",
". c #F99096",
"X c #FFB77C",
"o c #FFC792",
"O c white",
/* pixels */
"    ........XXXXooooooooXX..    ",
"    ........XXXXooooooooXX..    ",
"          ..XXooooooooooXXXX..  ",
"          ..XXooooooooooXXXX..  ",
"  ..    ..XXXXooooooooooXXXXXX..",
"  ..    ..XXXXooooooooooXXXXXX..",
"    ......XXXXooooooooooooXXXXXX",
"    ......XXXXooooooooooooXXXXXX",
"      ....XXooooooooooooooooXXXX",
"      ....XXooooooooooooooooXXXX",
"  ........XXoooooooooooooooooooo",
"  ........XXoooooooooooooooooooo",
"..      ..XXoooooooooooooooooooo",
"..      ..XXoooooooooooooooooooo",
"      ....XXoooooooooooooooooooo",
"      ....XXoooooooooooooooooooo",
"    ......XXoooooooooooooooooooo",
"    ......XXoooooooooooooooooooo",
"      ....XXoooooooooooooooooooo",
"      ....XXoooooooooooooooooooo",
"      ......oooooooooooooooooooo",
"      ......oooooooooooooooooooo",
"..      ....XXoooooooooooooooooo",
"..      ....XXoooooooooooooooooo",
"  ..      ....oooooooooooooooooo",
"  ..      ....oooooooooooooooooo",
"    ..........XXoooooooooooooooo",
"    ..........XXoooooooooooooooo",
"        ......XXoooooooooooooooo",
"        ......XXoooooooooooooooo",
"  ..      ..XXXXoooooooooooooooo",
"  ..      ..XXXXoooooooooooooooo"
};
