/* XPM */
static char *tile0731694789387[] = {
/* columns rows colors chars-per-pixel */
"32 32 5 1 ",
"  c #FFA767",
". c #FA8B58",
"X c #FFB77C",
"o c #FFC792",
"O c white",
/* pixels */
"    ..XXooooooooooooooooXX..    ",
"    ..XXooooooooooooooooXX..    ",
"  ..XXXXooooooooooooooooXX..    ",
"  ..XXXXooooooooooooooooXX..    ",
"..XXXXXXoooooooooooooooo......  ",
"..XXXXXXoooooooooooooooo......  ",
"XXXXXXoooooooooooooooo..      ..",
"XXXXXXoooooooooooooooo..      ..",
"XXXXooooooooooooooooXXXX..      ",
"XXXXooooooooooooooooXXXX..      ",
"ooooooooooooooooooooXXXX....    ",
"ooooooooooooooooooooXXXX....    ",
"ooooooooooooooooooooooXXXX....  ",
"ooooooooooooooooooooooXXXX....  ",
"ooooooooooooooooooooooXXXXXX....",
"ooooooooooooooooooooooXXXXXX....",
"ooooooooooooooooooooooooXXXX..  ",
"ooooooooooooooooooooooooXXXX..  ",
"oooooooooooooooooooooooooo..    ",
"oooooooooooooooooooooooooo..    ",
"ooooooooooooooooooooooooXX......",
"ooooooooooooooooooooooooXX......",
"oooooooooooooooooooooooo..    ..",
"oooooooooooooooooooooooo..    ..",
"oooo..oooooooooo..ooooXX..      ",
"oooo..oooooooooo..ooooXX..      ",
"oo..  ......oo..  ..........    ",
"oo..  ......oo..  ..........    ",
"....    ..  ....    ..      ..  ",
"....    ..  ....    ..      ..  ",
"  ..    ..    ..      ..      ..",
"  ..    ..    ..      ..      .."
};
