/* XPM */
static char *tile4731694789392[] = {
/* columns rows colors chars-per-pixel */
"32 32 3 1 ",
"  c white",
". c #F3E9F0",
"X c #FA8B58",
/* pixels */
"                                ",
"                                ",
"                                ",
"                                ",
"                              ..",
"                              ..",
"                              ..",
"                              ..",
"                            ....",
"                            ....",
"                        ......XX",
"                        ......XX",
"                    ........XXXX",
"                    ........XXXX",
"                  ........XXXXXX",
"                  ........XXXXXX",
"                  ....XXXXXXXXXX",
"                  ....XXXXXXXXXX",
"                  ....XXXXXXXXXX",
"                  ....XXXXXXXXXX",
"                  ....XXXXXXXXXX",
"                  ....XXXXXXXXXX",
"                ....XXXXXXXXXXXX",
"                ....XXXXXXXXXXXX",
"              ....XXXXXXXXXXXXXX",
"              ....XXXXXXXXXXXXXX",
"    ............XXXXXXXXXXXXXXXX",
"    ............XXXXXXXXXXXXXXXX",
"  ............XXXXXXXXXXXXXXXXXX",
"  ............XXXXXXXXXXXXXXXXXX",
"    ..XXXXXXXXXXXXXXXXXXXXXXXXXX",
"    ..XXXXXXXXXXXXXXXXXXXXXXXXXX"
};
