/* XPM */
static char *tile4441694789391[] = {
/* columns rows colors chars-per-pixel */
"32 32 5 1 ",
"  c #6CA246",
". c #4E8653",
"X c #D2C7C8",
"o c #F3E9F0",
"O c white",
/* pixels */
"                                ",
"                                ",
"      ....                      ",
"      ....                      ",
"    ....                        ",
"    ....                        ",
"    ..          ..              ",
"    ..          ..              ",
"  ....      ....      ......    ",
"  ....      ....      ......    ",
"..XX..    ..        ....    ..  ",
"..XX..    ..        ....    ..  ",
"XXXXXX....        ....          ",
"XXXXXX....        ....          ",
"XXooXXXX..      ..........      ",
"XXooXXXX..      ..........      ",
"ooooXXXX..    ....        ..    ",
"ooooXXXX..    ....        ..    ",
"ooooXXXX..  ....                ",
"ooooXXXX..  ....                ",
"ooooooXXXX....                  ",
"ooooooXXXX....                  ",
"ooooooooXXXX..    ....          ",
"ooooooooXXXX..    ....          ",
"ooooooooXXXX..  ....            ",
"ooooooooXXXX..  ....            ",
"ooooooooooXXXX....              ",
"ooooooooooXXXX....              ",
"ooooooooooooXXXX..........      ",
"ooooooooooooXXXX..........      ",
"ooooooooooooooXXXXXX....        ",
"ooooooooooooooXXXXXX....        "
};
