/* XPM */
static char *tile3131694789390[] = {
/* columns rows colors chars-per-pixel */
"32 32 3 1 ",
"  c #F3E9F0",
". c #D2C7C8",
"X c white",
/* pixels */
"        ..        ..      ..    ",
"        ..        ..      ..    ",
"..    ..            ..  ..    ..",
"..    ..            ..  ..    ..",
"    ..        ..    ......    ..",
"    ..        ..    ......    ..",
"    ..    ........  ........  ..",
"    ..    ........  ........  ..",
"  ....  ..............XXXXXX....",
"  ....  ..............XXXXXX....",
"............XXXXXXXXXXXXXXXXXXXX",
"............XXXXXXXXXXXXXXXXXXXX",
"XX......XXXXXXXXXXXXXXXXXXXXXXXX",
"XX......XXXXXXXXXXXXXXXXXXXXXXXX",
"XXXXXXXXXXXXXXXXXXXXXXXXXXXXXXXX",
"XXXXXXXXXXXXXXXXXXXXXXXXXXXXXXXX",
"XXXXXXXXXXXXXXXXXXXXXXXXXXXXXXXX",
"XXXXXXXXXXXXXXXXXXXXXXXXXXXXXXXX",
"XXXXXXXXXXXXXXXXXXXXXXXXXXXXXXXX",
"XXXXXXXXXXXXXXXXXXXXXXXXXXXXXXXX",
"XXXXXXXXXXXXXXXXXXXXXXXXXXXXXXXX",
"XXXXXXXXXXXXXXXXXXXXXXXXXXXXXXXX",
"XXXXXXXXXXXXXXXXXXXXXXXXXXXXXXXX",
"XXXXXXXXXXXXXXXXXXXXXXXXXXXXXXXX",
"XXXXXXXXXXXXXXXXXXXXXXXXXXXXXXXX",
"XXXXXXXXXXXXXXXXXXXXXXXXXXXXXXXX",
"XXXXXXXXXXXXXXXXXXXXXXXX........",
"XXXXXXXXXXXXXXXXXXXXXXXX........",
"XXXXXXXXXXXXXXXXXXXXXX......    ",
"XXXXXXXXXXXXXXXXXXXXXX......    ",
"XXXXXXXXXXXXXXXXXXXX....        ",
"XXXXXXXXXXXXXXXXXXXX....        "
};
