/* XPM */
static char *tile5441694789393[] = {
/* columns rows colors chars-per-pixel */
"32 32 3 1 ",
"  c #FA8B58",
". c #F3E9F0",
"X c white",
/* pixels */
"                        ....XXXX",
"                        ....XXXX",
"                      ....XXXXXX",
"                      ....XXXXXX",
"                    ....XXXX....",
"                    ....XXXX....",
"                    ....XX....  ",
"                    ....XX....  ",
"                    ........    ",
"                    ........    ",
"                    ..          ",
"                    ..          ",
"                                ",
"                                ",
"                                ",
"                                ",
"                                ",
"                                ",
"                                ",
"                                ",
"                  ..........    ",
"                  ..........    ",
"    ......      ..............  ",
"    ......      ..............  ",
"  ..........  ....XXXXXXXXXX....",
"  ..........  ....XXXXXXXXXX....",
"....XXXXXX......XXXXXXXXXXXXXX..",
"....XXXXXX......XXXXXXXXXXXXXX..",
"XXXXXXXXXXXX..XXXXXXXXXXXXXXXXXX",
"XXXXXXXXXXXX..XXXXXXXXXXXXXXXXXX",
"XXXXXXXXXXXXXXXXXXXXXXXXXXXXXXXX",
"XXXXXXXXXXXXXXXXXXXXXXXXXXXXXXXX"
};
