/* XPM */
static char *tile1061694789387[] = {
/* columns rows colors chars-per-pixel */
"32 32 5 1 ",
"  c #FFC7AB",
". c #F99096",
"X c #FFB77C",
"o c #FFC792",
"O c white",
/* pixels */
"    ..XXXXXXooooooooooooXX..    ",
"    ..XXXXXXooooooooooooXX..    ",
"  ..XXXXXXooooooooooooXXXX..    ",
"  ..XXXXXXooooooooooooXXXX..    ",
"..XXXXXXooooooooooooooXX......  ",
"..XXXXXXooooooooooooooXX......  ",
"XXXXXXooooooooooooooXX..      ..",
"XXXXXXooooooooooooooXX..      ..",
"XXXXooooooooooooooooXXXX..      ",
"XXXXooooooooooooooooXXXX..      ",
"ooooooooooooooooooooXXXX....    ",
"ooooooooooooooooooooXXXX....    ",
"ooooooooooooooooooooooXXXX....  ",
"ooooooooooooooooooooooXXXX....  ",
"ooooooooooooooooooooooXXXXXX....",
"ooooooooooooooooooooooXXXXXX....",
"ooooooooooooooooooooooooXXXX..  ",
"ooooooooooooooooooooooooXXXX..  ",
"oooooooooooooooooooooooooo..    ",
"oooooooooooooooooooooooooo..    ",
"ooooooooooooooooooooooooXX......",
"ooooooooooooooooooooooooXX......",
"oooooooooooooooooooooooo..    ..",
"oooooooooooooooooooooooo..    ..",
"ooooooooooooooooooooooXX..      ",
"ooooooooooooooooooooooXX..      ",
"..ooooooooooooooooooooXXXX..    ",
"..ooooooooooooooooooooXXXX..    ",
"  ..ooooooooooooooooooXXXX....  ",
"  ..ooooooooooooooooooXXXX....  ",
"    ..ooooooooooooooooooXX..  ..",
"    ..ooooooooooooooooooXX..  .."
};
