/* XPM */
static char *tile4081694789391[] = {
/* columns rows colors chars-per-pixel */
"32 32 4 1 ",
"  c #937560",
". c #846757",
"X c #CE926F",
"o c white",
/* pixels */
"        ......................  ",
"        ......................  ",
"............          ..........",
"............          ..........",
"........        ....            ",
"........        ....            ",
"    XXXX..                      ",
"    XXXX..                      ",
"    XXXX..          ....        ",
"    XXXX..          ....        ",
"    ....                        ",
"    ....                        ",
"  ............XXXXXXXXXX        ",
"  ............XXXXXXXXXX        ",
"............XXXXXXXXXXXXXX  ....",
"............XXXXXXXXXXXXXX  ....",
"          XXXXXXXXXXXXXXXX......",
"          XXXXXXXXXXXXXXXX......",
"          XXXXXXXXXXXXXXXX..    ",
"          XXXXXXXXXXXXXXXX..    ",
"          XXXXXXXXXXXXXXXX..    ",
"          XXXXXXXXXXXXXXXX..    ",
"      ....XXXXXXXXXXXXXX..      ",
"      ....XXXXXXXXXXXXXX..      ",
"  ..........XXXXXXXXXX..  ....  ",
"  ..........XXXXXXXXXX..  ....  ",
"......      ..........          ",
"......      ..........          ",
"                                ",
"                                ",
"              ..........        ",
"              ..........        "
};
