/* XPM */
static char *tile0801694789387[] = {
/* columns rows colors chars-per-pixel */
"32 32 5 1 ",
"  c #FFC7AB",
". c #F99096",
"X c #FFB77C",
"o c #FFC792",
"O c white",
/* pixels */
"    ..            ....    ..    ",
"    ..            ....    ..    ",
"      ..          ..      ..    ",
"      ..          ..      ..    ",
"        ............    ......  ",
"        ............    ......  ",
"....    ..XXXXXXXXXX............",
"....    ..XXXXXXXXXX............",
"    ....XXXXXXXXXXXXXXXX....    ",
"    ....XXXXXXXXXXXXXXXX....    ",
"  ....XXXXXXooooooXXXXXX..      ",
"  ....XXXXXXooooooXXXXXX..      ",
"  ....XXXXooooooooooooXXXX..    ",
"  ....XXXXooooooooooooXXXX..    ",
"......XXooooooooooooooXXXX......",
"......XXooooooooooooooXXXX......",
"    ..XXooooooooooooooooXX....  ",
"    ..XXooooooooooooooooXX....  ",
"      ..ooooooooooooooooXX..    ",
"      ..ooooooooooooooooXX..    ",
"......XXXXooooooooooooooXX......",
"......XXXXooooooooooooooXX......",
"    ....XXoooooooooooooo......  ",
"    ....XXoooooooooooooo......  ",
"  ..    ....oooooooo............",
"  ..    ....oooooooo............",
"..      ..  ............  ....  ",
"..      ..  ............  ....  ",
"..      ..    ........    ..    ",
"..      ..    ........    ..    ",
"..      ..      ..        ..    ",
"..      ..      ..        ..    "
};
