/* XPM */
static char *tile1851694789388[] = {
/* columns rows colors chars-per-pixel */
"32 32 5 1 ",
"  c #ABBA4F",
". c #A99E40",
"X c #C4755D",
"o c #DC8163",
"O c white",
/* pixels */
"    ........XXXXXXXXXXXXXXXXXXoo",
"    ........XXXXXXXXXXXXXXXXXXoo",
"..        ..ooooooooooXXXXXXXXXX",
"..        ..ooooooooooXXXXXXXXXX",
"    ..  ..ooooooXXXXoooooooooooo",
"    ..  ..ooooooXXXXoooooooooooo",
"    ..  ..oooooooooooooooooooooo",
"    ..  ..oooooooooooooooooooooo",
"  ....  ..ooooooooooXXXXoooooooo",
"  ....  ..ooooooooooXXXXoooooooo",
"............oooooooooooooooooooo",
"............oooooooooooooooooooo",
"oo......XXXXXXoooooooooooooooooo",
"oo......XXXXXXoooooooooooooooooo",
"XXXXXXXXXXXXXXXXXXXXooooooooXXXX",
"XXXXXXXXXXXXXXXXXXXXooooooooXXXX",
"ooooooooooooooXXXXXXXXXXXXXXXXXX",
"ooooooooooooooXXXXXXXXXXXXXXXXXX",
"oooooooooooooooooooooooo......oo",
"oooooooooooooooooooooooo......oo",
"oooooooooooooooooooooo..........",
"oooooooooooooooooooooo..........",
"ooooooXXXXXXoooooooooo..  ....  ",
"ooooooXXXXXXoooooooooo..  ....  ",
"ooXXXXXXXXXXXXXXooXXoo......    ",
"ooXXXXXXXXXXXXXXooXXoo......    ",
"XXXXXXoooooooooooooooo..        ",
"XXXXXXoooooooooooooooo..        ",
"oooooooooooooooooooo..        ..",
"oooooooooooooooooooo..        ..",
"ooooooooooooooXXXXXX........    ",
"ooooooooooooooXXXXXX........    "
};
