/* XPM */
static char *tile3501694789390[] = {
/* columns rows colors chars-per-pixel */
"32 32 5 1 ",
"  c #B69280",
". c #8F7A73",
"X c #846757",
"o c #937560",
"O c white",
/* pixels */
"    ........XXXXXXXXXXXXXXXXXXoo",
"    ........XXXXXXXXXXXXXXXXXXoo",
"..        ..ooooooooooXXXXXXXXXX",
"..        ..ooooooooooXXXXXXXXXX",
"    ..  ..ooooooXXXXoooooooooooo",
"    ..  ..ooooooXXXXoooooooooooo",
"    ..  ..oooooooooooooooooooooo",
"    ..  ..oooooooooooooooooooooo",
"  ....  ..ooooooooooXXXXoooooooo",
"  ....  ..ooooooooooXXXXoooooooo",
"............oooooooooooooooooooo",
"............oooooooooooooooooooo",
"oo......XXXXXXoooooooooooooooooo",
"oo......XXXXXXoooooooooooooooooo",
"XXXXXXXXXXXXXXXXXXXXooooooooXXXX",
"XXXXXXXXXXXXXXXXXXXXooooooooXXXX",
"ooooooooooooooXXXXXXXXXXXXXXXXXX",
"ooooooooooooooXXXXXXXXXXXXXXXXXX",
"oooooooooooooooooooooooo......oo",
"oooooooooooooooooooooooo......oo",
"oooooooooooooooooooooo..........",
"oooooooooooooooooooooo..........",
"ooooooXXXXXXoooooooooo..  ....  ",
"ooooooXXXXXXoooooooooo..  ....  ",
"ooXXXXXXXXXXXXXXooXXoo......    ",
"ooXXXXXXXXXXXXXXooXXoo......    ",
"XXXXXXoooooooooooooooo..        ",
"XXXXXXoooooooooooooooo..        ",
"oooooooooooooooooooo..        ..",
"oooooooooooooooooooo..        ..",
"ooooooooooooooXXXXXX........    ",
"ooooooooooooooXXXXXX........    "
};
