/* XPM */
static char *tile3921694789391[] = {
/* columns rows colors chars-per-pixel */
"32 32 5 1 ",
"  c #B69280",
". c #8F7A73",
"X c #846757",
"o c #937560",
"O c white",
/* pixels */
"    ..XXXXXXXXXXXXXXXXXXXX..    ",
"    ..XXXXXXXXXXXXXXXXXXXX..    ",
"  ..XXXXXXXXooooooooooXXXX..    ",
"  ..XXXXXXXXooooooooooXXXX..    ",
"..XXXXXXooooooooXXXXooXX......  ",
"..XXXXXXooooooooXXXXooXX......  ",
"XXXXXXooooooooooooooXX..      ..",
"XXXXXXooooooooooooooXX..      ..",
"ooooooooooooooooooooXXXX..      ",
"ooooooooooooooooooooXXXX..      ",
"ooooooooooooooooooooooXX....    ",
"ooooooooooooooooooooooXX....    ",
"ooXXXXXXXXXXXXooooooooooXX....  ",
"ooXXXXXXXXXXXXooooooooooXX....  ",
"XXXXXXXXXXXXXXXXXXXXooooooXX....",
"XXXXXXXXXXXXXXXXXXXXooooooXX....",
"ooooooooooooooXXXXXXXXXXXXXX..  ",
"ooooooooooooooXXXXXXXXXXXXXX..  ",
"ooooooooooooooooooooooooXX..    ",
"ooooooooooooooooooooooooXX..    ",
"ooooooooooooooooooooooXXXX......",
"ooooooooooooooooooooooXXXX......",
"ooooXXXXXXXXooooXXoooooo..    ..",
"ooooXXXXXXXXooooXXoooooo..    ..",
"ooXX..XXXXXXXXXX..XXXXXX..      ",
"ooXX..XXXXXXXXXX..XXXXXX..      ",
"XX..  ......XX..  ..........    ",
"XX..  ......XX..  ..........    ",
"....    ..  ....    ..      ..  ",
"....    ..  ....    ..      ..  ",
"  ..    ..    ..      ..      ..",
"  ..    ..    ..      ..      .."
};
