/* XPM */
static char *tile4001694789391[] = {
/* columns rows colors chars-per-pixel */
"32 32 3 1 ",
"  c #F3E9F0",
". c #D2C7C8",
"X c white",
/* pixels */
"  ..XXXXXXXXXXXXXXXXXXXXXX..    ",
"  ..XXXXXXXXXXXXXXXXXXXXXX..    ",
"......XXXXXXXXXXXXXXXXXXXXXX..  ",
"......XXXXXXXXXXXXXXXXXXXXXX..  ",
"      ..XXXXXXXXXXXXXXXXXXXXXX..",
"      ..XXXXXXXXXXXXXXXXXXXXXX..",
"    ..XXXXXXXXXXXXXXXXXXXXXXXXXX",
"    ..XXXXXXXXXXXXXXXXXXXXXXXXXX",
"......XXXXXXXXXXXXXXXXXXXXXXXXXX",
"......XXXXXXXXXXXXXXXXXXXXXXXXXX",
"    ..XXXXXXXXXXXXXXXXXXXXXXXXXX",
"    ..XXXXXXXXXXXXXXXXXXXXXXXXXX",
"  ..XXXXXXXXXXXXXXXXXXXXXXXXXXXX",
"  ..XXXXXXXXXXXXXXXXXXXXXXXXXXXX",
"......XXXXXXXXXXXXXXXXXXXXXXXXXX",
"......XXXXXXXXXXXXXXXXXXXXXXXXXX",
"      ..XXXXXXXXXXXXXXXXXXXXXXXX",
"      ..XXXXXXXXXXXXXXXXXXXXXXXX",
"    ..XXXXXXXXXXXXXXXXXXXXXXXXXX",
"    ..XXXXXXXXXXXXXXXXXXXXXXXXXX",
"  ....XXXXXXXXXXXXXXXXXXXXXXXXXX",
"  ....XXXXXXXXXXXXXXXXXXXXXXXXXX",
"......XXXXXXXXXXXXXXXXXXXXXXXXXX",
"......XXXXXXXXXXXXXXXXXXXXXXXXXX",
"....XXXXXXXXXXXXXXXXXXXXXXXXXXXX",
"....XXXXXXXXXXXXXXXXXXXXXXXXXXXX",
"  ..XXXXXXXXXXXXXXXXXXXXXXXXXX..",
"  ..XXXXXXXXXXXXXXXXXXXXXXXXXX..",
"    ..XXXXXXXXXXXXXXXXXXXXXX..  ",
"    ..XXXXXXXXXXXXXXXXXXXXXX..  ",
"    ..XXXXXXXXXXXXXXXXXXXX..    ",
"    ..XXXXXXXXXXXXXXXXXXXX..    "
};
