/* XPM */
static char *tile0681694789387[] = {
/* columns rows colors chars-per-pixel */
"32 32 5 1 ",
"  c #FA8B58",
". c #FFA767",
"X c #FFB77C",
"o c #FFC792",
"O c white",
/* pixels */
"  ......    ....  ..............",
"  ......    ....  ..............",
"..  ......  ..        ......    ",
"..  ......  ..        ......    ",
"      ....    XXXX          ....",
"      ....    XXXX          ....",
"XXXXXX    XXXXXXXXXX      ......",
"XXXXXX    XXXXXXXXXX      ......",
"XXXXXXXXXXXXXXXXXXXXXX  ........",
"XXXXXXXXXXXXXXXXXXXXXX  ........",
"ooooXXXXXXXXooooooXXXXXX    ....",
"ooooXXXXXXXXooooooXXXXXX    ....",
"ooooooooooooooooooooXXXXXX  ....",
"ooooooooooooooooooooXXXXXX  ....",
"ooooooooooooooooooooooXXXXXX  ..",
"ooooooooooooooooooooooXXXXXX  ..",
"ooooooooooooooooooooooooXX  ....",
"ooooooooooooooooooooooooXX  ....",
"oooooooooooooooooooooooo  ......",
"oooooooooooooooooooooooo  ......",
"ooooooooooooooooooooooXXXX      ",
"ooooooooooooooooooooooXXXX      ",
"ooooooooooooooooooooooXX    ....",
"ooooooooooooooooooooooXX    ....",
"oooooooooooooo  ooooooXX  ......",
"oooooooooooooo  ooooooXX  ......",
"    oooo      ..  oooo  ........",
"    oooo      ..  oooo  ........",
"....        ......    ..........",
"....        ......    ..........",
"......    ......................",
"......    ......................"
};
