/* XPM */
static char *tile5161694789392[] = {
/* columns rows colors chars-per-pixel */
"32 32 3 1 ",
"  c white",
". c #F3E9F0",
"X c #B0DCE3",
/* pixels */
"    ..XXXXXXXXXXXXXXXXXX....    ",
"    ..XXXXXXXXXXXXXXXXXX....    ",
"    ....XXXXXXXXXXXXXX....      ",
"    ....XXXXXXXXXXXXXX....      ",
"..    ....XXXXXXXXXX....    ....",
"..    ....XXXXXXXXXX....    ....",
"....    ..XXXXXXXXXX....  ....XX",
"....    ..XXXXXXXXXX....  ....XX",
"XX........XXXXXXXXXX........XXXX",
"XX........XXXXXXXXXX........XXXX",
"XXXX........XXXXXXXX..XXXXXXXXXX",
"XXXX........XXXXXXXX..XXXXXXXXXX",
"XXXXXXXXXXXXXXXXXXXXXXXXXXXXXXXX",
"XXXXXXXXXXXXXXXXXXXXXXXXXXXXXXXX",
"XXXXXXXXXXXXXXXXXXXXXXXXXXXXXXXX",
"XXXXXXXXXXXXXXXXXXXXXXXXXXXXXXXX",
"XXXXXXXXXXXXXXXXXXXXXXXXXXXXXXXX",
"XXXXXXXXXXXXXXXXXXXXXXXXXXXXXXXX",
"XXXXXXXXXXXXXXXXXXXXXXXXXXXXXXXX",
"XXXXXXXXXXXXXXXXXXXXXXXXXXXXXXXX",
"XXXXXXXXXXXXXXXXXXXXXX......XXXX",
"XXXXXXXXXXXXXXXXXXXXXX......XXXX",
"XXXXXXXXXXXXXXXXXXXXXX........XX",
"XXXXXXXXXXXXXXXXXXXXXX........XX",
"XXXXXXXXXXXXXXXXXXXXXX....  ....",
"XXXXXXXXXXXXXXXXXXXXXX....  ....",
"XXXXXXXXXXXXXXXXXXXXXX....    ..",
"XXXXXXXXXXXXXXXXXXXXXX....    ..",
"XXXXXXXXXXXXXXXXXXXXXXXX....    ",
"XXXXXXXXXXXXXXXXXXXXXXXX....    ",
"XXXXXXXXXXXXXXXXXXXXXXXXXX..    ",
"XXXXXXXXXXXXXXXXXXXXXXXXXX..    "
};
