/* XPM */
static char *tile0581694789387[] = {
/* columns rows colors chars-per-pixel */
"32 32 5 1 ",
"  c #FFC7AB",
". c #F99096",
"X c #FFB77C",
"o c #FFC792",
"O c white",
/* pixels */
"    ..XXooooooooooooooooXX..  ..",
"    ..XXooooooooooooooooXX..  ..",
"    ..XXooooooooooooooooXX....  ",
"    ..XXooooooooooooooooXX....  ",
"  ..XXXXooooooooooooooooXX..    ",
"  ..XXXXooooooooooooooooXX..    ",
"....XXXXoooooooooooooooo..      ",
"....XXXXoooooooooooooooo..      ",
"......ooooooooooooooooXX..    ..",
"......ooooooooooooooooXX..    ..",
"  ....XXooooooooooooooXXXX......",
"  ....XXooooooooooooooXXXX......",
"    ..XXooooooooooooooXXXX..    ",
"    ..XXooooooooooooooXXXX..    ",
"      ..ooooooooooooooooXXXX..  ",
"      ..ooooooooooooooooXXXX..  ",
"    ..XXXXooooooooooooooXXXX....",
"    ..XXXXooooooooooooooXXXX....",
"  ..XXXXXXoooooooooooooooo....  ",
"  ..XXXXXXoooooooooooooooo....  ",
"  ..XXXXoooooooooooooooo......  ",
"  ..XXXXoooooooooooooooo......  ",
"    ..oooooooooooooooo......    ",
"    ..oooooooooooooooo......    ",
"      ....oo..oooooo..  ....    ",
"      ....oo..oooooo..  ....    ",
"        ....  ..oo....    ..    ",
"        ....  ..oo....    ..    ",
"          ..    ..          ..  ",
"          ..    ..          ..  ",
"          ..                ..  ",
"          ..                ..  "
};
