/* XPM */
static char *tile5281694789392[] = {
/* columns rows colors chars-per-pixel */
"32 32 3 1 ",
"  c white",
". c #F3E9F0",
"X c #B0DCE3",
/* pixels */
"                                ",
"                                ",
"                                ",
"                                ",
"                              ..",
"                              ..",
"                              ..",
"                              ..",
"                            ....",
"                            ....",
"                        ......XX",
"                        ......XX",
"                    ........XXXX",
"                    ........XXXX",
"                  ........XXXXXX",
"                  ........XXXXXX",
"                        ....XXXX",
"                        ....XXXX",
"                          ....XX",
"                          ....XX",
"                          ....XX",
"                          ....XX",
"                          ....XX",
"                          ....XX",
"                          ....XX",
"                          ....XX",
"                          ......",
"                          ......",
"                            ..  ",
"                            ..  ",
"                                ",
"                                "
};
