/* XPM */
static char *tile3201694789390[] = {
/* columns rows colors chars-per-pixel */
"32 32 5 1 ",
"  c #B69280",
". c #8F7A73",
"X c #937560",
"o c #846757",
"O c white",
/* pixels */
"        ..        ..            ",
"        ..        ..            ",
"..    ..            ..    ..    ",
"..    ..            ..    ..    ",
"    ..        ..    ..  ..    ..",
"    ..        ..    ..  ..    ..",
"    ..    ........  ......    ..",
"    ..    ........  ......    ..",
"  ....  ....................  ..",
"  ....  ....................  ..",
"............XXXXXXXXXXXXXXXX....",
"............XXXXXXXXXXXXXXXX....",
"XX......ooooooXXXXXXXXXXXXXXXXXX",
"XX......ooooooXXXXXXXXXXXXXXXXXX",
"ooooooooooooooooooooXXXXXXXXoooo",
"ooooooooooooooooooooXXXXXXXXoooo",
"XXXXXXXXXXXXXXoooooooooooooooooo",
"XXXXXXXXXXXXXXoooooooooooooooooo",
"XXXXXXXXXXXXXXXXXXXXXXXXXXXXXXXX",
"XXXXXXXXXXXXXXXXXXXXXXXXXXXXXXXX",
"XXXXXXXXXXXXXXXXXXXXXXooooooXXXX",
"XXXXXXXXXXXXXXXXXXXXXXooooooXXXX",
"XXXXXXooooooXXXXXXXXXXXXXXXXXXXX",
"XXXXXXooooooXXXXXXXXXXXXXXXXXXXX",
"XXooooooooooooooXXooXXXXXXooooXX",
"XXooooooooooooooXXooXXXXXXooooXX",
"ooooooXXXXXXXXXXXXXXXXXXXXXXXXXX",
"ooooooXXXXXXXXXXXXXXXXXXXXXXXXXX",
"XXXXXXXXXXXXXXXXXXXXXXXXXXXXXXXX",
"XXXXXXXXXXXXXXXXXXXXXXXXXXXXXXXX",
"XXXXXXXXXXXXXXooooooooooXXXXXXXX",
"XXXXXXXXXXXXXXooooooooooXXXXXXXX"
};
