/* XPM */
static char *tile0241694789386[] = {
/* columns rows colors chars-per-pixel */
"32 32 5 1 ",
"  c #FFC792",
". c #FFB77C",
"X c #FA8B58",
"o c #FFA767",
"O c white",
/* pixels */
"                  ..XXooooooXXoo",
"                  ..XXooooooXXoo",
"                  XXXXXXoooooooo",
"                  XXXXXXoooooooo",
"                ..XXXXXXXXXXoooo",
"                ..XXXXXXXXXXoooo",
"                ..XXXXooooooXXoo",
"                ..XXXXooooooXXoo",
"                ....XXXXooooooXX",
"                ....XXXXooooooXX",
"                ....XXXXXXoooooo",
"                ....XXXXXXoooooo",
"                  ....XXXXoooooo",
"                  ....XXXXoooooo",
"                  ....XXXXXXoooo",
"                  ....XXXXXXoooo",
"                    ..XXXXoooooo",
"                    ..XXXXoooooo",
"                    ..XXooooooXX",
"                    ..XXooooooXX",
"                    ..XXXXXXXXoo",
"                    ..XXXXXXXXoo",
"                    ..XXXXoooooo",
"                    ..XXXXoooooo",
"                    ..XXXXXXoooo",
"                    ..XXXXXXoooo",
"                    ..XXooooXXoo",
"                    ..XXooooXXoo",
"                    XXoooooooooo",
"                    XXoooooooooo",
"                  ..XXXXXXXXoooo",
"                  ..XXXXXXXXoooo"
};
