/* XPM */
static char *tile1761694789388[] = {
/* columns rows colors chars-per-pixel */
"32 32 5 1 ",
"  c #ABBA4F",
". c #A99E40",
"X c #C4755D",
"o c #DC8163",
"O c white",
/* pixels */
"    ........XXXXXXXXXXXXXXXXXXoo",
"    ........XXXXXXXXXXXXXXXXXXoo",
"          ..ooooooooooXXXXXXXXXX",
"          ..ooooooooooXXXXXXXXXX",
"  ..    ..ooooooXXXXoooooooooooo",
"  ..    ..ooooooXXXXoooooooooooo",
"    ......oooooooooooooooooooooo",
"    ......oooooooooooooooooooooo",
"      ....ooooooooooXXXXoooooooo",
"      ....ooooooooooXXXXoooooooo",
"  ........oooooooooooooooooooooo",
"  ........oooooooooooooooooooooo",
"..      ..XXXXoooooooooooooooooo",
"..      ..XXXXoooooooooooooooooo",
"      ....XXXXXXXXXXooooooooXXXX",
"      ....XXXXXXXXXXooooooooXXXX",
"    ......ooooXXXXXXXXXXXXXXXXXX",
"    ......ooooXXXXXXXXXXXXXXXXXX",
"      ....oooooooooooooooooooooo",
"      ....oooooooooooooooooooooo",
"      ......ooooooooooXXXXXXoooo",
"      ......ooooooooooXXXXXXoooo",
"..      ....oooooooooooooooooooo",
"..      ....oooooooooooooooooooo",
"  ..      ....XXooXXooooooXXXXoo",
"  ..      ....XXooXXooooooXXXXoo",
"    ..........oooooooooooooooooo",
"    ..........oooooooooooooooooo",
"        ......oooooooooooooooooo",
"        ......oooooooooooooooooo",
"  ..      ..ooXXXXXXXXXXoooooooo",
"  ..      ..ooXXXXXXXXXXoooooooo"
};
