/* XPM */
static char *_708ae2039c745849da172dbee3d889fo7DaUnz256KJvf8l[] = {
/* columns rows colors chars-per-pixel */
"56 60 5 1 ",
"  c None",
". c #192121",
"X c #9C5144",
"o c #F06643",
"O c #FFA767",
/* pixels */
"        ........................................        ",
"        ........................................        ",
"        ........................................        ",
"        ........................................        ",
"    ....OOOOOOOOOOOOOOOOOOOOOOOOOOOOOOOOOOOOOOOO....    ",
"    ....OOOOOOOOOOOOOOOOOOOOOOOOOOOOOOOOOOOOOOOO....    ",
"    ....OOOOOOOOOOOOOOOOOOOOOOOOOOOOOOOOOOOOOOOO....    ",
"    ....OOOOOOOOOOOOOOOOOOOOOOOOOOOOOOOOOOOOOOOO....    ",
"....OOOOOOOOooooooooooooooooooooooooooooooooOOOOOOOO....",
"....OOOOOOOOooooooooooooooooooooooooooooooooOOOOOOOO....",
"....OOOOOOOOooooooooooooooooooooooooooooooooOOOOOOOO....",
"....OOOOOOOOooooooooooooooooooooooooooooooooOOOOOOOO....",
"....OOOOooooooooOOOOooooOOOOooooOOOOooooOOOOooooOOOO....",
"....OOOOooooooooOOOOooooOOOOooooOOOOooooOOOOooooOOOO....",
"....OOOOooooooooOOOOooooOOOOooooOOOOooooOOOOooooOOOO....",
"....OOOOooooooooOOOOooooOOOOooooOOOOooooOOOOooooOOOO....",
"....OOOOooooooooOOOOooooOOOOooooOOOOooooOOOOooooOOOO....",
"....OOOOooooooooOOOOooooOOOOooooOOOOooooOOOOooooOOOO....",
"....OOOOooooooooOOOOooooOOOOooooOOOOooooOOOOooooOOOO....",
"....OOOOooooooooOOOOooooOOOOooooOOOOooooOOOOooooOOOO....",
"....OOOOooooooooOOOOooooOOOOooooOOOOooooOOOOooooOOOO....",
"....OOOOooooooooOOOOooooOOOOooooOOOOooooOOOOooooOOOO....",
"....OOOOooooooooOOOOooooOOOOooooOOOOooooOOOOooooOOOO....",
"....OOOOooooooooOOOOooooOOOOooooOOOOooooOOOOooooOOOO....",
"....OOOOooooooooOOOOooooOOOOooooOOOOooooOOOOooooOOOO....",
"....OOOOooooooooOOOOooooOOOOooooOOOOooooOOOOooooOOOO....",
"....OOOOooooooooOOOOooooOOOOooooOOOOooooOOOOooooOOOO....",
"....OOOOooooooooOOOOooooOOOOooooOOOOooooOOOOooooOOOO....",
"....OOOOOOOOooooooooooooooooooooooooooooooooOOOOOOOO....",
"....OOOOOOOOooooooooooooooooooooooooooooooooOOOOOOOO....",
"....OOOOOOOOooooooooooooooooooooooooooooooooOOOOOOOO....",
"....OOOOOOOOooooooooooooooooooooooooooooooooOOOOOOOO....",
"....ooooOOOOOOOOOOOOOOOOOOOOOOOOOOOOOOOOOOOOOOOOoooo....",
"....ooooOOOOOOOOOOOOOOOOOOOOOOOOOOOOOOOOOOOOOOOOoooo....",
"....ooooOOOOOOOOOOOOOOOOOOOOOOOOOOOOOOOOOOOOOOOOoooo....",
"....ooooOOOOOOOOOOOOOOOOOOOOOOOOOOOOOOOOOOOOOOOOoooo....",
"....oooooooooooooooooooooooooooooooooooooooooooooooo....",
"....oooooooooooooooooooooooooooooooooooooooooooooooo....",
"....oooooooooooooooooooooooooooooooooooooooooooooooo....",
"....oooooooooooooooooooooooooooooooooooooooooooooooo....",
"....ooooooooXXXXXXXXXXXXXXXXXXXXXXXXXXXXXXXXoooooooo....",
"....ooooooooXXXXXXXXXXXXXXXXXXXXXXXXXXXXXXXXoooooooo....",
"....ooooooooXXXXXXXXXXXXXXXXXXXXXXXXXXXXXXXXoooooooo....",
"....ooooooooXXXXXXXXXXXXXXXXXXXXXXXXXXXXXXXXoooooooo....",
"....ooooXXXXXXXXooooXXXXooooXXXXooooXXXXooooXXXXoooo....",
"....ooooXXXXXXXXooooXXXXooooXXXXooooXXXXooooXXXXoooo....",
"....ooooXXXXXXXXooooXXXXooooXXXXooooXXXXooooXXXXoooo....",
"....ooooXXXXXXXXooooXXXXooooXXXXooooXXXXooooXXXXoooo....",
"....ooooooooXXXXXXXXXXXXXXXXXXXXXXXXXXXXXXXXoooooooo....",
"....ooooooooXXXXXXXXXXXXXXXXXXXXXXXXXXXXXXXXoooooooo....",
"....ooooooooXXXXXXXXXXXXXXXXXXXXXXXXXXXXXXXXoooooooo....",
"....ooooooooXXXXXXXXXXXXXXXXXXXXXXXXXXXXXXXXoooooooo....",
"XXXXXXXXooooooooooooooooooooooooooooooooooooooooXXXXXXXX",
"XXXXXXXXooooooooooooooooooooooooooooooooooooooooXXXXXXXX",
"XXXXXXXXooooooooooooooooooooooooooooooooooooooooXXXXXXXX",
"XXXXXXXXooooooooooooooooooooooooooooooooooooooooXXXXXXXX",
"    XXXXXXXXXXXXXXXXXXXXXXXXXXXXXXXXXXXXXXXXXXXXXXXX    ",
"    XXXXXXXXXXXXXXXXXXXXXXXXXXXXXXXXXXXXXXXXXXXXXXXX    ",
"    XXXXXXXXXXXXXXXXXXXXXXXXXXXXXXXXXXXXXXXXXXXXXXXX    ",
"    XXXXXXXXXXXXXXXXXXXXXXXXXXXXXXXXXXXXXXXXXXXXXXXX    "
};
