/* XPM */
static char *result[] = {
/* columns rows colors chars-per-pixel */
"64 64 20 1 ",
"  c #170625",
". c #8F3734",
"X c #C52E29",
"o c #C62F29",
"O c #DF433C",
"+ c #E74D27",
"@ c #E74E28",
"# c #E84E28",
"$ c #E0453C",
"% c #F16B33",
"& c #F16C33",
"* c #F16C35",
"= c #F7892E",
"- c #F78A2E",
"; c #FCA144",
": c #FCA045",
"> c #FCA245",
", c #FFCB53",
"< c #FFCC52",
"1 c None",
/* pixels */
"1111111111111111111111111111111111111111111111111111111111111111",
"1111111111111111111111111111111111111111111111111111111111111111",
"1111111111111111111111111111111111111111111111111111111111111111",
"1111111111111111111111111111111111111111111111111111111111111111",
"1111111111111111111111111111111111111111111111111111111111111111",
"1111111111111111111111111111111111111111111111111111111111111111",
"1111111111111111111111111111111111111111111111111111111111111111",
"1111111111111111111111111111111111111111111111111111111111111111",
"111111111111                    11111111111111111111111111111111",
"111111111111                    11111111111111111111111111111111",
"111111111111                    11111111111111111111111111111111",
"111111111111                    11111111111111111111111111111111",
"11111111    ....XXXXXXXXOOOOXXXX    1111111111111111111111111111",
"11111111    ....XXXXXXXXOOOOXXXX    1111111111111111111111111111",
"11111111    ....XXXXXXXXOOOOXXXX    1111111111111111111111111111",
"11111111    ....XXXXXXXXOOOOXXXX    1111111111111111111111111111",
"1111    %%%%****>>>><<<<########XXXX    111111111111111111111111",
"1111    %%%%****>>>><<<<########XXXX    111111111111111111111111",
"1111    %%%%****>>>><<<<########XXXX    111111111111111111111111",
"1111    %%%%****>>>><<<<########XXXX    111111111111111111111111",
"1111    ....########----,,,,OOOO####    111111111111111111111111",
"1111    ....########----,,,,OOOO####    111111111111111111111111",
"1111    ....########----,,,,OOOO####    111111111111111111111111",
"1111    ....########----,,,,OOOO####    111111111111111111111111",
"    %%%%====::::====++++====,,,,OOOO....        1111111111111111",
"    %%%%====::::====++++====,,,,OOOO....        1111111111111111",
"    %%%%====::::====++++====,,,,OOOO....        1111111111111111",
"    %%%%====::::====++++====,,,,OOOO....        1111111111111111",
"    XXXX....    ::::----####;;;;....XXXXooooXXXX    111111111111",
"    XXXX....    ::::----####;;;;....XXXXooooXXXX    111111111111",
"    XXXX....    ::::----####;;;;....XXXXooooXXXX    111111111111",
"    XXXX....    ::::----####;;;;....XXXXooooXXXX    111111111111",
"    ....    1111    ::::XXXX%%%%;;;;XXXX$$$$@@@@XXXX    11111111",
"    ....    1111    ::::XXXX%%%%;;;;XXXX$$$$@@@@XXXX    11111111",
"    ....    1111    ::::XXXX%%%%;;;;XXXX$$$$@@@@XXXX    11111111",
"    ....    1111    ::::XXXX%%%%;;;;XXXX$$$$@@@@XXXX    11111111",
"1111    11111111    %%%%....%%%%****%%%%----::::$$$$XXXX    1111",
"1111    11111111    %%%%....%%%%****%%%%----::::$$$$XXXX    1111",
"1111    11111111    %%%%....%%%%****%%%%----::::$$$$XXXX    1111",
"1111    11111111    %%%%....%%%%****%%%%----::::$$$$XXXX    1111",
"1111111111111111    %%%%####....XXXX++++####,,,,----$$$$....    ",
"1111111111111111    %%%%####....XXXX++++####,,,,----$$$$....    ",
"1111111111111111    %%%%####....XXXX++++####,,,,----$$$$....    ",
"1111111111111111    %%%%####....XXXX++++####,,,,----$$$$....    ",
"11111111111111111111    %%%%====,,,,,,,,----####::::----####    ",
"11111111111111111111    %%%%====,,,,,,,,----####::::----####    ",
"11111111111111111111    %%%%====,,,,,,,,----####::::----####    ",
"11111111111111111111    %%%%====,,,,,,,,----####::::----####    ",
"111111111111111111111111                ,,,,----XXXX----    1111",
"111111111111111111111111                ,,,,----XXXX----    1111",
"111111111111111111111111                ,,,,----XXXX----    1111",
"111111111111111111111111                ,,,,----XXXX----    1111",
"1111111111111111111111111111111111111111    ========    11111111",
"1111111111111111111111111111111111111111    ========    11111111",
"1111111111111111111111111111111111111111    ========    11111111",
"1111111111111111111111111111111111111111    ========    11111111",
"11111111111111111111111111111111111111111111    &&&&    11111111",
"11111111111111111111111111111111111111111111    &&&&    11111111",
"11111111111111111111111111111111111111111111    &&&&    11111111",
"11111111111111111111111111111111111111111111    &&&&    11111111",
"111111111111111111111111111111111111111111111111    111111111111",
"111111111111111111111111111111111111111111111111    111111111111",
"111111111111111111111111111111111111111111111111    111111111111",
"111111111111111111111111111111111111111111111111    111111111111"
};
