/* XPM */
static char *tile0241694787626[] = {
/* columns rows colors chars-per-pixel */
"32 32 6 1 ",
"  c #6CA246",
". c #192121",
"X c #EE2B4E",
"o c #9C5144",
"O c #F06643",
"+ c #F3CC9E",
/* pixels */
"                                ",
"                                ",
"      ....  ......              ",
"      ....  ......              ",
"      ..OO....OO..              ",
"      ..OO....OO..              ",
"      ..OOOO..OO........        ",
"      ..OOOO..OO........        ",
"        ..OO..OO..++++++..      ",
"        ..OO..OO..++++++..      ",
"      ....OOOOOO..OOOOOO++..    ",
"      ....OOOOOO..OOOOOO++..    ",
"    ..XX++++++++++++++++++XX..  ",
"    ..XX++++++++++++++++++XX..  ",
"    ..XX++OO++OO++OOOOOO++XX..  ",
"    ..XX++OO++OO++OOOOOO++XX..  ",
"    ..XXXXOO++OO++++++++XXXX..  ",
"    ..XXXXOO++OO++++++++XXXX..  ",
"    ..ooXXXXXXXXXXXXXXXXXXoo..  ",
"    ..ooXXXXXXXXXXXXXXXXXXoo..  ",
"    ..oooooooooooooooooooooo..  ",
"    ..oooooooooooooooooooooo..  ",
"      ..oooooooooooooooooo..    ",
"      ..oooooooooooooooooo..    ",
"      ......oooooooooo......    ",
"      ......oooooooooo......    ",
"        ..oooooooooooooo..      ",
"        ..oooooooooooooo..      ",
"        oooooooooooooooooo      ",
"        oooooooooooooooooo      ",
"          oooooooooooooo        ",
"          oooooooooooooo        "
};
