/* XPM */
static char *tile0251694787626[] = {
/* columns rows colors chars-per-pixel */
"32 32 6 1 ",
"  c #6CA246",
". c #192121",
"X c #573E52",
"o c #9C5144",
"O c #F06643",
"+ c #F3CC9E",
/* pixels */
"                                ",
"                                ",
"          ............          ",
"          ............          ",
"        ..OOOOOOOOOOOO..        ",
"        ..OOOOOOOOOOOO..        ",
"      ..++OOOOOOOOOOOOOO..      ",
"      ..++OOOOOOOOOOOOOO..      ",
"      ..++OOOOOOOOOOOOOO..      ",
"      ..++OOOOOOOOOOOOOO..      ",
"      ..++OOOOOOOOOOOOOO..      ",
"      ..++OOOOOOOOOOOOOO..      ",
"      ..oo++++++OOOOOOoo..      ",
"      ..oo++++++OOOOOOoo..      ",
"      ..XXOOooXXooXXoooo..      ",
"      ..XXOOooXXooXXoooo..      ",
"      ..ooOOooXXooXXoooo..      ",
"      ..ooOOooXXooXXoooo..      ",
"      ..ooOOooXXooXXoooo..      ",
"      ..ooOOooXXooXXoooo..      ",
"      ..ooooooooooXXoooo..      ",
"      ..ooooooooooXXoooo..      ",
"      ..ooooooooooXXoooo..      ",
"      ..ooooooooooXXoooo..      ",
"      ..ooooooXXooXXoooo..      ",
"      ..ooooooXXooXXoooo..      ",
"        ..ooooXXoooooo..        ",
"        ..ooooXXoooooo..        ",
"                                ",
"                                ",
"                                ",
"                                "
};
