/* XPM */
static char *result[] = {
/* columns rows colors chars-per-pixel */
"64 64 12 1 ",
"  c #170625",
". c #1C1030",
"X c #811910",
"o c #AE3218",
"O c #BF461E",
"+ c #D76E1B",
"@ c #D77128",
"# c #A67059",
"$ c #E7A235",
"% c #CF9474",
"& c #E9AF89",
"* c None",
/* pixels */
"****************************************************************",
"****************************************************************",
"****************************************************************",
"****************************************************************",
"************                ********                ************",
"************                ********                ************",
"************                ********                ************",
"************                ********                ************",
"********    ooooOOOOOOOOoooo    XXXXooooooooOOOOoooo    ********",
"********    ooooOOOOOOOOoooo    XXXXooooooooOOOOoooo    ********",
"********    ooooOOOOOOOOoooo    XXXXooooooooOOOOoooo    ********",
"********    ooooOOOOOOOOoooo    XXXXooooooooOOOOoooo    ********",
"****    OOOO@@@@@@@@&&&&@@@@OOOOooooXXXXoooooooo####oooo    ****",
"****    OOOO@@@@@@@@&&&&@@@@OOOOooooXXXXoooooooo####oooo    ****",
"****    OOOO@@@@@@@@&&&&@@@@OOOOooooXXXXoooooooo####oooo    ****",
"****    OOOO@@@@@@@@&&&&@@@@OOOOooooXXXXoooooooo####oooo    ****",
"****    @@@@OOOO        ooooOOOO####ooooXXXX    ooooOOOO    ****",
"****    @@@@OOOO        ooooOOOO####ooooXXXX    ooooOOOO    ****",
"****    @@@@OOOO        ooooOOOO####ooooXXXX    ooooOOOO    ****",
"****    @@@@OOOO        ooooOOOO####ooooXXXX    ooooOOOO    ****",
"    ####@@@@OOOO    ****XXXXXXXXOOOOOOOO    ****    ++++oooo    ",
"    ####@@@@OOOO    ****XXXXXXXXOOOOOOOO    ****    ++++oooo    ",
"    ####@@@@OOOO    ****XXXXXXXXOOOOOOOO    ****    ++++oooo    ",
"    ####@@@@OOOO    ****XXXXXXXXOOOOOOOO    ****    ++++oooo    ",
"    OOOO$$$$    ****    OOOOOOOOooooOOOO    ****    $$$$####    ",
"    OOOO$$$$    ****    OOOOOOOOooooOOOO    ****    $$$$####    ",
"    OOOO$$$$    ****    OOOOOOOOooooOOOO    ****    $$$$####    ",
"    OOOO$$$$    ****    OOOOOOOOooooOOOO    ****    $$$$####    ",
"    @@@@$$$$    ****    ++++$$$$OOOOXXXX********    $$$$@@@@    ",
"    @@@@$$$$    ****    ++++$$$$OOOOXXXX********    $$$$@@@@    ",
"    @@@@$$$$    ****    ++++$$$$OOOOXXXX********    $$$$@@@@    ",
"    @@@@$$$$    ****    ++++$$$$OOOOXXXX********    $$$$@@@@    ",
"    OOOO++++    ****XXXXooooOOOO$$$$OOOO    ****    $$$$OOOO    ",
"    OOOO++++    ****XXXXooooOOOO$$$$OOOO    ****    $$$$OOOO    ",
"    OOOO++++    ****XXXXooooOOOO$$$$OOOO    ****    $$$$OOOO    ",
"    OOOO++++    ****XXXXooooOOOO$$$$OOOO    ****    $$$$OOOO    ",
"    OOOO&&&&OOOO    OOOO++++ooooOOOO++++OOOO    OOOO++++OOOO    ",
"    OOOO&&&&OOOO    OOOO++++ooooOOOO++++OOOO    OOOO++++OOOO    ",
"    OOOO&&&&OOOO    OOOO++++ooooOOOO++++OOOO    OOOO++++OOOO    ",
"    OOOO&&&&OOOO    OOOO++++ooooOOOO++++OOOO    OOOO++++OOOO    ",
"    ooooOOOOXXXXOOOO++++OOOO    XXXX&&&&++++OOOOXXXXOOOOoooo    ",
"    ooooOOOOXXXXOOOO++++OOOO    XXXX&&&&++++OOOOXXXXOOOOoooo    ",
"    ooooOOOOXXXXOOOO++++OOOO    XXXX&&&&++++OOOOXXXXOOOOoooo    ",
"    ooooOOOOXXXXOOOO++++OOOO    XXXX&&&&++++OOOOXXXXOOOOoooo    ",
"****    OOOOoooo####OOOO    ********    OOOOOOOOoooo%%%%    ****",
"****    OOOOoooo####OOOO    ********    OOOOOOOOoooo%%%%    ****",
"****    OOOOoooo####OOOO    ********    OOOOOOOOoooo%%%%    ****",
"****    OOOOoooo####OOOO    ********    OOOOOOOOoooo%%%%    ****",
"****    XXXXooooooooXXXXOOOO        OOOOXXXXooooooooXXXX    ****",
"****    XXXXooooooooXXXXOOOO        OOOOXXXXooooooooXXXX    ****",
"****    XXXXooooooooXXXXOOOO        OOOOXXXXooooooooXXXX    ****",
"****    XXXXooooooooXXXXOOOO        OOOOXXXXooooooooXXXX    ****",
"********    ####OOOO++++++++$$$$$$$$++++&&&&ooooXXXX    ********",
"********    ####OOOO++++++++$$$$$$$$++++&&&&ooooXXXX    ********",
"********    ####OOOO++++++++$$$$$$$$++++&&&&ooooXXXX    ********",
"********    ####OOOO++++++++$$$$$$$$++++&&&&ooooXXXX    ********",
"************        ooooOOOO++++++++OOOOOOOO        ************",
"************        ooooOOOO++++++++OOOOOOOO        ************",
"************        ooooOOOO++++++++OOOOOOOO        ************",
"************        ooooOOOO++++++++OOOOOOOO        ************",
"********************                        ....****************",
"********************                        ....****************",
"********************                        ....****************",
"********************                        ....****************"
};
