/* XPM */
static char *tile1831694787647[] = {
/* columns rows colors chars-per-pixel */
"32 32 5 1 ",
"  c #6CA246",
". c #192121",
"X c #8B9680",
"o c #F3CC9E",
"O c white",
/* pixels */
"                                ",
"                                ",
"                                ",
"                                ",
"    oooooooooooooooooooooooo    ",
"    oooooooooooooooooooooooo    ",
"  oooooooooooooooooooooooooooo  ",
"  oooooooooooooooooooooooooooo  ",
"  oo........................oo  ",
"  oo........................oo  ",
"  ..OOOOOO....................  ",
"  ..OOOOOO....................  ",
"  ..OOOOOO....................  ",
"  ..OOOOOO....................  ",
"  ..OOOOOOXXoooooo............  ",
"  ..OOOOOOXXoooooo............  ",
"  ..OOOOOOXXoooooo............  ",
"  ..OOOOOOXXoooooo............  ",
"  ..OOOOOOXXoooooo............  ",
"  ..OOOOOOXXoooooo............  ",
"  ..OOOOOOXXooooooXXXXXX......  ",
"  ..OOOOOOXXooooooXXXXXX......  ",
"  ..OOOOOOXXooooooXXXXXX......  ",
"  ..OOOOOOXXooooooXXXXXX......  ",
"  ..OOOOOOXXooooooXXXXXX......  ",
"  ..OOOOOOXXooooooXXXXXX......  ",
"  ..XXXXXXXXooooooXXXXXX......  ",
"  ..XXXXXXXXooooooXXXXXX......  ",
"    ........................    ",
"    ........................    ",
"                                ",
"                                "
};
