/* XPM */
static char *tile1341694787641[] = {
/* columns rows colors chars-per-pixel */
"32 32 5 1 ",
"  c #192121",
". c #F06643",
"X c #9C5144",
"o c #3E3944",
"O c white",
/* pixels */
"  ..XXoo........................",
"  ..XXoo........................",
"  XXoo..XXXXXXXXXXXXXXXXXXXXXXXX",
"  XXoo..XXXXXXXXXXXXXXXXXXXXXXXX",
"  XXooXXXXooooXXXXooooXXXXXXXXXX",
"  XXooXXXXooooXXXXooooXXXXXXXXXX",
"  XXooXXXX  XXXXXXXX  XXXXXXXXXX",
"  XXooXXXX  XXXXXXXX  XXXXXXXXXX",
"  XXooXXXXoo        ooXXXXXXXXXX",
"  XXooXXXXoo        ooXXXXXXXXXX",
"  XXooXXXXXXXXXXXXXXXXXXXXXXXXXX",
"  XXooXXXXXXXXXXXXXXXXXXXXXXXXXX",
"  XXoooooooooooooooooooooooooooo",
"  XXoooooooooooooooooooooooooooo",
"  XXXXXXXXXXXXXXXXXXXXXXXXXXXXXX",
"  XXXXXXXXXXXXXXXXXXXXXXXXXXXXXX",
"  XXXXoooooooooooooooooooooooooo",
"  XXXXoooooooooooooooooooooooooo",
"  XXooXXXXXXXXXXXXXXXXXXXXXXXXXX",
"  XXooXXXXXXXXXXXXXXXXXXXXXXXXXX",
"  XXooXXXXooooXXXXooooXXXXXXXXXX",
"  XXooXXXXooooXXXXooooXXXXXXXXXX",
"  XXooXXXX  XXXXXXXX  XXXXXXXXXX",
"  XXooXXXX  XXXXXXXX  XXXXXXXXXX",
"  XXooXXXXoo        ooXXXXXXXXXX",
"  XXooXXXXoo        ooXXXXXXXXXX",
"  XXooXXXXXXXXXXXXXXXXXXXXXXXXXX",
"  XXooXXXXXXXXXXXXXXXXXXXXXXXXXX",
"  XXoooooooooooooooooooooooooooo",
"  XXoooooooooooooooooooooooooooo",
"  XXXXXXXXXXXXXXXXXXXXXXXXXXXXXX",
"  XXXXXXXXXXXXXXXXXXXXXXXXXXXXXX"
};
