/* XPM */
static char *tile0231694787626[] = {
/* columns rows colors chars-per-pixel */
"32 32 4 1 ",
"  c #6CA246",
". c #192121",
"X c #FFA767",
"o c #F3CC9E",
/* pixels */
"                                ",
"                                ",
"                                ",
"                                ",
"                                ",
"                                ",
"                                ",
"                                ",
"                                ",
"                                ",
"                                ",
"                                ",
"                                ",
"                                ",
"                                ",
"                                ",
"                                ",
"                                ",
"                                ",
"                                ",
"                                ",
"                                ",
"................................",
"................................",
"..ooooXXooooXXooooXXooooXXoooo..",
"..ooooXXooooXXooooXXooooXXoooo..",
"..ooooXXooooXXooooXXooooXXoooo..",
"..ooooXXooooXXooooXXooooXXoooo..",
"..ooooXXooooXXooooXXooooXXoooo..",
"..ooooXXooooXXooooXXooooXXoooo..",
"..ooooXXooooXXooooXXooooXXoooo..",
"..ooooXXooooXXooooXXooooXXoooo.."
};
