/* XPM */
static char *result[] = {
/* columns rows colors chars-per-pixel */
"64 64 17 1 ",
"  c #170625",
". c #1C1030",
"X c #503117",
"o c #4F4C09",
"O c #714A14",
"+ c #685611",
"@ c #5F6408",
"# c #667306",
"$ c #776616",
"% c #7F5F20",
"& c #80591E",
"* c #71830A",
"= c #84AB18",
"- c #A68937",
"; c #BDA93F",
": c #FFF4DF",
"> c None",
/* pixels */
">>>>>>>>>>>>>>>>>>>>>>>>>>>>>>>>>>>>>>>>        >>>>>>>>>>>>>>>>",
">>>>>>>>>>>>>>>>>>>>>>>>>>>>>>>>>>>>>>>>        >>>>>>>>>>>>>>>>",
">>>>>>>>>>>>>>>>>>>>>>>>>>>>>>>>>>>>>>>>        >>>>>>>>>>>>>>>>",
">>>>>>>>>>>>>>>>>>>>>>>>>>>>>>>>>>>>>>>>        >>>>>>>>>>>>>>>>",
">>>>>>>>>>>>>>>>>>>>>>>>    >>>>>>>>    &&&&----    >>>>>>>>>>>>",
">>>>>>>>>>>>>>>>>>>>>>>>    >>>>>>>>    &&&&----    >>>>>>>>>>>>",
">>>>>>>>>>>>>>>>>>>>>>>>    >>>>>>>>    &&&&----    >>>>>>>>>>>>",
">>>>>>>>>>>>>>>>>>>>>>>>    >>>>>>>>    &&&&----    >>>>>>>>>>>>",
">>>>>>>>>>>>>>>>>>>>>>>>>>>>        OOOO    &&&&;;;;    >>>>>>>>",
">>>>>>>>>>>>>>>>>>>>>>>>>>>>        OOOO    &&&&;;;;    >>>>>>>>",
">>>>>>>>>>>>>>>>>>>>>>>>>>>>        OOOO    &&&&;;;;    >>>>>>>>",
">>>>>>>>>>>>>>>>>>>>>>>>>>>>        OOOO    &&&&;;;;    >>>>>>>>",
">>>>>>>>>>>>>>>>>>>>>>>>>>>>>>>>>>>>    >>>>    ----    >>>>>>>>",
">>>>>>>>>>>>>>>>>>>>>>>>>>>>>>>>>>>>    >>>>    ----    >>>>>>>>",
">>>>>>>>>>>>>>>>>>>>>>>>>>>>>>>>>>>>    >>>>    ----    >>>>>>>>",
">>>>>>>>>>>>>>>>>>>>>>>>>>>>>>>>>>>>    >>>>    ----    >>>>>>>>",
">>>>>>>>>>>>>>>>>>>>>>>>>>>>>>>>            OOOO&&&&    >>>>>>>>",
">>>>>>>>>>>>>>>>>>>>>>>>>>>>>>>>            OOOO&&&&    >>>>>>>>",
">>>>>>>>>>>>>>>>>>>>>>>>>>>>>>>>            OOOO&&&&    >>>>>>>>",
">>>>>>>>>>>>>>>>>>>>>>>>>>>>>>>>            OOOO&&&&    >>>>>>>>",
">>>>>>>>>>>>>>>>>>>>            XXXXXXXX&&&&----    >>>>>>>>>>>>",
">>>>>>>>>>>>>>>>>>>>            XXXXXXXX&&&&----    >>>>>>>>>>>>",
">>>>>>>>>>>>>>>>>>>>            XXXXXXXX&&&&----    >>>>>>>>>>>>",
">>>>>>>>>>>>>>>>>>>>            XXXXXXXX&&&&----    >>>>>>>>>>>>",
">>>>>>>>>>>>>>>>    ooooooooooooOOOO;;;;----    >>>>>>>>>>>>>>>>",
">>>>>>>>>>>>>>>>    ooooooooooooOOOO;;;;----    >>>>>>>>>>>>>>>>",
">>>>>>>>>>>>>>>>    ooooooooooooOOOO;;;;----    >>>>>>>>>>>>>>>>",
">>>>>>>>>>>>>>>>    ooooooooooooOOOO;;;;----    >>>>>>>>>>>>>>>>",
">>>>>>>>>>>>    oooo####::::====oooooooo%%%%    >>>>>>>>>>>>>>>>",
">>>>>>>>>>>>    oooo####::::====oooooooo%%%%    >>>>>>>>>>>>>>>>",
">>>>>>>>>>>>    oooo####::::====oooooooo%%%%    >>>>>>>>>>>>>>>>",
">>>>>>>>>>>>    oooo####::::====oooooooo%%%%    >>>>>>>>>>>>>>>>",
">>>>>>>>    oooo####====********####oooo    >>>>>>>>>>>>>>>>>>>>",
">>>>>>>>    oooo####====********####oooo    >>>>>>>>>>>>>>>>>>>>",
">>>>>>>>    oooo####====********####oooo    >>>>>>>>>>>>>>>>>>>>",
">>>>>>>>    oooo####====********####oooo    >>>>>>>>>>>>>>>>>>>>",
">>>>>>>>    ####********########@@@@oooo    >>>>>>>>>>>>>>>>>>>>",
">>>>>>>>    ####********########@@@@oooo    >>>>>>>>>>>>>>>>>>>>",
">>>>>>>>    ####********########@@@@oooo    >>>>>>>>>>>>>>>>>>>>",
">>>>>>>>    ####********########@@@@oooo    >>>>>>>>>>>>>>>>>>>>",
">>>>    oooo####****########@@@@oooo++++    >>>>>>>>>>>>>>>>>>>>",
">>>>    oooo####****########@@@@oooo++++    >>>>>>>>>>>>>>>>>>>>",
">>>>    oooo####****########@@@@oooo++++    >>>>>>>>>>>>>>>>>>>>",
">>>>    oooo####****########@@@@oooo++++    >>>>>>>>>>>>>>>>>>>>",
">>>>    oooo****########@@@@oooo$$$$    >>>>>>>>>>>>>>>>>>>>>>>>",
">>>>    oooo****########@@@@oooo$$$$    >>>>>>>>>>>>>>>>>>>>>>>>",
">>>>    oooo****########@@@@oooo$$$$    >>>>>>>>>>>>>>>>>>>>>>>>",
">>>>    oooo****########@@@@oooo$$$$    >>>>>>>>>>>>>>>>>>>>>>>>",
"    oooo########@@@@@@@@oooo++++    >>>>>>>>>>>>>>>>>>>>>>>>>>>>",
"    oooo########@@@@@@@@oooo++++    >>>>>>>>>>>>>>>>>>>>>>>>>>>>",
"    oooo########@@@@@@@@oooo++++    >>>>>>>>>>>>>>>>>>>>>>>>>>>>",
"    oooo########@@@@@@@@oooo++++    >>>>>>>>>>>>>>>>>>>>>>>>>>>>",
"    oooo@@@@@@@@oooooooo        >>>>>>>>>>>>>>>>>>>>>>>>>>>>>>>>",
"    oooo@@@@@@@@oooooooo        >>>>>>>>>>>>>>>>>>>>>>>>>>>>>>>>",
"    oooo@@@@@@@@oooooooo        >>>>>>>>>>>>>>>>>>>>>>>>>>>>>>>>",
"    oooo@@@@@@@@oooooooo        >>>>>>>>>>>>>>>>>>>>>>>>>>>>>>>>",
"    oooooooooooo        >>>>>>>>>>>>>>>>>>>>>>>>>>>>>>>>>>>>>>>>",
"    oooooooooooo        >>>>>>>>>>>>>>>>>>>>>>>>>>>>>>>>>>>>>>>>",
"    oooooooooooo        >>>>>>>>>>>>>>>>>>>>>>>>>>>>>>>>>>>>>>>>",
"    oooooooooooo        >>>>>>>>>>>>>>>>>>>>>>>>>>>>>>>>>>>>>>>>",
">>>>            ....>>>>>>>>>>>>>>>>>>>>>>>>>>>>>>>>>>>>>>>>>>>>",
">>>>            ....>>>>>>>>>>>>>>>>>>>>>>>>>>>>>>>>>>>>>>>>>>>>",
">>>>            ....>>>>>>>>>>>>>>>>>>>>>>>>>>>>>>>>>>>>>>>>>>>>",
">>>>            ....>>>>>>>>>>>>>>>>>>>>>>>>>>>>>>>>>>>>>>>>>>>>"
};
