/* XPM */
static char *result[] = {
/* columns rows colors chars-per-pixel */
"64 64 13 1 ",
"  c #170625",
". c #1C1030",
"X c #1C1130",
"o c #503612",
"O c #694714",
"+ c #7E5D13",
"@ c #635B26",
"# c #796F36",
"$ c #A67A0E",
"% c #C19111",
"& c #938A4F",
"* c #B7B271",
"= c None",
/* pixels */
"============================================        ============",
"============================================        ============",
"============================================        ============",
"============================================        ============",
"========================================    oooooooo        ====",
"========================================    oooooooo        ====",
"========================================    oooooooo        ====",
"========================================    oooooooo        ====",
"====================================    OOOOooooOOOOoooooooo    ",
"====================================    OOOOooooOOOOoooooooo    ",
"====================================    OOOOooooOOOOoooooooo    ",
"====================================    OOOOooooOOOOoooooooo    ",
"================================    ooooooooOOOOooooOOOOoooo    ",
"================================    ooooooooOOOOooooOOOOoooo    ",
"================================    ooooooooOOOOooooOOOOoooo    ",
"================================    ooooooooOOOOooooOOOOoooo    ",
"================================    oooo++++oooooooo@@@@oooo    ",
"================================    oooo++++oooooooo@@@@oooo    ",
"================================    oooo++++oooooooo@@@@oooo    ",
"================================    oooo++++oooooooo@@@@oooo    ",
"============================    oooooooo$$$$++++oooo####OOOO    ",
"============================    oooooooo$$$$++++oooo####OOOO    ",
"============================    oooooooo$$$$++++oooo####OOOO    ",
"============================    oooooooo$$$$++++oooo####OOOO    ",
"============================    oooo$$$$ooooOOOO####ooooOOOO    ",
"============================    oooo$$$$ooooOOOO####ooooOOOO    ",
"============================    oooo$$$$ooooOOOO####ooooOOOO    ",
"============================    oooo$$$$ooooOOOO####ooooOOOO    ",
"========================    oooo++++%%%%++++oooo&&&&OOOO    ====",
"========================    oooo++++%%%%++++oooo&&&&OOOO    ====",
"========================    oooo++++%%%%++++oooo&&&&OOOO    ====",
"========================    oooo++++%%%%++++oooo&&&&OOOO    ====",
"================        oooo++++OOOO++++oooo&&&&ooooOOOO    ====",
"================        oooo++++OOOO++++oooo&&&&ooooOOOO    ====",
"================        oooo++++OOOO++++oooo&&&&ooooOOOO    ====",
"================        oooo++++OOOO++++oooo&&&&ooooOOOO    ====",
"========        ooooooooOOOO%%%%ooooOOOOoooo****oooo    ========",
"========        ooooooooOOOO%%%%ooooOOOOoooo****oooo    ========",
"========        ooooooooOOOO%%%%ooooOOOOoooo****oooo    ========",
"========        ooooooooOOOO%%%%ooooOOOOoooo****oooo    ========",
"====    ooooooooOOOO++++%%%%ooooOOOOoooo&&&&ooooOOOO    ========",
"====    ooooooooOOOO++++%%%%ooooOOOOoooo&&&&ooooOOOO    ========",
"====    ooooooooOOOO++++%%%%ooooOOOOoooo&&&&ooooOOOO    ========",
"====    ooooooooOOOO++++%%%%ooooOOOOoooo&&&&ooooOOOO    ========",
"    ooooOOOO++++ooooOOOO++++OOOO####++++ooooOOOO    ============",
"    ooooOOOO++++ooooOOOO++++OOOO####++++ooooOOOO    ============",
"    ooooOOOO++++ooooOOOO++++OOOO####++++ooooOOOO    ============",
"    ooooOOOO++++ooooOOOO++++OOOO####++++ooooOOOO    ============",
"    OOOOooooOOOO$$$$oooooooo####ooooOOOOoooo    ================",
"    OOOOooooOOOO$$$$oooooooo####ooooOOOOoooo    ================",
"    OOOOooooOOOO$$$$oooooooo####ooooOOOOoooo    ================",
"    OOOOooooOOOO$$$$oooooooo####ooooOOOOoooo    ================",
"    ooooOOOOooooooooOOOOooooooooOOOO        ====================",
"    ooooOOOOooooooooOOOOooooooooOOOO        ====================",
"    ooooOOOOooooooooOOOOooooooooOOOO        ====================",
"    ooooOOOOooooooooOOOOooooooooOOOO        ====================",
"====    ooooooooOOOOoooooooo        ============================",
"====    ooooooooOOOOoooooooo        ============================",
"====    ooooooooOOOOoooooooo        ============================",
"====    ooooooooOOOOoooooooo        ============================",
"========                    XXXX....============================",
"========                    XXXX....============================",
"========                    XXXX....============================",
"========                    XXXX....============================"
};
