/* XPM */
static char *result[] = {
/* columns rows colors chars-per-pixel */
"64 64 9 1 ",
"  c #170625",
". c #8B0412",
"X c #921C23",
"o c #A7282F",
"O c #BB403F",
"+ c #C86065",
"@ c #D57175",
"# c #FFA18F",
"$ c None",
/* pixels */
"$$$$$$$$$$$$$$$$$$$$$$$$$$$$$$$$$$$$$$$$$$$$$$$$$$$$$$$$$$$$$$$$",
"$$$$$$$$$$$$$$$$$$$$$$$$$$$$$$$$$$$$$$$$$$$$$$$$$$$$$$$$$$$$$$$$",
"$$$$$$$$$$$$$$$$$$$$$$$$$$$$$$$$$$$$$$$$$$$$$$$$$$$$$$$$$$$$$$$$",
"$$$$$$$$$$$$$$$$$$$$$$$$$$$$$$$$$$$$$$$$$$$$$$$$$$$$$$$$$$$$$$$$",
"$$$$$$$$$$$$$$$$$$$$$$$$$$$$$$$$$$$$$$$$$$$$$$$$$$$$$$$$$$$$$$$$",
"$$$$$$$$$$$$$$$$$$$$$$$$$$$$$$$$$$$$$$$$$$$$$$$$$$$$$$$$$$$$$$$$",
"$$$$$$$$$$$$$$$$$$$$$$$$$$$$$$$$$$$$$$$$$$$$$$$$$$$$$$$$$$$$$$$$",
"$$$$$$$$$$$$$$$$$$$$$$$$$$$$$$$$$$$$$$$$$$$$$$$$$$$$$$$$$$$$$$$$",
"$$$$$$$$$$$$$$$$$$$$$$$$                        $$$$$$$$$$$$$$$$",
"$$$$$$$$$$$$$$$$$$$$$$$$                        $$$$$$$$$$$$$$$$",
"$$$$$$$$$$$$$$$$$$$$$$$$                        $$$$$$$$$$$$$$$$",
"$$$$$$$$$$$$$$$$$$$$$$$$                        $$$$$$$$$$$$$$$$",
"$$$$$$$$$$$$$$$$$$$$    ....ooooooooooooooooXXXX    $$$$$$$$$$$$",
"$$$$$$$$$$$$$$$$$$$$    ....ooooooooooooooooXXXX    $$$$$$$$$$$$",
"$$$$$$$$$$$$$$$$$$$$    ....ooooooooooooooooXXXX    $$$$$$$$$$$$",
"$$$$$$$$$$$$$$$$$$$$    ....ooooooooooooooooXXXX    $$$$$$$$$$$$",
"$$$$$$$$$$$$        XXXXooooOOOOOOOO++++OOOOoooo....    $$$$$$$$",
"$$$$$$$$$$$$        XXXXooooOOOOOOOO++++OOOOoooo....    $$$$$$$$",
"$$$$$$$$$$$$        XXXXooooOOOOOOOO++++OOOOoooo....    $$$$$$$$",
"$$$$$$$$$$$$        XXXXooooOOOOOOOO++++OOOOoooo....    $$$$$$$$",
"$$$$$$$$    ....XXXXoooo....OOOO++++@@@@++++OOOOXXXX    $$$$$$$$",
"$$$$$$$$    ....XXXXoooo....OOOO++++@@@@++++OOOOXXXX    $$$$$$$$",
"$$$$$$$$    ....XXXXoooo....OOOO++++@@@@++++OOOOXXXX    $$$$$$$$",
"$$$$$$$$    ....XXXXoooo....OOOO++++@@@@++++OOOOXXXX    $$$$$$$$",
"$$$$    ....XXXXoooooooo++++XXXX@@@@####@@@@XXXX....    $$$$$$$$",
"$$$$    ....XXXXoooooooo++++XXXX@@@@####@@@@XXXX....    $$$$$$$$",
"$$$$    ....XXXXoooooooo++++XXXX@@@@####@@@@XXXX....    $$$$$$$$",
"$$$$    ....XXXXoooooooo++++XXXX@@@@####@@@@XXXX....    $$$$$$$$",
"$$$$    XXXXooooooooOOOOOOOO@@@@++++@@@@++++OOOOOOOO    $$$$$$$$",
"$$$$    XXXXooooooooOOOOOOOO@@@@++++@@@@++++OOOOOOOO    $$$$$$$$",
"$$$$    XXXXooooooooOOOOOOOO@@@@++++@@@@++++OOOOOOOO    $$$$$$$$",
"$$$$    XXXXooooooooOOOOOOOO@@@@++++@@@@++++OOOOOOOO    $$$$$$$$",
"$$$$    ....XXXXooooooooOOOOOOOO++++++++OOOOoooo....    $$$$$$$$",
"$$$$    ....XXXXooooooooOOOOOOOO++++++++OOOOoooo....    $$$$$$$$",
"$$$$    ....XXXXooooooooOOOOOOOO++++++++OOOOoooo....    $$$$$$$$",
"$$$$    ....XXXXooooooooOOOOOOOO++++++++OOOOoooo....    $$$$$$$$",
"$$$$    oooo....oooo++++XXXXOOOOOOOOooooooooXXXX    $$$$$$$$$$$$",
"$$$$    oooo....oooo++++XXXXOOOOOOOOooooooooXXXX    $$$$$$$$$$$$",
"$$$$    oooo....oooo++++XXXXOOOOOOOOooooooooXXXX    $$$$$$$$$$$$",
"$$$$    oooo....oooo++++XXXXOOOOOOOOooooooooXXXX    $$$$$$$$$$$$",
"$$$$$$$$    XXXXXXXXOOOO....ooooooooXXXXXXXX....    $$$$$$$$$$$$",
"$$$$$$$$    XXXXXXXXOOOO....ooooooooXXXXXXXX....    $$$$$$$$$$$$",
"$$$$$$$$    XXXXXXXXOOOO....ooooooooXXXXXXXX....    $$$$$$$$$$$$",
"$$$$$$$$    XXXXXXXXOOOO....ooooooooXXXXXXXX....    $$$$$$$$$$$$",
"$$$$$$$$$$$$    ....XXXXXXXXXXXXXXXX....        $$$$$$$$$$$$$$$$",
"$$$$$$$$$$$$    ....XXXXXXXXXXXXXXXX....        $$$$$$$$$$$$$$$$",
"$$$$$$$$$$$$    ....XXXXXXXXXXXXXXXX....        $$$$$$$$$$$$$$$$",
"$$$$$$$$$$$$    ....XXXXXXXXXXXXXXXX....        $$$$$$$$$$$$$$$$",
"$$$$$$$$$$$$$$$$                        $$$$$$$$$$$$$$$$$$$$$$$$",
"$$$$$$$$$$$$$$$$                        $$$$$$$$$$$$$$$$$$$$$$$$",
"$$$$$$$$$$$$$$$$                        $$$$$$$$$$$$$$$$$$$$$$$$",
"$$$$$$$$$$$$$$$$                        $$$$$$$$$$$$$$$$$$$$$$$$",
"$$$$$$$$$$$$$$$$$$$$$$$$$$$$$$$$$$$$$$$$$$$$$$$$$$$$$$$$$$$$$$$$",
"$$$$$$$$$$$$$$$$$$$$$$$$$$$$$$$$$$$$$$$$$$$$$$$$$$$$$$$$$$$$$$$$",
"$$$$$$$$$$$$$$$$$$$$$$$$$$$$$$$$$$$$$$$$$$$$$$$$$$$$$$$$$$$$$$$$",
"$$$$$$$$$$$$$$$$$$$$$$$$$$$$$$$$$$$$$$$$$$$$$$$$$$$$$$$$$$$$$$$$",
"$$$$$$$$$$$$$$$$$$$$$$$$$$$$$$$$$$$$$$$$$$$$$$$$$$$$$$$$$$$$$$$$",
"$$$$$$$$$$$$$$$$$$$$$$$$$$$$$$$$$$$$$$$$$$$$$$$$$$$$$$$$$$$$$$$$",
"$$$$$$$$$$$$$$$$$$$$$$$$$$$$$$$$$$$$$$$$$$$$$$$$$$$$$$$$$$$$$$$$",
"$$$$$$$$$$$$$$$$$$$$$$$$$$$$$$$$$$$$$$$$$$$$$$$$$$$$$$$$$$$$$$$$",
"$$$$$$$$$$$$$$$$$$$$$$$$$$$$$$$$$$$$$$$$$$$$$$$$$$$$$$$$$$$$$$$$",
"$$$$$$$$$$$$$$$$$$$$$$$$$$$$$$$$$$$$$$$$$$$$$$$$$$$$$$$$$$$$$$$$",
"$$$$$$$$$$$$$$$$$$$$$$$$$$$$$$$$$$$$$$$$$$$$$$$$$$$$$$$$$$$$$$$$",
"$$$$$$$$$$$$$$$$$$$$$$$$$$$$$$$$$$$$$$$$$$$$$$$$$$$$$$$$$$$$$$$$"
};
