/* XPM */
static char *result[] = {
/* columns rows colors chars-per-pixel */
"64 64 24 1 ",
"  c #170625",
". c #58000E",
"X c #791C2F",
"o c #990719",
"O c #BE0A1B",
"+ c #8F1E2F",
"@ c #AD3038",
"# c #EC162B",
"$ c #C1403C",
"% c #DB584A",
"& c #DC584B",
"* c #D25651",
"= c #E55144",
"- c #DF6D56",
"; c #FF5863",
": c #F37665",
"> c #E0805F",
", c #CD8C7E",
"< c #E38B6B",
"1 c #E39A6E",
"2 c #FF937E",
"3 c #E6B37D",
"4 c #FFE6A0",
"5 c None",
/* pixels */
"            555555555555                555555555555            ",
"            555555555555                555555555555            ",
"            555555555555                555555555555            ",
"            555555555555                555555555555            ",
"    ====@@@@    5555    @@@@$$$$&&&&$$$$    5555    @@@@====    ",
"    ====@@@@    5555    @@@@$$$$&&&&$$$$    5555    @@@@====    ",
"    ====@@@@    5555    @@@@$$$$&&&&$$$$    5555    @@@@====    ",
"    ====@@@@    5555    @@@@$$$$&&&&$$$$    5555    @@@@====    ",
"    ::::++++$$$$    ++++$$$$&&&&<<<<&&&&$$$$    $$$$++++::::    ",
"    ::::++++$$$$    ++++$$$$&&&&<<<<&&&&$$$$    $$$$++++::::    ",
"    ::::++++$$$$    ++++$$$$&&&&<<<<&&&&$$$$    $$$$++++::::    ",
"    ::::++++$$$$    ++++$$$$&&&&<<<<&&&&$$$$    $$$$++++::::    ",
"5555    2222++++++++@@@@@@@@$$$$&&&&$$$$@@@@++++++++2222    5555",
"5555    2222++++++++@@@@@@@@$$$$&&&&$$$$@@@@++++++++2222    5555",
"5555    2222++++++++@@@@@@@@$$$$&&&&$$$$@@@@++++++++2222    5555",
"5555    2222++++++++@@@@@@@@$$$$&&&&$$$$@@@@++++++++2222    5555",
"55555555    XXXX@@@@XXXX@@@@@@@@$$$$@@@@XXXX@@@@XXXX    55555555",
"55555555    XXXX@@@@XXXX@@@@@@@@$$$$@@@@XXXX@@@@XXXX    55555555",
"55555555    XXXX@@@@XXXX@@@@@@@@$$$$@@@@XXXX@@@@XXXX    55555555",
"55555555    XXXX@@@@XXXX@@@@@@@@$$$$@@@@XXXX@@@@XXXX    55555555",
"55555555    $$$$XXXX    XXXX$$$$$$$$XXXX    XXXX$$$$    55555555",
"55555555    $$$$XXXX    XXXX$$$$$$$$XXXX    XXXX$$$$    55555555",
"55555555    $$$$XXXX    XXXX$$$$$$$$XXXX    XXXX$$$$    55555555",
"55555555    $$$$XXXX    XXXX$$$$$$$$XXXX    XXXX$$$$    55555555",
"5555    ++++$$$$****XXXX1111333344443333XXXX****$$$$@@@@    5555",
"5555    ++++$$$$****XXXX1111333344443333XXXX****$$$$@@@@    5555",
"5555    ++++$$$$****XXXX1111333344443333XXXX****$$$$@@@@    5555",
"5555    ++++$$$$****XXXX1111333344443333XXXX****$$$$@@@@    5555",
"5555    ++++@@@@++++>>>>---->>>>>>>>>>>>3333++++$$$$****    5555",
"5555    ++++@@@@++++>>>>---->>>>>>>>>>>>3333++++$$$$****    5555",
"5555    ++++@@@@++++>>>>---->>>>>>>>>>>>3333++++$$$$****    5555",
"5555    ++++@@@@++++>>>>---->>>>>>>>>>>>3333++++$$$$****    5555",
"5555    @@@@++++%%%%----    --------    ----1111++++$$$$    5555",
"5555    @@@@++++%%%%----    --------    ----1111++++$$$$    5555",
"5555    @@@@++++%%%%----    --------    ----1111++++$$$$    5555",
"5555    @@@@++++%%%%----    --------    ----1111++++$$$$    5555",
"    ++++@@@@++++$$$$----++++%%%%>>>>++++----%%%%++++@@@@++++    ",
"    ++++@@@@++++$$$$----++++%%%%>>>>++++----%%%%++++@@@@++++    ",
"    ++++@@@@++++$$$$----++++%%%%>>>>++++----%%%%++++@@@@++++    ",
"    ++++@@@@++++$$$$----++++%%%%>>>>++++----%%%%++++@@@@++++    ",
"    ++++XXXX++++@@@@$$$$----$$$$%%%%>>>>%%%%$$$$++++XXXX$$$$    ",
"    ++++XXXX++++@@@@$$$$----$$$$%%%%>>>>%%%%$$$$++++XXXX$$$$    ",
"    ++++XXXX++++@@@@$$$$----$$$$%%%%>>>>%%%%$$$$++++XXXX$$$$    ",
"    ++++XXXX++++@@@@$$$$----$$$$%%%%>>>>%%%%$$$$++++XXXX$$$$    ",
"    ++++@@@@    XXXX@@@@$$$$$$$$@@@@$$$$$$$$XXXX    @@@@++++    ",
"    ++++@@@@    XXXX@@@@$$$$$$$$@@@@$$$$$$$$XXXX    @@@@++++    ",
"    ++++@@@@    XXXX@@@@$$$$$$$$@@@@$$$$$$$$XXXX    @@@@++++    ",
"    ++++@@@@    XXXX@@@@$$$$$$$$@@@@$$$$$$$$XXXX    @@@@++++    ",
"    XXXX++++XXXX    ,,,,....ooooOOOO....,,,,    XXXX++++XXXX    ",
"    XXXX++++XXXX    ,,,,....ooooOOOO....,,,,    XXXX++++XXXX    ",
"    XXXX++++XXXX    ,,,,....ooooOOOO....,,,,    XXXX++++XXXX    ",
"    XXXX++++XXXX    ,,,,....ooooOOOO....,,,,    XXXX++++XXXX    ",
"5555    XXXX++++....ooooOOOO####;;;;OOOOoooo....++++XXXX    5555",
"5555    XXXX++++....ooooOOOO####;;;;OOOOoooo....++++XXXX    5555",
"5555    XXXX++++....ooooOOOO####;;;;OOOOoooo....++++XXXX    5555",
"5555    XXXX++++....ooooOOOO####;;;;OOOOoooo....++++XXXX    5555",
"55555555        ++++....ooooOOOO####oooo....++++        55555555",
"55555555        ++++....ooooOOOO####oooo....++++        55555555",
"55555555        ++++....ooooOOOO####oooo....++++        55555555",
"55555555        ++++....ooooOOOO####oooo....++++        55555555",
"5555555555555555        ,,,,........,,,,        5555555555555555",
"5555555555555555        ,,,,........,,,,        5555555555555555",
"5555555555555555        ,,,,........,,,,        5555555555555555",
"5555555555555555        ,,,,........,,,,        5555555555555555"
};
