/* XPM */
static char *tile1311694787640[] = {
/* columns rows colors chars-per-pixel */
"32 32 9 1 ",
"  c #6CA246",
". c #192121",
"X c #1A6A79",
"o c #EE2B4E",
"O c #9C5144",
"+ c #F06643",
"@ c #FFA767",
"# c #498788",
"$ c #FFDE94",
/* pixels */
"..++++OOOOOOOOOOOOOOOOOOOO++++..",
"..++++OOOOOOOOOOOOOOOOOOOO++++..",
"..++++OOOOOOOOOOOOOOOOOOOO++++..",
"..++++OOOOOOOOOOOOOOOOOOOO++++..",
"..++++........$$$$..oooo..++++..",
"..++++........$$$$..oooo..++++..",
"..++++..XXXX..@@@@..oooo..++++..",
"..++++..XXXX..@@@@..oooo..++++..",
"..++++..XXXX..@@@@..oooo..++++..",
"..++++..XXXX..@@@@..oooo..++++..",
"..++++..XXXX..$$$$..oooo..++++..",
"..++++..XXXX..$$$$..oooo..++++..",
"..++++OO++++++++++++++++OO++++..",
"..++++OO++++++++++++++++OO++++..",
"..++++OOOOOOOOOOOOOOOOOOOO++++..",
"..++++OOOOOOOOOOOOOOOOOOOO++++..",
"..++++....####........XXXX++++..",
"..++++....####........XXXX++++..",
"..++++....####..@@@@..XXXX++++..",
"..++++....####..@@@@..XXXX++++..",
"..++++....####..@@@@..XXXX++++..",
"..++++....####..@@@@..XXXX++++..",
"..++++OO@@@@@@@@@@@@@@@@OO++++..",
"..++++OO@@@@@@@@@@@@@@@@OO++++..",
"..++++++++++++++++++++++++++++..",
"..++++++++++++++++++++++++++++..",
"OO++++++++++++++++++++++++++++OO",
"OO++++++++++++++++++++++++++++OO",
"                                ",
"                                ",
"                                ",
"                                "
};
