/* XPM */
static char *result[] = {
/* columns rows colors chars-per-pixel */
"64 64 13 1 ",
"  c #170625",
". c #5E0B13",
"X c #992415",
"o c #97392A",
"O c #AD3B22",
"+ c #B54D2B",
"@ c #BA4A28",
"# c #C85A2B",
"$ c #CD632D",
"% c #DB7E3D",
"& c #F49746",
"* c #FFB65B",
"= c None",
/* pixels */
"================================================================",
"================================================================",
"================================================================",
"================================================================",
"================================================================",
"================================================================",
"================================================================",
"================================================================",
"====================                        ====================",
"====================                        ====================",
"====================                        ====================",
"====================                        ====================",
"============        %%%%&&&&********&&&&%%%%        ============",
"============        %%%%&&&&********&&&&%%%%        ============",
"============        %%%%&&&&********&&&&%%%%        ============",
"============        %%%%&&&&********&&&&%%%%        ============",
"========    $$$$%%%%$$$$OOOO****$$$$XXXX$$$$%%%%%%%%    ========",
"========    $$$$%%%%$$$$OOOO****$$$$XXXX$$$$%%%%%%%%    ========",
"========    $$$$%%%%$$$$OOOO****$$$$XXXX$$$$%%%%%%%%    ========",
"========    $$$$%%%%$$$$OOOO****$$$$XXXX$$$$%%%%%%%%    ========",
"====    OOOO&&&&%%%%&&&&****$$$$........%%%%****XXXX%%%%    ====",
"====    OOOO&&&&%%%%&&&&****$$$$........%%%%****XXXX%%%%    ====",
"====    OOOO&&&&%%%%&&&&****$$$$........%%%%****XXXX%%%%    ====",
"====    OOOO&&&&%%%%&&&&****$$$$........%%%%****XXXX%%%%    ====",
"    OOOO####%%%%####XXXX&&&&&&&&####****&&&&%%%%%%%%@@@@$$$$    ",
"    OOOO####%%%%####XXXX&&&&&&&&####****&&&&%%%%%%%%@@@@$$$$    ",
"    OOOO####%%%%####XXXX&&&&&&&&####****&&&&%%%%%%%%@@@@$$$$    ",
"    OOOO####%%%%####XXXX&&&&&&&&####****&&&&%%%%%%%%@@@@$$$$    ",
"    OOOO@@@@$$$$XXXX....$$$$XXXX....&&&&@@@@....@@@@$$$$OOOO    ",
"    OOOO@@@@$$$$XXXX....$$$$XXXX....&&&&@@@@....@@@@$$$$OOOO    ",
"    OOOO@@@@$$$$XXXX....$$$$XXXX....&&&&@@@@....@@@@$$$$OOOO    ",
"    OOOO@@@@$$$$XXXX....$$$$XXXX....&&&&@@@@....@@@@$$$$OOOO    ",
"    oooo####%%%%&&&&$$$$&&&&%%%%****%%%%....XXXX%%%%$$$$oooo    ",
"    oooo####%%%%&&&&$$$$&&&&%%%%****%%%%....XXXX%%%%$$$$oooo    ",
"    oooo####%%%%&&&&$$$$&&&&%%%%****%%%%....XXXX%%%%$$$$oooo    ",
"    oooo####%%%%&&&&$$$$&&&&%%%%****%%%%....XXXX%%%%$$$$oooo    ",
"====    ooooOOOO$$$$%%%%OOOO&&&&####OOOO####%%%%$$$$++++    ====",
"====    ooooOOOO$$$$%%%%OOOO&&&&####OOOO####%%%%$$$$++++    ====",
"====    ooooOOOO$$$$%%%%OOOO&&&&####OOOO####%%%%$$$$++++    ====",
"====    ooooOOOO$$$$%%%%OOOO&&&&####OOOO####%%%%$$$$++++    ====",
"========    ooooOOOO@@@@$$$$####@@@@%%%%OOOO$$$$++++    ========",
"========    ooooOOOO@@@@$$$$####@@@@%%%%OOOO$$$$++++    ========",
"========    ooooOOOO@@@@$$$$####@@@@%%%%OOOO$$$$++++    ========",
"========    ooooOOOO@@@@$$$$####@@@@%%%%OOOO$$$$++++    ========",
"============        oooo@@@@@@@@OOOO++++$$$$            ========",
"============        oooo@@@@@@@@OOOO++++$$$$            ========",
"============        oooo@@@@@@@@OOOO++++$$$$            ========",
"============        oooo@@@@@@@@OOOO++++$$$$            ========",
"====================                        ====    ####    ====",
"====================                        ====    ####    ====",
"====================                        ====    ####    ====",
"====================                        ====    ####    ====",
"====================================================    ========",
"====================================================    ========",
"====================================================    ========",
"====================================================    ========",
"========================================    ====================",
"========================================    ====================",
"========================================    ====================",
"========================================    ====================",
"================================================================",
"================================================================",
"================================================================",
"================================================================"
};
