/* XPM */
static char *result[] = {
/* columns rows colors chars-per-pixel */
"64 64 22 1 ",
"  c #170625",
". c #B42A21",
"X c #C43D0E",
"o c #C4400E",
"O c #C5400E",
"+ c #D9581E",
"@ c #DA591E",
"# c #D95A1E",
"$ c #E87738",
"% c #E97938",
"& c #E7863B",
"* c #E7853C",
"= c #F88B3B",
"- c #F98C3B",
"; c #F98C3C",
": c #F7A455",
"> c #F7A456",
", c #F8A656",
"< c #FFC769",
"1 c #FFC86A",
"2 c #FFDE7F",
"3 c None",
/* pixels */
"3333333333333333333333333333333333333333333333333333333333333333",
"3333333333333333333333333333333333333333333333333333333333333333",
"3333333333333333333333333333333333333333333333333333333333333333",
"3333333333333333333333333333333333333333333333333333333333333333",
"33333333            33333333333333333333333333333333333333333333",
"33333333            33333333333333333333333333333333333333333333",
"33333333            33333333333333333333333333333333333333333333",
"33333333            33333333333333333333333333333333333333333333",
"3333    ....XXXXXXXX        333333333333333333333333333333333333",
"3333    ....XXXXXXXX        333333333333333333333333333333333333",
"3333    ....XXXXXXXX        333333333333333333333333333333333333",
"3333    ....XXXXXXXX        333333333333333333333333333333333333",
"    ....OOOO++++@@@@$$$$++++        3333333333333333333333333333",
"    ....OOOO++++@@@@$$$$++++        3333333333333333333333333333",
"    ....OOOO++++@@@@$$$$++++        3333333333333333333333333333",
"    ....OOOO++++@@@@$$$$++++        3333333333333333333333333333",
"    XXXX####........XXXX$$$$$$$$@@@@    333333333333333333333333",
"    XXXX####........XXXX$$$$$$$$@@@@    333333333333333333333333",
"    XXXX####........XXXX$$$$$$$$@@@@    333333333333333333333333",
"    XXXX####........XXXX$$$$$$$$@@@@    333333333333333333333333",
"    XXXX....%%%%$$$$;;;;XXXX++++$$$$++++    33333333333333333333",
"    XXXX....%%%%$$$$;;;;XXXX++++$$$$++++    33333333333333333333",
"    XXXX....%%%%$$$$;;;;XXXX++++$$$$++++    33333333333333333333",
"    XXXX....%%%%$$$$;;;;XXXX++++$$$$++++    33333333333333333333",
"    oooo++++----<<<<<<<<>>>>$$$$****%%%%####    3333333333333333",
"    oooo++++----<<<<<<<<>>>>$$$$****%%%%####    3333333333333333",
"    oooo++++----<<<<<<<<>>>>$$$$****%%%%####    3333333333333333",
"    oooo++++----<<<<<<<<>>>>$$$$****%%%%####    3333333333333333",
"3333    oooo####%%%%,,,,>>>>>>>>>>>>;;;;&&&&@@@@    333333333333",
"3333    oooo####%%%%,,,,>>>>>>>>>>>>;;;;&&&&@@@@    333333333333",
"3333    oooo####%%%%,,,,>>>>>>>>>>>>;;;;&&&&@@@@    333333333333",
"3333    oooo####%%%%,,,,>>>>>>>>>>>>;;;;&&&&@@@@    333333333333",
"3333    ....oooo$$$$&&&&====........XXXX&&&&$$$$####    33333333",
"3333    ....oooo$$$$&&&&====........XXXX&&&&$$$$####    33333333",
"3333    ....oooo$$$$&&&&====........XXXX&&&&$$$$####    33333333",
"3333    ....oooo$$$$&&&&====........XXXX&&&&$$$$####    33333333",
"33333333    ....++++$$$$....$$$$;;;;====XXXX::::&&&&@@@@    3333",
"33333333    ....++++$$$$....$$$$;;;;====XXXX::::&&&&@@@@    3333",
"33333333    ....++++$$$$....$$$$;;;;====XXXX::::&&&&@@@@    3333",
"33333333    ....++++$$$$....$$$$;;;;====XXXX::::&&&&@@@@    3333",
"333333333333    ....++++XXXX====<<<<<<<<;;;;$$$$22222222$$$$3333",
"333333333333    ....++++XXXX====<<<<<<<<;;;;$$$$22222222$$$$3333",
"333333333333    ....++++XXXX====<<<<<<<<;;;;$$$$22222222$$$$3333",
"333333333333    ....++++XXXX====<<<<<<<<;;;;$$$$22222222$$$$3333",
"3333333333333333    ....++++$$$$&&&&;;;;>>>>22222222>>>>>>>>3333",
"3333333333333333    ....++++$$$$&&&&;;;;>>>>22222222>>>>>>>>3333",
"3333333333333333    ....++++$$$$&&&&;;;;>>>>22222222>>>>>>>>3333",
"3333333333333333    ....++++$$$$&&&&;;;;>>>>22222222>>>>>>>>3333",
"33333333333333333333    ....++++$$$$++++2222<<<<>>>><<<<%%%%3333",
"33333333333333333333    ....++++$$$$++++2222<<<<>>>><<<<%%%%3333",
"33333333333333333333    ....++++$$$$++++2222<<<<>>>><<<<%%%%3333",
"33333333333333333333    ....++++$$$$++++2222<<<<>>>><<<<%%%%3333",
"333333333333333333333333    XXXX....2222::::22221111$$$$33333333",
"333333333333333333333333    XXXX....2222::::22221111$$$$33333333",
"333333333333333333333333    XXXX....2222::::22221111$$$$33333333",
"333333333333333333333333    XXXX....2222::::22221111$$$$33333333",
"3333333333333333333333333333    ....>>>><<<<>>>>$$$$333333333333",
"3333333333333333333333333333    ....>>>><<<<>>>>$$$$333333333333",
"3333333333333333333333333333    ....>>>><<<<>>>>$$$$333333333333",
"3333333333333333333333333333    ....>>>><<<<>>>>$$$$333333333333",
"33333333333333333333333333333333    XXXX$$$$++++3333333333333333",
"33333333333333333333333333333333    XXXX$$$$++++3333333333333333",
"33333333333333333333333333333333    XXXX$$$$++++3333333333333333",
"33333333333333333333333333333333    XXXX$$$$++++3333333333333333"
};
