/* XPM */
static char *tile1301694787640[] = {
/* columns rows colors chars-per-pixel */
"32 32 6 1 ",
"  c #6CA246",
". c #192121",
"X c #9C5144",
"o c #F06643",
"O c #FFA767",
"+ c #FFC7AB",
/* pixels */
"..++OOOOOOOOOOOOOOOOOOOOOOOOOO..",
"..++OOOOOOOOOOOOOOOOOOOOOOOOOO..",
"..++OOOOOOOOOOOOOOOOOOOOOOOOOO..",
"..++OOOOOOOOOOOOOOOOOOOOOOOOOO..",
"..++++++++++++OOOOOOOOOOOOOOOO..",
"..++++++++++++OOOOOOOOOOOOOOOO..",
"..oooooooooooooooooooooooooooo..",
"..oooooooooooooooooooooooooooo..",
"..ooXXOOOOOOOOOOOOOOOOOOOOXXoo..",
"..ooXXOOOOOOOOOOOOOOOOOOOOXXoo..",
"..ooXXooooooooooooooooooooXXoo..",
"..ooXXooooooooooooooooooooXXoo..",
"..ooXXooooooooOOOOooooooooXXoo..",
"..ooXXooooooooOOOOooooooooXXoo..",
"..ooXXooooooooOOOOooooooooXXoo..",
"..ooXXooooooooOOOOooooooooXXoo..",
"..ooXXXXXXXXXXXXXXXXXXXXXXXXoo..",
"..ooXXXXXXXXXXXXXXXXXXXXXXXXoo..",
"..oooooooooooooooooooooooooooo..",
"..oooooooooooooooooooooooooooo..",
"..ooXXooooooooooooooooooooXXoo..",
"..ooXXooooooooooooooooooooXXoo..",
"..ooXXooooooooOOOOooooooooXXoo..",
"..ooXXooooooooOOOOooooooooXXoo..",
"..ooXXooooooooOOOOooooooooXXoo..",
"..ooXXooooooooOOOOooooooooXXoo..",
"..ooXXXXXXXXXXXXXXXXXXXXXXXXoo..",
"..ooXXXXXXXXXXXXXXXXXXXXXXXXoo..",
"..oooooooooooooooooooooooooooo..",
"..oooooooooooooooooooooooooooo..",
"  ............................  ",
"  ............................  "
};
