/* XPM */
static char *tile0641694787632[] = {
/* columns rows colors chars-per-pixel */
"32 32 5 1 ",
"  c #6CA246",
". c #192121",
"X c #9C5144",
"o c #F06643",
"O c #FFA767",
/* pixels */
"              ......XXXXXXXXXXXX",
"              ......XXXXXXXXXXXX",
"                ..XXXXXXXXXXXXXX",
"                ..XXXXXXXXXXXXXX",
"                  ..XXXXXXXXXXXX",
"                  ..XXXXXXXXXXXX",
"      XXXXXXXXXXXXXX..XX........",
"      XXXXXXXXXXXXXX..XX........",
"      XXXXXXXXXXXXXX....OOOOOOOO",
"      XXXXXXXXXXXXXX....OOOOOOOO",
"                  ..OOOOoooooooo",
"                  ..OOOOoooooooo",
"                ..OOooooXXXX....",
"                ..OOooooXXXX....",
"      XXXXXXXXXX..oooo..XXXXoooo",
"      XXXXXXXXXX..oooo..XXXXoooo",
"      XXXXXXXXXX..ooXXooooooXXXX",
"      XXXXXXXXXX..ooXXooooooXXXX",
"                ..ooXXXXXXXXXXXX",
"                ..ooXXXXXXXXXXXX",
"                ..ooOOOO....XXXX",
"                ..ooOOOO....XXXX",
"                  ..ooooXXXXOOOO",
"                  ..ooooXXXXOOOO",
"                    XXXXoooooooo",
"                    XXXXoooooooo",
"                        XXXXXXXX",
"                        XXXXXXXX",
"                                ",
"                                ",
"                                ",
"                                "
};
