/* XPM */
static char *tile0331694787628[] = {
/* columns rows colors chars-per-pixel */
"32 32 8 1 ",
"  c #6CA246",
". c #192121",
"X c #DD433B",
"o c #9C5144",
"O c #FA8B58",
"+ c #CE926F",
"@ c #FFE0CB",
"# c white",
/* pixels */
"                                ",
"                                ",
"  ......                ......  ",
"  ......                ......  ",
"  ..####................OOOO..  ",
"  ..####................OOOO..  ",
"  ..########OOOOOOOOOOOOOOOO..  ",
"  ..########OOOOOOOOOOOOOOOO..  ",
"  ..XXXX####OOOOOOOOOOOOXXXX..  ",
"  ..XXXX####OOOOOOOOOOOOXXXX..  ",
"  ..XXXXXXXXXXXXXXXXXXXXXXXX..  ",
"  ..XXXXXXXXXXXXXXXXXXXXXXXX..  ",
"  ..XX++++++++++++++++++++XX..  ",
"  ..XX++++++++++++++++++++XX..  ",
"  ....XX++oooooo@@oooo@@XX..    ",
"  ....XX++oooooo@@oooo@@XX..    ",
"    ..XX++@@@@@@@@@@@@@@XX..    ",
"    ..XX++@@@@@@@@@@@@@@XX..    ",
"    ..XX++oooo@@oooooo@@XX..    ",
"    ..XX++oooo@@oooooo@@XX..    ",
"  ..OOXX++@@@@@@@@@@@@@@XXOO..  ",
"  ..OOXX++@@@@@@@@@@@@@@XXOO..  ",
"  ..XXXXXXXXXXXXXXXXXXXXXXXX..  ",
"  ..XXXXXXXXXXXXXXXXXXXXXXXX..  ",
"  ......oo............oo......  ",
"  ......oo............oo......  ",
"  oooo..oo..oooooooo..oo..oooo  ",
"  oooo..oo..oooooooo..oo..oooo  ",
"                                ",
"                                ",
"                                ",
"                                "
};
