/* XPM */
static char *result[] = {
/* columns rows colors chars-per-pixel */
"64 64 19 1 ",
"  c #170625",
". c #7C2C2A",
"X c #8D120E",
"o c #9D200E",
"O c #BB260E",
"+ c #D8370E",
"@ c #91462E",
"# c #B65533",
"$ c #EC5C0E",
"% c #DF5A39",
"& c #AD6545",
"* c #A3716E",
"= c #FF892E",
"- c #E68639",
"; c #F19B4F",
": c #FFB65F",
"> c #CA967C",
", c #FCD1B4",
"< c None",
/* pixels */
"<<<<<<<<<<<<<<<<<<<<<<<<                <<<<<<<<<<<<<<<<<<<<<<<<",
"<<<<<<<<<<<<<<<<<<<<<<<<                <<<<<<<<<<<<<<<<<<<<<<<<",
"<<<<<<<<<<<<<<<<<<<<<<<<                <<<<<<<<<<<<<<<<<<<<<<<<",
"<<<<<<<<<<<<<<<<<<<<<<<<                <<<<<<<<<<<<<<<<<<<<<<<<",
"<<<<<<<<<<<<<<<<<<<<    ****&&&&>>>>@@@@    <<<<<<<<<<<<<<<<<<<<",
"<<<<<<<<<<<<<<<<<<<<    ****&&&&>>>>@@@@    <<<<<<<<<<<<<<<<<<<<",
"<<<<<<<<<<<<<<<<<<<<    ****&&&&>>>>@@@@    <<<<<<<<<<<<<<<<<<<<",
"<<<<<<<<<<<<<<<<<<<<    ****&&&&>>>>@@@@    <<<<<<<<<<<<<<<<<<<<",
"<<<<<<<<<<<<<<<<<<<<<<<<    oooooooo    <<<<<<<<<<<<<<<<<<<<<<<<",
"<<<<<<<<<<<<<<<<<<<<<<<<    oooooooo    <<<<<<<<<<<<<<<<<<<<<<<<",
"<<<<<<<<<<<<<<<<<<<<<<<<    oooooooo    <<<<<<<<<<<<<<<<<<<<<<<<",
"<<<<<<<<<<<<<<<<<<<<<<<<    oooooooo    <<<<<<<<<<<<<<<<<<<<<<<<",
"<<<<<<<<<<<<<<<<<<<<<<<<    $$$$,,,,    <<<<<<<<<<<<<<<<<<<<<<<<",
"<<<<<<<<<<<<<<<<<<<<<<<<    $$$$,,,,    <<<<<<<<<<<<<<<<<<<<<<<<",
"<<<<<<<<<<<<<<<<<<<<<<<<    $$$$,,,,    <<<<<<<<<<<<<<<<<<<<<<<<",
"<<<<<<<<<<<<<<<<<<<<<<<<    $$$$,,,,    <<<<<<<<<<<<<<<<<<<<<<<<",
"<<<<<<<<<<<<<<<<<<<<<<<<    ====%%%%    <<<<<<<<<<<<<<<<<<<<<<<<",
"<<<<<<<<<<<<<<<<<<<<<<<<    ====%%%%    <<<<<<<<<<<<<<<<<<<<<<<<",
"<<<<<<<<<<<<<<<<<<<<<<<<    ====%%%%    <<<<<<<<<<<<<<<<<<<<<<<<",
"<<<<<<<<<<<<<<<<<<<<<<<<    ====%%%%    <<<<<<<<<<<<<<<<<<<<<<<<",
"<<<<<<<<<<<<<<<<<<<<    oooooooooooooooo    <<<<<<<<<<<<<<<<<<<<",
"<<<<<<<<<<<<<<<<<<<<    oooooooooooooooo    <<<<<<<<<<<<<<<<<<<<",
"<<<<<<<<<<<<<<<<<<<<    oooooooooooooooo    <<<<<<<<<<<<<<<<<<<<",
"<<<<<<<<<<<<<<<<<<<<    oooooooooooooooo    <<<<<<<<<<<<<<<<<<<<",
"<<<<<<<<<<<<<<<<    ooooOOOO++++%%%%OOOOoooo    <<<<<<<<<<<<<<<<",
"<<<<<<<<<<<<<<<<    ooooOOOO++++%%%%OOOOoooo    <<<<<<<<<<<<<<<<",
"<<<<<<<<<<<<<<<<    ooooOOOO++++%%%%OOOOoooo    <<<<<<<<<<<<<<<<",
"<<<<<<<<<<<<<<<<    ooooOOOO++++%%%%OOOOoooo    <<<<<<<<<<<<<<<<",
"<<<<<<<<<<<<    XXXXOOOO++++$$$$$$$$,,,,OOOOXXXX    <<<<<<<<<<<<",
"<<<<<<<<<<<<    XXXXOOOO++++$$$$$$$$,,,,OOOOXXXX    <<<<<<<<<<<<",
"<<<<<<<<<<<<    XXXXOOOO++++$$$$$$$$,,,,OOOOXXXX    <<<<<<<<<<<<",
"<<<<<<<<<<<<    XXXXOOOO++++$$$$$$$$,,,,OOOOXXXX    <<<<<<<<<<<<",
"<<<<<<<<<<<<    oooo----;;;;::::::::;;;;----oooo    <<<<<<<<<<<<",
"<<<<<<<<<<<<    oooo----;;;;::::::::;;;;----oooo    <<<<<<<<<<<<",
"<<<<<<<<<<<<    oooo----;;;;::::::::;;;;----oooo    <<<<<<<<<<<<",
"<<<<<<<<<<<<    oooo----;;;;::::::::;;;;----oooo    <<<<<<<<<<<<",
"<<<<<<<<<<<<    oooo----....####----####----oooo    <<<<<<<<<<<<",
"<<<<<<<<<<<<    oooo----....####----####----oooo    <<<<<<<<<<<<",
"<<<<<<<<<<<<    oooo----....####----####----oooo    <<<<<<<<<<<<",
"<<<<<<<<<<<<    oooo----....####----####----oooo    <<<<<<<<<<<<",
"<<<<<<<<<<<<    oooo----####............----oooo    <<<<<<<<<<<<",
"<<<<<<<<<<<<    oooo----####............----oooo    <<<<<<<<<<<<",
"<<<<<<<<<<<<    oooo----####............----oooo    <<<<<<<<<<<<",
"<<<<<<<<<<<<    oooo----####............----oooo    <<<<<<<<<<<<",
"<<<<<<<<<<<<    oooo----;;;;....####....----oooo    <<<<<<<<<<<<",
"<<<<<<<<<<<<    oooo----;;;;....####....----oooo    <<<<<<<<<<<<",
"<<<<<<<<<<<<    oooo----;;;;....####....----oooo    <<<<<<<<<<<<",
"<<<<<<<<<<<<    oooo----;;;;....####....----oooo    <<<<<<<<<<<<",
"<<<<<<<<<<<<    oooo----;;;;::::::::;;;;----oooo    <<<<<<<<<<<<",
"<<<<<<<<<<<<    oooo----;;;;::::::::;;;;----oooo    <<<<<<<<<<<<",
"<<<<<<<<<<<<    oooo----;;;;::::::::;;;;----oooo    <<<<<<<<<<<<",
"<<<<<<<<<<<<    oooo----;;;;::::::::;;;;----oooo    <<<<<<<<<<<<",
"<<<<<<<<<<<<    ooooOOOO++++$$$$$$$$%%%%OOOOoooo    <<<<<<<<<<<<",
"<<<<<<<<<<<<    ooooOOOO++++$$$$$$$$%%%%OOOOoooo    <<<<<<<<<<<<",
"<<<<<<<<<<<<    ooooOOOO++++$$$$$$$$%%%%OOOOoooo    <<<<<<<<<<<<",
"<<<<<<<<<<<<    ooooOOOO++++$$$$$$$$%%%%OOOOoooo    <<<<<<<<<<<<",
"<<<<<<<<<<<<    XXXXooooOOOOOOOOOOOOOOOOooooXXXX    <<<<<<<<<<<<",
"<<<<<<<<<<<<    XXXXooooOOOOOOOOOOOOOOOOooooXXXX    <<<<<<<<<<<<",
"<<<<<<<<<<<<    XXXXooooOOOOOOOOOOOOOOOOooooXXXX    <<<<<<<<<<<<",
"<<<<<<<<<<<<    XXXXooooOOOOOOOOOOOOOOOOooooXXXX    <<<<<<<<<<<<",
"<<<<<<<<<<<<<<<<                                <<<<<<<<<<<<<<<<",
"<<<<<<<<<<<<<<<<                                <<<<<<<<<<<<<<<<",
"<<<<<<<<<<<<<<<<                                <<<<<<<<<<<<<<<<",
"<<<<<<<<<<<<<<<<                                <<<<<<<<<<<<<<<<"
};
