/* XPM */
static char *tile0511694787630[] = {
/* columns rows colors chars-per-pixel */
"32 32 9 1 ",
"  c #6CA246",
". c #192121",
"X c #9C5144",
"o c #C4755D",
"O c #F06643",
"+ c #FFA767",
"@ c #D89FBD",
"# c #F3CC9E",
"$ c white",
/* pixels */
"                                ",
"                                ",
"                                ",
"                                ",
"  ....                          ",
"  ....                          ",
"..####..                        ",
"..####..                        ",
"..@@####..                      ",
"..@@####..                      ",
"@@@@@@####..                    ",
"@@@@@@####..                    ",
"$$$$##@@####..                  ",
"$$$$##@@####..                  ",
"$$$$####@@####....              ",
"$$$$####@@####....              ",
"##########@@##..OO....          ",
"##########@@##..OO....          ",
"@@##@@######@@......OO....      ",
"@@##@@######@@......OO....      ",
"@@##@@######@@oooo##..OOOO....  ",
"@@##@@######@@oooo##..OOOO....  ",
"########@@@@..oo@@####..XXOO..  ",
"########@@@@..oo@@####..XXOO..  ",
"@@@@@@@@......@@########..OO..  ",
"@@@@@@@@......@@########..OO..  ",
"############..@@##########....  ",
"############..@@##########....  ",
"XXXX########..@@@@@@######@@..  ",
"XXXX########..@@@@@@######@@..  ",
"++++XXXX####oo@@##########@@..  ",
"++++XXXX####oo@@##########@@..  "
};
