/* XPM */
static char *result[] = {
/* columns rows colors chars-per-pixel */
"64 64 15 1 ",
"  c #170625",
". c #661E22",
"X c #85070E",
"o c #991112",
"O c #A61613",
"+ c #B11E18",
"@ c #B9261A",
"# c #C12F1C",
"$ c #D24029",
"% c #E06331",
"& c #E66A37",
"* c #EC753C",
"= c #F48840",
"- c #FFAD47",
"; c None",
/* pixels */
";;;;;;;;;;;;;;;;;;;;;;;;;;;;;;;;;;;;;;;;;;;;;;;;;;;;;;;;;;;;;;;;",
";;;;;;;;;;;;;;;;;;;;;;;;;;;;;;;;;;;;;;;;;;;;;;;;;;;;;;;;;;;;;;;;",
";;;;;;;;;;;;;;;;;;;;;;;;;;;;;;;;;;;;;;;;;;;;;;;;;;;;;;;;;;;;;;;;",
";;;;;;;;;;;;;;;;;;;;;;;;;;;;;;;;;;;;;;;;;;;;;;;;;;;;;;;;;;;;;;;;",
";;;;;;;;;;;;;;;;;;;;;;;;;;;;;;;;;;;;;;;;;;;;        ;;;;;;;;;;;;",
";;;;;;;;;;;;;;;;;;;;;;;;;;;;;;;;;;;;;;;;;;;;        ;;;;;;;;;;;;",
";;;;;;;;;;;;;;;;;;;;;;;;;;;;;;;;;;;;;;;;;;;;        ;;;;;;;;;;;;",
";;;;;;;;;;;;;;;;;;;;;;;;;;;;;;;;;;;;;;;;;;;;        ;;;;;;;;;;;;",
";;;;;;;;;;;;;;;;;;;;;;;;;;;;;;;;;;;;;;;;    ++++$$$$    ;;;;;;;;",
";;;;;;;;;;;;;;;;;;;;;;;;;;;;;;;;;;;;;;;;    ++++$$$$    ;;;;;;;;",
";;;;;;;;;;;;;;;;;;;;;;;;;;;;;;;;;;;;;;;;    ++++$$$$    ;;;;;;;;",
";;;;;;;;;;;;;;;;;;;;;;;;;;;;;;;;;;;;;;;;    ++++$$$$    ;;;;;;;;",
";;;;;;;;;;;;;;;;;;;;;;;;;;;;;;;;;;;;    XXXX........$$$$    ;;;;",
";;;;;;;;;;;;;;;;;;;;;;;;;;;;;;;;;;;;    XXXX........$$$$    ;;;;",
";;;;;;;;;;;;;;;;;;;;;;;;;;;;;;;;;;;;    XXXX........$$$$    ;;;;",
";;;;;;;;;;;;;;;;;;;;;;;;;;;;;;;;;;;;    XXXX........$$$$    ;;;;",
";;;;;;;;;;;;;;;;;;;;;;;;;;;;;;;;    XXXX....XXXX....****    ;;;;",
";;;;;;;;;;;;;;;;;;;;;;;;;;;;;;;;    XXXX....XXXX....****    ;;;;",
";;;;;;;;;;;;;;;;;;;;;;;;;;;;;;;;    XXXX....XXXX....****    ;;;;",
";;;;;;;;;;;;;;;;;;;;;;;;;;;;;;;;    XXXX....XXXX....****    ;;;;",
";;;;;;;;;;;;;;;;;;;;;;;;;;;;;;;;    ooooXXXXXXXXXXXX....====    ",
";;;;;;;;;;;;;;;;;;;;;;;;;;;;;;;;    ooooXXXXXXXXXXXX....====    ",
";;;;;;;;;;;;;;;;;;;;;;;;;;;;;;;;    ooooXXXXXXXXXXXX....====    ",
";;;;;;;;;;;;;;;;;;;;;;;;;;;;;;;;    ooooXXXXXXXXXXXX....====    ",
";;;;;;;;;;;;;;;;;;;;;;;;;;;;    ooooXXXXooooOOOOXXXXoooo----    ",
";;;;;;;;;;;;;;;;;;;;;;;;;;;;    ooooXXXXooooOOOOXXXXoooo----    ",
";;;;;;;;;;;;;;;;;;;;;;;;;;;;    ooooXXXXooooOOOOXXXXoooo----    ",
";;;;;;;;;;;;;;;;;;;;;;;;;;;;    ooooXXXXooooOOOOXXXXoooo----    ",
";;;;;;;;;;;;;;;;;;;;        ooooOOOOooooOOOOXXXXooooOOOO====    ",
";;;;;;;;;;;;;;;;;;;;        ooooOOOOooooOOOOXXXXooooOOOO====    ",
";;;;;;;;;;;;;;;;;;;;        ooooOOOOooooOOOOXXXXooooOOOO====    ",
";;;;;;;;;;;;;;;;;;;;        ooooOOOOooooOOOOXXXXooooOOOO====    ",
";;;;;;;;            oooo++++OOOOoooo++++oooooooo@@@@oooo====    ",
";;;;;;;;            oooo++++OOOOoooo++++oooooooo@@@@oooo====    ",
";;;;;;;;            oooo++++OOOOoooo++++oooooooo@@@@oooo====    ",
";;;;;;;;            oooo++++OOOOoooo++++oooooooo@@@@oooo====    ",
";;;;    OOOO++++@@@@++++ooooXXXXOOOOoooo####@@@@OOOO++++%%%%    ",
";;;;    OOOO++++@@@@++++ooooXXXXOOOOoooo####@@@@OOOO++++%%%%    ",
";;;;    OOOO++++@@@@++++ooooXXXXOOOOoooo####@@@@OOOO++++%%%%    ",
";;;;    OOOO++++@@@@++++ooooXXXXOOOOoooo####@@@@OOOO++++%%%%    ",
"    ####OOOOooooOOOOooooXXXXOOOO++++####OOOO++++++++&&&&    ;;;;",
"    ####OOOOooooOOOOooooXXXXOOOO++++####OOOO++++++++&&&&    ;;;;",
"    ####OOOOooooOOOOooooXXXXOOOO++++####OOOO++++++++&&&&    ;;;;",
"    ####OOOOooooOOOOooooXXXXOOOO++++####OOOO++++++++&&&&    ;;;;",
";;;;    %%%%XXXXoooo$$$$OOOO++++oooo++++@@@@++++$$$$    ;;;;;;;;",
";;;;    %%%%XXXXoooo$$$$OOOO++++oooo++++@@@@++++$$$$    ;;;;;;;;",
";;;;    %%%%XXXXoooo$$$$OOOO++++oooo++++@@@@++++$$$$    ;;;;;;;;",
";;;;    %%%%XXXXoooo$$$$OOOO++++oooo++++@@@@++++$$$$    ;;;;;;;;",
";;;;;;;;    ====%%%%    ####OOOO@@@@OOOO++++%%%%    ;;;;;;;;;;;;",
";;;;;;;;    ====%%%%    ####OOOO@@@@OOOO++++%%%%    ;;;;;;;;;;;;",
";;;;;;;;    ====%%%%    ####OOOO@@@@OOOO++++%%%%    ;;;;;;;;;;;;",
";;;;;;;;    ====%%%%    ####OOOO@@@@OOOO++++%%%%    ;;;;;;;;;;;;",
";;;;;;;;;;;;        ;;;;    OOOOOOOO====%%%%    ;;;;;;;;;;;;;;;;",
";;;;;;;;;;;;        ;;;;    OOOOOOOO====%%%%    ;;;;;;;;;;;;;;;;",
";;;;;;;;;;;;        ;;;;    OOOOOOOO====%%%%    ;;;;;;;;;;;;;;;;",
";;;;;;;;;;;;        ;;;;    OOOOOOOO====%%%%    ;;;;;;;;;;;;;;;;",
";;;;;;;;;;;;;;;;;;;;;;;;    $$$$%%%%        ;;;;;;;;;;;;;;;;;;;;",
";;;;;;;;;;;;;;;;;;;;;;;;    $$$$%%%%        ;;;;;;;;;;;;;;;;;;;;",
";;;;;;;;;;;;;;;;;;;;;;;;    $$$$%%%%        ;;;;;;;;;;;;;;;;;;;;",
";;;;;;;;;;;;;;;;;;;;;;;;    $$$$%%%%        ;;;;;;;;;;;;;;;;;;;;",
";;;;;;;;;;;;;;;;;;;;;;;;;;;;        ;;;;;;;;;;;;;;;;;;;;;;;;;;;;",
";;;;;;;;;;;;;;;;;;;;;;;;;;;;        ;;;;;;;;;;;;;;;;;;;;;;;;;;;;",
";;;;;;;;;;;;;;;;;;;;;;;;;;;;        ;;;;;;;;;;;;;;;;;;;;;;;;;;;;",
";;;;;;;;;;;;;;;;;;;;;;;;;;;;        ;;;;;;;;;;;;;;;;;;;;;;;;;;;;"
};
