/* XPM */
static char *tile0261694787627[] = {
/* columns rows colors chars-per-pixel */
"32 32 6 1 ",
"  c #6CA246",
". c #192121",
"X c #9C5144",
"o c #F06643",
"O c #A6C1BB",
"+ c white",
/* pixels */
"                                ",
"                                ",
"          ......  ......        ",
"          ......  ......        ",
"        ..++++++..++++++..      ",
"        ..++++++..++++++..      ",
"    ......++++++OO++++++++..    ",
"    ......++++++OO++++++++..    ",
"  ..++++OO++++++OO++++++++..    ",
"  ..++++OO++++++OO++++++++..    ",
"  ..++++OO++++++OO++++++++OO..  ",
"  ..++++OO++++++OO++++++++OO..  ",
"  ..++++OO++++++OOoo++++++OO..  ",
"  ..++++OO++++++OOoo++++++OO..  ",
"  ..++++OO++++++OOoooooo++OO..  ",
"  ..++++OO++++++OOoooooo++OO..  ",
"  ..++ooOO++++++OOooooooooOO..  ",
"  ..++ooOO++++++OOooooooooOO..  ",
"  ..ooooOOXXXXXX....XXoooooo..  ",
"  ..ooooOOXXXXXX....XXoooooo..  ",
"  ..ooXXXXooooooXXXXXXXXXXoo..  ",
"  ..ooXXXXooooooXXXXXXXXXXoo..  ",
"  ..XXXXXXooooooXXXXXXXXXXXX..  ",
"  ..XXXXXXooooooXXXXXXXXXXXX..  ",
"  ..XXXXXXXXXXXXXXXXXXXXXXXX..  ",
"  ..XXXXXXXXXXXXXXXXXXXXXXXX..  ",
"  ..ooooooooXXooooXXoooooooo..  ",
"  ..ooooooooXXooooXXoooooooo..  ",
"  ..ooooooooXXooooXXoooooooo..  ",
"  ..ooooooooXXooooXXoooooooo..  ",
"                                ",
"                                "
};
