/* XPM */
static char *tile0021694787624[] = {
/* columns rows colors chars-per-pixel */
"32 32 7 1 ",
"  c #6CA246",
". c #192121",
"X c #9C5144",
"o c #F06643",
"O c #FFA767",
"+ c #F3CC9E",
"@ c #FFE0CB",
/* pixels */
"                                ",
"                                ",
"                                ",
"                                ",
"                                ",
"                                ",
"    ........        ........    ",
"    ........        ........    ",
"  ..++++++++..    ..++++++++..  ",
"  ..++++++++..    ..++++++++..  ",
"  ..++@@@@++..    ..++@@@@++..  ",
"  ..++@@@@++..    ..++@@@@++..  ",
"  ..++++++++..    ..++++++++..  ",
"  ..++++++++..    ..++++++++..  ",
"  ..OOOOOOOO..    ..OOOOOOOO..  ",
"  ..OOOOOOOO..    ..OOOOOOOO..  ",
"  ..ooOOOOoo..    ..ooOOOOoo..  ",
"  ..ooOOOOoo..    ..ooOOOOoo..  ",
"  ..oooooooo..    ..oooooooo..  ",
"  ..oooooooo..    ..oooooooo..  ",
"  ..oooooooo..    ..oooooooo..  ",
"  ..oooooooo..    ..oooooooo..  ",
"  ..oooooooo..    ..oooooooo..  ",
"  ..oooooooo..    ..oooooooo..  ",
"  XXooooooooXX    XXooooooooXX  ",
"  XXooooooooXX    XXooooooooXX  ",
"    XXXXXXXX        XXXXXXXX    ",
"    XXXXXXXX        XXXXXXXX    ",
"                                ",
"                                ",
"                                ",
"                                "
};
