/* XPM */
static char *tile1231694787639[] = {
/* columns rows colors chars-per-pixel */
"32 32 5 1 ",
"  c #6CA246",
". c #192121",
"X c #9C5144",
"o c #F06643",
"O c #FFA767",
/* pixels */
"                                ",
"                                ",
"................................",
"................................",
"OOOOOOOOOOOOOOOOOOOOOOOOOOOOOO..",
"OOOOOOOOOOOOOOOOOOOOOOOOOOOOOO..",
"OOOOOOOOOOOOOOOOOOOOOOOOOOOOOO..",
"OOOOOOOOOOOOOOOOOOOOOOOOOOOOOO..",
"OOOOOOOOOOOOOOOOOOOOOOOOOOOOOO..",
"OOOOOOOOOOOOOOOOOOOOOOOOOOOOOO..",
"OOOOOOOOOOOOOOOOOOOOOOOOOOOOOO..",
"OOOOOOOOOOOOOOOOOOOOOOOOOOOOOO..",
"OOOOOOOOOOOOOOOOOOOOOOOOOOOOOO..",
"OOOOOOOOOOOOOOOOOOOOOOOOOOOOOO..",
"OOOOOOOOOOOOOOOOOOOOOOOOOOOOOO..",
"OOOOOOOOOOOOOOOOOOOOOOOOOOOOOO..",
"oooooooooooooooooooooooooooooo..",
"oooooooooooooooooooooooooooooo..",
"oooooooooooooooooooooooooooooo..",
"oooooooooooooooooooooooooooooo..",
"..........................oooo..",
"..........................oooo..",
"XXXXXXXXXXXXXXXXXXXX......oooo..",
"XXXXXXXXXXXXXXXXXXXX......oooo..",
"XXXXXXXXXXXXXXXXXXXXXX....oooo..",
"XXXXXXXXXXXXXXXXXXXXXX....oooo..",
"XXXXXXXXXXXXXXXXXXXXXX....oooo..",
"XXXXXXXXXXXXXXXXXXXXXX....oooo..",
"XXXXXXXXXXXXXXXXXXXXXXXX..oooo..",
"XXXXXXXXXXXXXXXXXXXXXXXX..oooo..",
"ooooooooooooooooooooooooXXoooo..",
"ooooooooooooooooooooooooXXoooo.."
};
