/* XPM */
static char *result[] = {
/* columns rows colors chars-per-pixel */
"64 64 19 1 ",
"  c #170625",
". c #631629",
"X c #82293A",
"o c #F72E1A",
"O c #FF452E",
"+ c #FF5237",
"@ c #923747",
"# c #A34653",
"$ c #B65864",
"% c #FF6444",
"& c #F4654A",
"* c #FF7653",
"= c #D87A7E",
"- c #E4716A",
"; c #FF8F6A",
": c #FFAD8C",
"> c #E7A2A3",
", c #FCD0B8",
"< c None",
/* pixels */
"<<<<<<<<<<<<                <<<<<<<<<<<<<<<<<<<<<<<<<<<<<<<<<<<<",
"<<<<<<<<<<<<                <<<<<<<<<<<<<<<<<<<<<<<<<<<<<<<<<<<<",
"<<<<<<<<<<<<                <<<<<<<<<<<<<<<<<<<<<<<<<<<<<<<<<<<<",
"<<<<<<<<<<<<                <<<<<<<<<<<<<<<<<<<<<<<<<<<<<<<<<<<<",
"<<<<<<<<    OOOOOOOOooooOOOO        <<<<<<<<<<<<<<<<<<<<<<<<<<<<",
"<<<<<<<<    OOOOOOOOooooOOOO        <<<<<<<<<<<<<<<<<<<<<<<<<<<<",
"<<<<<<<<    OOOOOOOOooooOOOO        <<<<<<<<<<<<<<<<<<<<<<<<<<<<",
"<<<<<<<<    OOOOOOOOooooOOOO        <<<<<<<<<<<<<<<<<<<<<<<<<<<<",
"<<<<    OOOOoooo&&&&OOOO%%%%oooooooo    <<<<<<<<<<<<<<<<<<<<<<<<",
"<<<<    OOOOoooo&&&&OOOO%%%%oooooooo    <<<<<<<<<<<<<<<<<<<<<<<<",
"<<<<    OOOOoooo&&&&OOOO%%%%oooooooo    <<<<<<<<<<<<<<<<<<<<<<<<",
"<<<<    OOOOoooo&&&&OOOO%%%%oooooooo    <<<<<<<<<<<<<<<<<<<<<<<<",
"    XXXXooooOOOOoooo&&&&OOOO%%%%****%%%%    <<<<<<<<<<<<<<<<<<<<",
"    XXXXooooOOOOoooo&&&&OOOO%%%%****%%%%    <<<<<<<<<<<<<<<<<<<<",
"    XXXXooooOOOOoooo&&&&OOOO%%%%****%%%%    <<<<<<<<<<<<<<<<<<<<",
"    XXXXooooOOOOoooo&&&&OOOO%%%%****%%%%    <<<<<<<<<<<<<<<<<<<<",
"    ####OOOOoooo%%%%OOOO&&&&ooooOOOOOOOO%%%%    <<<<<<<<<<<<<<<<",
"    ####OOOOoooo%%%%OOOO&&&&ooooOOOOOOOO%%%%    <<<<<<<<<<<<<<<<",
"    ####OOOOoooo%%%%OOOO&&&&ooooOOOOOOOO%%%%    <<<<<<<<<<<<<<<<",
"    ####OOOOoooo%%%%OOOO&&&&ooooOOOOOOOO%%%%    <<<<<<<<<<<<<<<<",
"    $$$$oooo%%%%oooo%%%%,,,,====****;;;;OOOO%%%%    <<<<<<<<<<<<",
"    $$$$oooo%%%%oooo%%%%,,,,====****;;;;OOOO%%%%    <<<<<<<<<<<<",
"    $$$$oooo%%%%oooo%%%%,,,,====****;;;;OOOO%%%%    <<<<<<<<<<<<",
"    $$$$oooo%%%%oooo%%%%,,,,====****;;;;OOOO%%%%    <<<<<<<<<<<<",
"    ====####%%%%OOOO****OOOOXXXX====OOOO****OOOOOOOO    <<<<<<<<",
"    ====####%%%%OOOO****OOOOXXXX====OOOO****OOOOOOOO    <<<<<<<<",
"    ====####%%%%OOOO****OOOOXXXX====OOOO****OOOOOOOO    <<<<<<<<",
"    ====####%%%%OOOO****OOOOXXXX====OOOO****OOOOOOOO    <<<<<<<<",
"    ....====OOOO****OOOO****OOOO####====>>>>****%%%%    <<<<<<<<",
"    ....====OOOO****OOOO****OOOO####====>>>>****%%%%    <<<<<<<<",
"    ....====OOOO****OOOO****OOOO####====>>>>****%%%%    <<<<<<<<",
"    ....====OOOO****OOOO****OOOO####====>>>>****%%%%    <<<<<<<<",
"    ....XXXX====%%%%++++;;;;++++oooo$$$$----,,,,OOOOOOOO    <<<<",
"    ....XXXX====%%%%++++;;;;++++oooo$$$$----,,,,OOOOOOOO    <<<<",
"    ....XXXX====%%%%++++;;;;++++oooo$$$$----,,,,OOOOOOOO    <<<<",
"    ....XXXX====%%%%++++;;;;++++oooo$$$$----,,,,OOOOOOOO    <<<<",
"<<<<    ....XXXX====%%%%++++;;;;OOOOoooo$$$$---->>>>%%%%    <<<<",
"<<<<    ....XXXX====%%%%++++;;;;OOOOoooo$$$$---->>>>%%%%    <<<<",
"<<<<    ....XXXX====%%%%++++;;;;OOOOoooo$$$$---->>>>%%%%    <<<<",
"<<<<    ....XXXX====%%%%++++;;;;OOOOoooo$$$$---->>>>%%%%    <<<<",
"<<<<<<<<    XXXX####====OOOO::::++++****oooo$$$$----====    <<<<",
"<<<<<<<<    XXXX####====OOOO::::++++****oooo$$$$----====    <<<<",
"<<<<<<<<    XXXX####====OOOO::::++++****oooo$$$$----====    <<<<",
"<<<<<<<<    XXXX####====OOOO::::++++****oooo$$$$----====    <<<<",
"<<<<<<<<<<<<    XXXX####>>>>,,,,OOOO::::++++XXXX$$$$----    <<<<",
"<<<<<<<<<<<<    XXXX####>>>>,,,,OOOO::::++++XXXX$$$$----    <<<<",
"<<<<<<<<<<<<    XXXX####>>>>,,,,OOOO::::++++XXXX$$$$----    <<<<",
"<<<<<<<<<<<<    XXXX####>>>>,,,,OOOO::::++++XXXX$$$$----    <<<<",
"<<<<<<<<<<<<<<<<    XXXX####$$$$,,,,,,,,>>>>        ----    <<<<",
"<<<<<<<<<<<<<<<<    XXXX####$$$$,,,,,,,,>>>>        ----    <<<<",
"<<<<<<<<<<<<<<<<    XXXX####$$$$,,,,,,,,>>>>        ----    <<<<",
"<<<<<<<<<<<<<<<<    XXXX####$$$$,,,,,,,,>>>>        ----    <<<<",
"<<<<<<<<<<<<<<<<<<<<    XXXX####$$$$####$$$$    <<<<        <<<<",
"<<<<<<<<<<<<<<<<<<<<    XXXX####$$$$####$$$$    <<<<        <<<<",
"<<<<<<<<<<<<<<<<<<<<    XXXX####$$$$####$$$$    <<<<        <<<<",
"<<<<<<<<<<<<<<<<<<<<    XXXX####$$$$####$$$$    <<<<        <<<<",
"<<<<<<<<<<<<<<<<<<<<<<<<        @@@@$$$$####    <<<<<<<<<<<<<<<<",
"<<<<<<<<<<<<<<<<<<<<<<<<        @@@@$$$$####    <<<<<<<<<<<<<<<<",
"<<<<<<<<<<<<<<<<<<<<<<<<        @@@@$$$$####    <<<<<<<<<<<<<<<<",
"<<<<<<<<<<<<<<<<<<<<<<<<        @@@@$$$$####    <<<<<<<<<<<<<<<<",
"<<<<<<<<<<<<<<<<<<<<<<<<<<<<<<<<                <<<<<<<<<<<<<<<<",
"<<<<<<<<<<<<<<<<<<<<<<<<<<<<<<<<                <<<<<<<<<<<<<<<<",
"<<<<<<<<<<<<<<<<<<<<<<<<<<<<<<<<                <<<<<<<<<<<<<<<<",
"<<<<<<<<<<<<<<<<<<<<<<<<<<<<<<<<                <<<<<<<<<<<<<<<<"
};
