/* XPM */
static char *tile0131694787625[] = {
/* columns rows colors chars-per-pixel */
"32 32 6 1 ",
"  c #6CA246",
". c #192121",
"X c #9C5144",
"o c #F06643",
"O c #FFA767",
"+ c #F3CC9E",
/* pixels */
"                                ",
"                                ",
"            ............        ",
"            ............        ",
"          ..OOOOOOOOOOOO..      ",
"          ..OOOOOOOOOOOO..      ",
"        ..OOOOXXXXXXXXOOoo..    ",
"        ..OOOOXXXXXXXXOOoo..    ",
"        ..oo++++OOOOOOOOoo..    ",
"        ..oo++++OOOOOOOOoo..    ",
"          ..oooooooooooo..      ",
"          ..oooooooooooo..      ",
"          ..ooOOoooooooo..      ",
"          ..ooOOoooooooo..      ",
"          ..ooOOoooo......      ",
"          ..ooOOoooo......      ",
"          ..oooooo......        ",
"          ..oooooo......        ",
"          ..oooo........        ",
"          ..oooo........        ",
"          ..ooOO..XXXXXX..      ",
"          ..ooOO..XXXXXX..      ",
"          ..ooOOooXXXXoo..      ",
"          ..ooOOooXXXXoo..      ",
"          ..ooOOoooooooo..      ",
"          ..ooOOoooooooo..      ",
"          ..oooooooooooo..      ",
"          ..oooooooooooo..      ",
"          XXooooooooooooXX      ",
"          XXooooooooooooXX      ",
"            XXXXXXXXXXXX        ",
"            XXXXXXXXXXXX        "
};
