/* XPM */
static char *_e6df7ded20749a2d8a768ef3d1db507RDqLuEVowQZl3sLu[] = {
/* columns rows colors chars-per-pixel */
"64 64 24 1 ",
"  c black",
". c #150525",
"X c #1B1030",
"o c #1F1130",
"O c #1A102F",
"+ c None",
"@ c #201030",
"# c #65020E",
"$ c #CA2B37",
"% c #66020E",
"& c #E7584D",
"* c #F37833",
"= c #43020E",
"- c #E8807D",
"; c #D27878",
": c #E9B2B2",
"> c #EBD1D0",
", c #FFFEE8",
"< c #EC462E",
"1 c #F35E17",
"2 c #EADFD9",
"3 c #B89CAA",
"4 c #FF9C58",
"5 c white",
/* pixels */
"                ########                                        ",
"                ########                                        ",
"                ########                                        ",
"                ########                                        ",
"            ####$$$$####                                        ",
"            ####$$$$####                                        ",
"            ####$$$$####                                        ",
"            ####$$$$####                                        ",
"        %%%%$$$$&&&&####                                        ",
"        %%%%$$$$&&&&####                                        ",
"        %%%%$$$$&&&&####                                        ",
"        %%%%$$$$&&&&####                                        ",
"    %%%%$$$$&&&&****####                                        ",
"    %%%%$$$$&&&&****####                                        ",
"    %%%%$$$$&&&&****####                                        ",
"    %%%%$$$$&&&&****####                                        ",
"    %%%%&&&&****####                                            ",
"    %%%%&&&&****####                                            ",
"    %%%%&&&&****####                                            ",
"    %%%%&&&&****####                                            ",
"====&&&&----%%%%                                                ",
"====&&&&----%%%%                                                ",
"====&&&&----%%%%                                                ",
"====&&&&----%%%%                                                ",
"====;;;;::::>>>>%%%%    %%%%        ,,,,,,,,,,,,,,,,            ",
"====;;;;::::>>>>%%%%    %%%%        ,,,,,,,,,,,,,,,,            ",
"====;;;;::::>>>>%%%%    %%%%        ,,,,,,,,,,,,,,,,            ",
"====;;;;::::>>>>%%%%    %%%%        ,,,,,,,,,,,,,,,,            ",
"%%%%<<<<********1111%%%%    %%%%,,,,222222222222,,,,,,,,,,,,    ",
"%%%%<<<<********1111%%%%    %%%%,,,,222222222222,,,,,,,,,,,,    ",
"%%%%<<<<********1111%%%%    %%%%,,,,222222222222,,,,,,,,,,,,    ",
"%%%%<<<<********1111%%%%    %%%%,,,,222222222222,,,,,,,,,,,,    ",
"====;;;;::::>>>>----%%%%    %%%%    ,,,,33333333222222222222====",
"====;;;;::::>>>>----%%%%    %%%%    ,,,,33333333222222222222====",
"====;;;;::::>>>>----%%%%    %%%%    ,,,,33333333222222222222====",
"====;;;;::::>>>>----%%%%    %%%%    ,,,,33333333222222222222====",
"====3333::::>>>>****1111%%%%    %%%%%%%%----::::::::33333333====",
"====3333::::>>>>****1111%%%%    %%%%%%%%----::::::::33333333====",
"====3333::::>>>>****1111%%%%    %%%%%%%%----::::::::33333333====",
"====3333::::>>>>****1111%%%%    %%%%%%%%----::::::::33333333====",
"    %%%%1111****>>>>----1111%%%%%%%%1111::::>>>>::::::::3333====",
"    %%%%1111****>>>>----1111%%%%%%%%1111::::>>>>::::::::3333====",
"    %%%%1111****>>>>----1111%%%%%%%%1111::::>>>>::::::::3333====",
"    %%%%1111****>>>>----1111%%%%%%%%1111::::>>>>::::::::3333====",
"    ====;;;;::::::::1111----1111----****>>>>::::::::::::==== ...",
"    ====;;;;::::::::1111----1111----****>>>>::::::::::::==== ...",
"    ====;;;;::::::::1111----1111----****>>>>::::::::::::==== ...",
"    ====;;;;::::::::1111----1111----****>>>>::::::::::::==== ...",
"        ====;;;;<<<<>>>>,,,,4444,,,,>>>>****::::::::3333==== ...",
"        ====;;;;<<<<>>>>,,,,4444,,,,>>>>****::::::::3333==== ...",
"        ====;;;;<<<<>>>>,,,,4444,,,,>>>>****::::::::3333==== ...",
"        ====;;;;<<<<>>>>,,,,4444,,,,>>>>****::::::::3333==== ...",
"            %%%%;;;;3333::::1111>>>>::::1111;;;;3333====        ",
"            %%%%;;;;3333::::1111>>>>::::1111;;;;3333====        ",
"            %%%%;;;;3333::::1111>>>>::::1111;;;;3333====        ",
"            %%%%;;;;3333::::1111>>>>::::1111;;;;3333====        ",
"                ========;;;;<<<<;;;;3333;;;;%%%%====            ",
"                ========;;;;<<<<;;;;3333;;;;%%%%====            ",
"                ========;;;;<<<<;;;;3333;;;;%%%%====            ",
"                ========;;;;<<<<;;;;3333;;;;%%%%====            ",
"            XXXXooooOOOO====%%%%============++++@@@@            ",
"            XXXXooooOOOO====%%%%============++++@@@@            ",
"            XXXXooooOOOO====%%%%============++++@@@@            ",
"            XXXXooooOOOO====%%%%============++++@@@@            "
};
