/* XPM */
static char *tile1641694787644[] = {
/* columns rows colors chars-per-pixel */
"32 32 6 1 ",
"  c #6CA246",
". c #192121",
"X c #3E3944",
"o c #9C5144",
"O c #F06643",
"+ c #FFA767",
/* pixels */
"                                ",
"                                ",
"                                ",
"                                ",
"............................    ",
"............................    ",
"++++++++++++++++++++++++++..    ",
"++++++++++++++++++++++++++..    ",
"++++++++++++++++++++++++++..    ",
"++++++++++++++++++++++++++..    ",
"++++++++++++++++++++++++++..    ",
"++++++++++++++++++++++++++..    ",
"++++++++++++++++++++++++++..    ",
"++++++++++++++++++++++++++..    ",
"++++++++++++++++++++++++++..    ",
"++++++++++++++++++++++++++..    ",
"++++++++++++++++++++++++++..    ",
"++++++++++++++++++++++++++..    ",
"++++++++++++++++++++++++++..    ",
"++++++++++++++++++++++++++..    ",
"OOOOOOOOOOOOOOOOOOOOOOOOOO..    ",
"OOOOOOOOOOOOOOOOOOOOOOOOOO..    ",
"OOOOOOOOOOOOOOOOOOOOOOOOOO..    ",
"OOOOOOOOOOOOOOOOOOOOOOOOOO..    ",
"XXXXXXXXXXXXXXXXXXXXXX......    ",
"XXXXXXXXXXXXXXXXXXXXXX......    ",
"oooooooooooooooooooooo..        ",
"oooooooooooooooooooooo..        ",
"ooooooooooooooooOOOO..          ",
"ooooooooooooooooOOOO..          ",
"                                ",
"                                "
};
