/* XPM */
static char *result[] = {
/* columns rows colors chars-per-pixel */
"64 64 14 1 ",
"  c #170625",
". c #402A24",
"X c #5C3C28",
"o c #804F27",
"O c #966928",
"+ c #B37E32",
"@ c #AD910E",
"# c #B89F19",
"$ c #C2AE1E",
"% c #D6C037",
"& c #E6D945",
"* c #F4F14A",
"= c #FAFE72",
"- c None",
/* pixels */
"----------------------------------------------------------------",
"----------------------------------------------------------------",
"----------------------------------------------------------------",
"----------------------------------------------------------------",
"----------------------------------------------------        ----",
"----------------------------------------------------        ----",
"----------------------------------------------------        ----",
"----------------------------------------------------        ----",
"------------------------------------------------    $$$$&&&&    ",
"------------------------------------------------    $$$$&&&&    ",
"------------------------------------------------    $$$$&&&&    ",
"------------------------------------------------    $$$$&&&&    ",
"--------------------------------------------    %%%%$$$$&&&&    ",
"--------------------------------------------    %%%%$$$$&&&&    ",
"--------------------------------------------    %%%%$$$$&&&&    ",
"--------------------------------------------    %%%%$$$$&&&&    ",
"----------------------------------------    ****&&&&$$$$%%%%    ",
"----------------------------------------    ****&&&&$$$$%%%%    ",
"----------------------------------------    ****&&&&$$$$%%%%    ",
"----------------------------------------    ****&&&&$$$$%%%%    ",
"------------------------------------    &&&&****&&&&$$$$%%%%    ",
"------------------------------------    &&&&****&&&&$$$$%%%%    ",
"------------------------------------    &&&&****&&&&$$$$%%%%    ",
"------------------------------------    &&&&****&&&&$$$$%%%%    ",
"----                    --------    &&&&&&&&====%%%%$$$$%%%%    ",
"----                    --------    &&&&&&&&====%%%%$$$$%%%%    ",
"----                    --------    &&&&&&&&====%%%%$$$$%%%%    ",
"----                    --------    &&&&&&&&====%%%%$$$$%%%%    ",
"    ++++****########@@@@        &&&&&&&&====%%%%$$$$%%%%OOOO    ",
"    ++++****########@@@@        &&&&&&&&====%%%%$$$$%%%%OOOO    ",
"    ++++****########@@@@        &&&&&&&&====%%%%$$$$%%%%OOOO    ",
"    ++++****########@@@@        &&&&&&&&====%%%%$$$$%%%%OOOO    ",
"    XXXX++++****####%%%%@@@@&&&&****====%%%%$$$$$$$$%%%%OOOO    ",
"    XXXX++++****####%%%%@@@@&&&&****====%%%%$$$$$$$$%%%%OOOO    ",
"    XXXX++++****####%%%%@@@@&&&&****====%%%%$$$$$$$$%%%%OOOO    ",
"    XXXX++++****####%%%%@@@@&&&&****====%%%%$$$$$$$$%%%%OOOO    ",
"    ooooOOOO&&&&####$$$$%%%%%%%%&&&&%%%%$$$$$$$$%%%%OOOO    ----",
"    ooooOOOO&&&&####$$$$%%%%%%%%&&&&%%%%$$$$$$$$%%%%OOOO    ----",
"    ooooOOOO&&&&####$$$$%%%%%%%%&&&&%%%%$$$$$$$$%%%%OOOO    ----",
"    ooooOOOO&&&&####$$$$%%%%%%%%&&&&%%%%$$$$$$$$%%%%OOOO    ----",
"    XXXXooooOOOO&&&&####$$$$%%%%%%%%$$$$$$$$%%%%++++    --------",
"    XXXXooooOOOO&&&&####$$$$%%%%%%%%$$$$$$$$%%%%++++    --------",
"    XXXXooooOOOO&&&&####$$$$%%%%%%%%$$$$$$$$%%%%++++    --------",
"    XXXXooooOOOO&&&&####$$$$%%%%%%%%$$$$$$$$%%%%++++    --------",
"    ....XXXXXXXXOOOO%%%%####$$$$$$$$%%%%%%%%++++    ------------",
"    ....XXXXXXXXOOOO%%%%####$$$$$$$$%%%%%%%%++++    ------------",
"    ....XXXXXXXXOOOO%%%%####$$$$$$$$%%%%%%%%++++    ------------",
"    ....XXXXXXXXOOOO%%%%####$$$$$$$$%%%%%%%%++++    ------------",
"----        ....XXXXOOOO%%%%%%%%%%%%OOOO++++    ----------------",
"----        ....XXXXOOOO%%%%%%%%%%%%OOOO++++    ----------------",
"----        ....XXXXOOOO%%%%%%%%%%%%OOOO++++    ----------------",
"----        ....XXXXOOOO%%%%%%%%%%%%OOOO++++    ----------------",
"------------        ooooOOOOOOOOOOOO        --------------------",
"------------        ooooOOOOOOOOOOOO        --------------------",
"------------        ooooOOOOOOOOOOOO        --------------------",
"------------        ooooOOOOOOOOOOOO        --------------------",
"--------------------                ----------------------------",
"--------------------                ----------------------------",
"--------------------                ----------------------------",
"--------------------                ----------------------------",
"----------------------------------------------------------------",
"----------------------------------------------------------------",
"----------------------------------------------------------------",
"----------------------------------------------------------------"
};
