/* XPM */
static char *tile0111694787625[] = {
/* columns rows colors chars-per-pixel */
"32 32 5 1 ",
"  c #6CA246",
". c #192121",
"X c #9C5144",
"o c #F06643",
"O c #F3CC9E",
/* pixels */
"                                ",
"                                ",
"                                ",
"                                ",
"                                ",
"                                ",
"                                ",
"                                ",
"          ............          ",
"          ............          ",
"        ..OOOOOOOOOOOO..        ",
"        ..OOOOOOOOOOOO..        ",
"        ..OOOOOOOOOOOO..        ",
"        ..OOOOOOOOOOOO..        ",
"        ..OOOOOOOOOOOO..        ",
"        ..OOOOOOOOOOOO..        ",
"        ..ooOOOOOOOOoo..        ",
"        ..ooOOOOOOOOoo..        ",
"          ..oooooooo..          ",
"          ..oooooooo..          ",
"        ..ooooOOOOoooo..        ",
"        ..ooooOOOOoooo..        ",
"      ..ooooooOOOOoooooo..      ",
"      ..ooooooOOOOoooooo..      ",
"      ..XXXX..OOOO..XXXX..      ",
"      ..XXXX..OOOO..XXXX..      ",
"            ..oooo..            ",
"            ..oooo..            ",
"            ..XXXX..            ",
"            ..XXXX..            ",
"                                ",
"                                "
};
