/* XPM */
static char *tile0921694787635[] = {
/* columns rows colors chars-per-pixel */
"32 32 4 1 ",
"  c #6CA246",
". c #E08653",
"X c #F8C079",
"o c #FFDE94",
/* pixels */
"    ..  ..                      ",
"    ..  ..                      ",
"  ..XX..XX....................  ",
"  ..XX..XX....................  ",
"..XXXX..XX..XXooooooXXXXXXXXXX..",
"..XXXX..XX..XXooooooXXXXXXXXXX..",
"..XXXX..XXXXXXXXXXXXooXXooXX..  ",
"..XXXX..XXXXXXXXXXXXooXXooXX..  ",
"..XXooooXXooooooooXXooXXXXXXXX..",
"..XXooooXXooooooooXXooXXXXXXXX..",
"....XXXXXXXXXXXXXXXXXXXXXX....  ",
"....XXXXXXXXXXXXXXXXXXXXXX....  ",
"..XXooooXXooXXooXXXXXXXXXXooXX..",
"..XXooooXXooXXooXXXXXXXXXXooXX..",
"  ....XXXXooXXXXXXXXXXXXXX....  ",
"  ....XXXXooXXXXXXXXXXXXXX....  ",
"..XXXXXXXXXXXXXXXXXXXXXXXXXX..  ",
"..XXXXXXXXXXXXXXXXXXXXXXXXXX..  ",
"  ......ooooooXXXXXXXXXXXXXXXX..",
"  ......ooooooXXXXXXXXXXXXXXXX..",
"  ..XXXXXXXXXXXXXXXXXXXXXXXX..  ",
"  ..XXXXXXXXXXXXXXXXXXXXXXXX..  ",
"..XXooooooooXXooXXXXXXXXXX..    ",
"..XXooooooooXXooXXXXXXXXXX..    ",
"  ..XXXXXXXXXXXXXXXXXXXXXXXX..  ",
"  ..XXXXXXXXXXXXXXXXXXXXXXXX..  ",
"..XXXXXXXXXXXXXXXXXXXXXXXXXXXX..",
"..XXXXXXXXXXXXXXXXXXXXXXXXXXXX..",
"  ....XXXXXXXXXXXXXXXXXXXXXX..  ",
"  ....XXXXXXXXXXXXXXXXXXXXXX..  ",
"                                ",
"                                "
};
