/* XPM */
static char *tile0801694787634[] = {
/* columns rows colors chars-per-pixel */
"32 32 5 1 ",
"  c #6CA246",
". c #192121",
"X c #9C5144",
"o c #C4755D",
"O c #D6B081",
/* pixels */
"                                ",
"                                ",
"            ........            ",
"            ........            ",
"            ..OOOO..            ",
"            ..OOOO..            ",
"          ....OOOO....          ",
"          ....OOOO....          ",
"        ..OOOOOOOOOOOO..        ",
"        ..OOOOOOOOOOOO..        ",
"    ......OOOO....OOOO......    ",
"    ......OOOO....OOOO......    ",
"    ..OOOOOO..    ..OOOOOO..    ",
"    ..OOOOOO..    ..OOOOOO..    ",
"    ......ooooOOOOoooo......    ",
"    ......ooooOOOOoooo......    ",
"          ..oooooooo..          ",
"          ..oooooooo..          ",
"      ....OO..oooo..OO....      ",
"      ....OO..oooo..OO....      ",
"    ..OOOOOOooooooooOOOOOO..    ",
"    ..OOOOOOooooooooOOOOOO..    ",
"  ..OOOOooooooooooooooooOOOO..  ",
"  ..OOOOooooooooooooooooOOOO..  ",
"  ..OOooooooooooooooooooooOO..  ",
"  ..OOooooooooooooooooooooOO..  ",
"  ..ooooXXXXXXooXXXXXXXXoooo..  ",
"  ..ooooXXXXXXooXXXXXXXXoooo..  ",
"  ..oooooooooooooooooooooooo..  ",
"  ..oooooooooooooooooooooooo..  ",
"  ..ooooXXXXXXXXooXXXXXXoooo..  ",
"  ..ooooXXXXXXXXooXXXXXXoooo..  "
};
