/* XPM */
static char *tile1181694787639[] = {
/* columns rows colors chars-per-pixel */
"32 32 5 1 ",
"  c #6CA246",
". c #192121",
"X c #3E3944",
"o c #9C5144",
"O c #F06643",
/* pixels */
"                                ",
"                                ",
"                                ",
"                                ",
"                                ",
"                                ",
"                                ",
"                                ",
"                                ",
"                                ",
"                                ",
"                                ",
"                                ",
"                                ",
"                                ",
"                                ",
"                                ",
"                                ",
"        ........................",
"        ........................",
"    ....OOOOOOOOOOOOOOOOOOOOOOOO",
"    ....OOOOOOOOOOOOOOOOOOOOOOOO",
"  ..OOOOOOOOOOOOOOOOOOOOOOOOOOOO",
"  ..OOOOOOOOOOOOOOOOOOOOOOOOOOOO",
"  ..OOOOOOOOOOOOOOOOOOOOOOOOOOOO",
"  ..OOOOOOOOOOOOOOOOOOOOOOOOOOOO",
"..OOOOOOOOOOOOOOOOOOOOOOOOOOOOOO",
"..OOOOOOOOOOOOOOOOOOOOOOOOOOOOOO",
"..OOOOOOoooooooooooooooooooooooo",
"..OOOOOOoooooooooooooooooooooooo",
"..OOooooXXXXXXXXXXXXXXXXXXXXXXXX",
"..OOooooXXXXXXXXXXXXXXXXXXXXXXXX"
};
