/* XPM */
static char *result[] = {
/* columns rows colors chars-per-pixel */
"64 64 27 1 ",
"  c #170625",
". c #A43E0E",
"X c #CE4F0E",
"o c #CF4F0E",
"O c #CE500E",
"+ c #E9790E",
"@ c #E97A0E",
"# c #EA7A0E",
"$ c #ED9828",
"% c #ED9928",
"& c #EF9928",
"* c #EF9929",
"= c #F09A2B",
"- c #F09B2B",
"; c #F19B2B",
": c #FFC137",
"> c #FFC237",
", c #FAB440",
"< c #FAB640",
"1 c #FBB642",
"2 c #FFDF59",
"3 c #FFDE5B",
"4 c #FFE05B",
"5 c #FFFE61",
"6 c #FFFE62",
"7 c #FFFEBD",
"8 c None",
/* pixels */
"8888888888888888888888888888888888888888888888888888888888888888",
"8888888888888888888888888888888888888888888888888888888888888888",
"8888888888888888888888888888888888888888888888888888888888888888",
"8888888888888888888888888888888888888888888888888888888888888888",
"888888888888888888888888                        8888888888888888",
"888888888888888888888888                        8888888888888888",
"888888888888888888888888                        8888888888888888",
"888888888888888888888888                        8888888888888888",
"8888888888888888        ::::2222222244442222::::        88888888",
"8888888888888888        ::::2222222244442222::::        88888888",
"8888888888888888        ::::2222222244442222::::        88888888",
"8888888888888888        ::::2222222244442222::::        88888888",
"888888888888    >>>>4444$$$$++++>>>>::::$$$$++++4444>>>>    8888",
"888888888888    >>>>4444$$$$++++>>>>::::$$$$++++4444>>>>    8888",
"888888888888    >>>>4444$$$$++++>>>>::::$$$$++++4444>>>>    8888",
"888888888888    >>>>4444$$$$++++>>>>::::$$$$++++4444>>>>    8888",
"88888888    2222&&&&++++>>>>4444&&&&####22222222&&&&####>>>>    ",
"88888888    2222&&&&++++>>>>4444&&&&####22222222&&&&####>>>>    ",
"88888888    2222&&&&++++>>>>4444&&&&####22222222&&&&####>>>>    ",
"88888888    2222&&&&++++>>>>4444&&&&####22222222&&&&####>>>>    ",
"88888888    4444>>>>2222$$$$++++6666777777777777666644442222    ",
"88888888    4444>>>>2222$$$$++++6666777777777777666644442222    ",
"88888888    4444>>>>2222$$$$++++6666777777777777666644442222    ",
"88888888    4444>>>>2222$$$$++++6666777777777777666644442222    ",
"88888888    2222****++++22223333####666666667777$$$$++++4444    ",
"88888888    2222****++++22223333####666666667777$$$$++++4444    ",
"88888888    2222****++++22223333####666666667777$$$$++++4444    ",
"88888888    2222****++++22223333####666666667777$$$$++++4444    ",
"8888    ....,,,,>>>>4444$$$$####::::66662222555522222222====    ",
"8888    ....,,,,>>>>4444$$$$####::::66662222555522222222====    ",
"8888    ....,,,,>>>>4444$$$$####::::66662222555522222222====    ",
"8888    ....,,,,>>>>4444$$$$####::::66662222555522222222====    ",
"    ####XXXX====;;;;;;;;>>>>::::>>>>4444::::2222========1111    ",
"    ####XXXX====;;;;;;;;>>>>::::>>>>4444::::2222========1111    ",
"    ####XXXX====;;;;;;;;>>>>::::>>>>4444::::2222========1111    ",
"    ####XXXX====;;;;;;;;>>>>::::>>>>4444::::2222========1111    ",
"    3333####OOOO====,,,,========>>>>4444----====,,,,<<<<    8888",
"    3333####OOOO====,,,,========>>>>4444----====,,,,<<<<    8888",
"    3333####OOOO====,,,,========>>>>4444----====,,,,<<<<    8888",
"    3333####OOOO====,,,,========>>>>4444----====,,,,<<<<    8888",
"    ::::&&&&****++++oooo,,,,1111####4444----1111....    88888888",
"    ::::&&&&****++++oooo,,,,1111####4444----1111....    88888888",
"    ::::&&&&****++++oooo,,,,1111####4444----1111....    88888888",
"    ::::&&&&****++++oooo,,,,1111####4444----1111....    88888888",
"    ====::::4444%%%%%%%%@@@@XXXX6666oooo####oooooooo    88888888",
"    ====::::4444%%%%%%%%@@@@XXXX6666oooo####oooooooo    88888888",
"    ====::::4444%%%%%%%%@@@@XXXX6666oooo####oooooooo    88888888",
"    ====::::4444%%%%%%%%@@@@XXXX6666oooo####oooooooo    88888888",
"    XXXX====;;;;::::2222333366662222>>>>>>>>========    88888888",
"    XXXX====;;;;::::2222333366662222>>>>>>>>========    88888888",
"    XXXX====;;;;::::2222333366662222>>>>>>>>========    88888888",
"    XXXX====;;;;::::2222333366662222>>>>>>>>========    88888888",
"8888    oooo====;;;;;;;;====>>>>----====;;;;====    888888888888",
"8888    oooo====;;;;;;;;====>>>>----====;;;;====    888888888888",
"8888    oooo====;;;;;;;;====>>>>----====;;;;====    888888888888",
"8888    oooo====;;;;;;;;====>>>>----====;;;;====    888888888888",
"88888888        oooo;;;;====>>>>::::XXXX        8888888888888888",
"88888888        oooo;;;;====>>>>::::XXXX        8888888888888888",
"88888888        oooo;;;;====>>>>::::XXXX        8888888888888888",
"88888888        oooo;;;;====>>>>::::XXXX        8888888888888888",
"8888888888888888                        888888888888888888888888",
"8888888888888888                        888888888888888888888888",
"8888888888888888                        888888888888888888888888",
"8888888888888888                        888888888888888888888888"
};
