/* XPM */
static char *tile2011694787650[] = {
/* columns rows colors chars-per-pixel */
"32 32 6 1 ",
"  c #6CA246",
". c #192121",
"X c #3E4D45",
"o c #5D7161",
"O c #748471",
"+ c #8B9680",
/* pixels */
"                  ............  ",
"                  ............  ",
"                  ..++++++++..  ",
"                  ..++++++++..  ",
"          ..........++++++++..  ",
"          ..........++++++++..  ",
"          ..++++++OO++++++++..  ",
"          ..++++++OO++++++++..  ",
"  ..........++++++OO++++++++..  ",
"  ..........++++++OO++++++++..  ",
"  ..++++++OO++++++OO++++++++..  ",
"  ..++++++OO++++++OO++++++++..  ",
"  ..++++++OO++++++OO++++++++..  ",
"  ..++++++OO++++++OO++++++++..  ",
"  ..++++++OO++++++OO++++++++..  ",
"  ..++++++OO++++++OO++++++++..  ",
"  ..++++++OO++++++OO++++++++..  ",
"  ..++++++OO++++++OO++++++++..  ",
"  ..++++++OO++++++OOOOOOOOOO..  ",
"  ..++++++OO++++++OOOOOOOOOO..  ",
"  ..++++++OO++++++OOoooooooo..  ",
"  ..++++++OO++++++OOoooooooo..  ",
"  ..++++++OOOOOOOOOOoooooooo..  ",
"  ..++++++OOOOOOOOOOoooooooo..  ",
"  ..++++++OOoooooooooooooooo..  ",
"  ..++++++OOoooooooooooooooo..  ",
"  ..OOOOOOOOoooooooooooooooo..  ",
"  ..OOOOOOOOoooooooooooooooo..  ",
"    XXXXXXXXXXXXXXXXXXXXXXXX    ",
"    XXXXXXXXXXXXXXXXXXXXXXXX    ",
"                                ",
"                                "
};
