/* XPM */
static char *tile1351694787641[] = {
/* columns rows colors chars-per-pixel */
"32 32 5 1 ",
"  c #F06643",
". c #3E3944",
"X c #9C5144",
"o c #192121",
"O c white",
/* pixels */
"                        ..XX  oo",
"                        ..XX  oo",
"XXXXXXXXXXXXXXXXXXXXXXXX  ..XXoo",
"XXXXXXXXXXXXXXXXXXXXXXXX  ..XXoo",
"XXXXXXXXXX....XXXX....XXXX..XXoo",
"XXXXXXXXXX....XXXX....XXXX..XXoo",
"XXXXXXXXXXooXXXXXXXXooXXXX..XXoo",
"XXXXXXXXXXooXXXXXXXXooXXXX..XXoo",
"XXXXXXXXXX..oooooooo..XXXX..XXoo",
"XXXXXXXXXX..oooooooo..XXXX..XXoo",
"XXXXXXXXXXXXXXXXXXXXXXXXXX..XXoo",
"XXXXXXXXXXXXXXXXXXXXXXXXXX..XXoo",
"............................XXoo",
"............................XXoo",
"XXXXXXXXXXXXXXXXXXXXXXXXXXXXXXoo",
"XXXXXXXXXXXXXXXXXXXXXXXXXXXXXXoo",
"..........................XXXXoo",
"..........................XXXXoo",
"XXXXXXXXXXXXXXXXXXXXXXXXXX..XXoo",
"XXXXXXXXXXXXXXXXXXXXXXXXXX..XXoo",
"XXXXXXXXXX....XXXX....XXXX..XXoo",
"XXXXXXXXXX....XXXX....XXXX..XXoo",
"XXXXXXXXXXooXXXXXXXXooXXXX..XXoo",
"XXXXXXXXXXooXXXXXXXXooXXXX..XXoo",
"XXXXXXXXXX..oooooooo..XXXX..XXoo",
"XXXXXXXXXX..oooooooo..XXXX..XXoo",
"XXXXXXXXXXXXXXXXXXXXXXXXXX..XXoo",
"XXXXXXXXXXXXXXXXXXXXXXXXXX..XXoo",
"............................XXoo",
"............................XXoo",
"XXXXXXXXXXXXXXXXXXXXXXXXXXXXXXoo",
"XXXXXXXXXXXXXXXXXXXXXXXXXXXXXXoo"
};
