/* XPM */
static char *result[] = {
/* columns rows colors chars-per-pixel */
"64 64 9 1 ",
"  c #170625",
". c #D44A0E",
"X c #E66F0E",
"o c #FF970E",
"O c #FFA80E",
"+ c #FFD30E",
"@ c #FFF419",
"# c #FFFE4C",
"$ c None",
/* pixels */
"$$$$$$$$$$$$$$$$$$$$$$$$$$$$$$$$    $$$$$$$$$$$$    $$$$$$$$$$$$",
"$$$$$$$$$$$$$$$$$$$$$$$$$$$$$$$$    $$$$$$$$$$$$    $$$$$$$$$$$$",
"$$$$$$$$$$$$$$$$$$$$$$$$$$$$$$$$    $$$$$$$$$$$$    $$$$$$$$$$$$",
"$$$$$$$$$$$$$$$$$$$$$$$$$$$$$$$$    $$$$$$$$$$$$    $$$$$$$$$$$$",
"$$$$$$$$$$$$$$$$$$$$$$$$$$$$    ++++    $$$$    ++++    $$$$$$$$",
"$$$$$$$$$$$$$$$$$$$$$$$$$$$$    ++++    $$$$    ++++    $$$$$$$$",
"$$$$$$$$$$$$$$$$$$$$$$$$$$$$    ++++    $$$$    ++++    $$$$$$$$",
"$$$$$$$$$$$$$$$$$$$$$$$$$$$$    ++++    $$$$    ++++    $$$$$$$$",
"$$$$$$$$$$$$$$$$$$$$$$$$    ####....####    @@@@....####    $$$$",
"$$$$$$$$$$$$$$$$$$$$$$$$    ####....####    @@@@....####    $$$$",
"$$$$$$$$$$$$$$$$$$$$$$$$    ####....####    @@@@....####    $$$$",
"$$$$$$$$$$$$$$$$$$$$$$$$    ####....####    @@@@....####    $$$$",
"$$$$$$$$$$$$$$$$$$$$    ++++ooooXXXX....@@@@ooooXXXX....####    ",
"$$$$$$$$$$$$$$$$$$$$    ++++ooooXXXX....@@@@ooooXXXX....####    ",
"$$$$$$$$$$$$$$$$$$$$    ++++ooooXXXX....@@@@ooooXXXX....####    ",
"$$$$$$$$$$$$$$$$$$$$    ++++ooooXXXX....@@@@ooooXXXX....####    ",
"$$$$$$$$$$$$$$$$    ####....####oooo++++....####oooo++++....    ",
"$$$$$$$$$$$$$$$$    ####....####oooo++++....####oooo++++....    ",
"$$$$$$$$$$$$$$$$    ####....####oooo++++....####oooo++++....    ",
"$$$$$$$$$$$$$$$$    ####....####oooo++++....####oooo++++....    ",
"$$$$$$$$$$$$    ####ooooXXXX....++++ooooXXXX....++++....XXXX    ",
"$$$$$$$$$$$$    ####ooooXXXX....++++ooooXXXX....++++....XXXX    ",
"$$$$$$$$$$$$    ####ooooXXXX....++++ooooXXXX....++++....XXXX    ",
"$$$$$$$$$$$$    ####ooooXXXX....++++ooooXXXX....++++....XXXX    ",
"$$$$$$$$$$$$    ....####oooo++++....####oooo@@@@....####    $$$$",
"$$$$$$$$$$$$    ....####oooo++++....####oooo@@@@....####    $$$$",
"$$$$$$$$$$$$    ....####oooo++++....####oooo@@@@....####    $$$$",
"$$$$$$$$$$$$    ....####oooo++++....####oooo@@@@....####    $$$$",
"$$$$$$$$$$$$    ........@@@@ooooXXXX....@@@@ooooXXXX....####    ",
"$$$$$$$$$$$$    ........@@@@ooooXXXX....@@@@ooooXXXX....####    ",
"$$$$$$$$$$$$    ........@@@@ooooXXXX....@@@@ooooXXXX....####    ",
"$$$$$$$$$$$$    ........@@@@ooooXXXX....@@@@ooooXXXX....####    ",
"$$$$$$$$$$$$$$$$    XXXX....####oooo++++XXXX####oooo++++XXXX    ",
"$$$$$$$$$$$$$$$$    XXXX....####oooo++++XXXX####oooo++++XXXX    ",
"$$$$$$$$$$$$$$$$    XXXX....####oooo++++XXXX####oooo++++XXXX    ",
"$$$$$$$$$$$$$$$$    XXXX....####oooo++++XXXX####oooo++++XXXX    ",
"$$$$$$$$            ....ooooXXXX@@@@XXXX........@@@@XXXXOOOO    ",
"$$$$$$$$            ....ooooXXXX@@@@XXXX........@@@@XXXXOOOO    ",
"$$$$$$$$            ....ooooXXXX@@@@XXXX........@@@@XXXXOOOO    ",
"$$$$$$$$            ....ooooXXXX@@@@XXXX........@@@@XXXXOOOO    ",
"$$$$    ....XXXX....oooo....XXXXOOOOOOOO    ....OOOOOOOO    $$$$",
"$$$$    ....XXXX....oooo....XXXXOOOOOOOO    ....OOOOOOOO    $$$$",
"$$$$    ....XXXX....oooo....XXXXOOOOOOOO    ....OOOOOOOO    $$$$",
"$$$$    ....XXXX....oooo....XXXXOOOOOOOO    ....OOOOOOOO    $$$$",
"    ....OOOOXXXXXXXX++++    ....OOOO    $$$$    OOOO    $$$$$$$$",
"    ....OOOOXXXXXXXX++++    ....OOOO    $$$$    OOOO    $$$$$$$$",
"    ....OOOOXXXXXXXX++++    ....OOOO    $$$$    OOOO    $$$$$$$$",
"    ....OOOOXXXXXXXX++++    ....OOOO    $$$$    OOOO    $$$$$$$$",
"    OOOO++++OOOOooooXXXX++++        $$$$$$$$$$$$    $$$$$$$$$$$$",
"    OOOO++++OOOOooooXXXX++++        $$$$$$$$$$$$    $$$$$$$$$$$$",
"    OOOO++++OOOOooooXXXX++++        $$$$$$$$$$$$    $$$$$$$$$$$$",
"    OOOO++++OOOOooooXXXX++++        $$$$$$$$$$$$    $$$$$$$$$$$$",
"$$$$    OOOO++++OOOO@@@@    $$$$$$$$$$$$$$$$$$$$$$$$$$$$$$$$$$$$",
"$$$$    OOOO++++OOOO@@@@    $$$$$$$$$$$$$$$$$$$$$$$$$$$$$$$$$$$$",
"$$$$    OOOO++++OOOO@@@@    $$$$$$$$$$$$$$$$$$$$$$$$$$$$$$$$$$$$",
"$$$$    OOOO++++OOOO@@@@    $$$$$$$$$$$$$$$$$$$$$$$$$$$$$$$$$$$$",
"$$$$$$$$    @@@@####    $$$$$$$$$$$$$$$$$$$$$$$$$$$$$$$$$$$$$$$$",
"$$$$$$$$    @@@@####    $$$$$$$$$$$$$$$$$$$$$$$$$$$$$$$$$$$$$$$$",
"$$$$$$$$    @@@@####    $$$$$$$$$$$$$$$$$$$$$$$$$$$$$$$$$$$$$$$$",
"$$$$$$$$    @@@@####    $$$$$$$$$$$$$$$$$$$$$$$$$$$$$$$$$$$$$$$$",
"$$$$$$$$$$$$        $$$$$$$$$$$$$$$$$$$$$$$$$$$$$$$$$$$$$$$$$$$$",
"$$$$$$$$$$$$        $$$$$$$$$$$$$$$$$$$$$$$$$$$$$$$$$$$$$$$$$$$$",
"$$$$$$$$$$$$        $$$$$$$$$$$$$$$$$$$$$$$$$$$$$$$$$$$$$$$$$$$$",
"$$$$$$$$$$$$        $$$$$$$$$$$$$$$$$$$$$$$$$$$$$$$$$$$$$$$$$$$$"
};
