/* XPM */
static char *tile2141694787652[] = {
/* columns rows colors chars-per-pixel */
"32 32 5 1 ",
"  c #6CA246",
". c #192121",
"X c #CE926F",
"o c #D6B081",
"O c #FFE0CB",
/* pixels */
"                                ",
"                                ",
"                                ",
"                                ",
"    XXXXXXXXXXXXXXXXXXXXXXXX    ",
"    XXXXXXXXXXXXXXXXXXXXXXXX    ",
"  ..XXOOOOOOoooooooooooooooo..  ",
"  ..XXOOOOOOoooooooooooooooo..  ",
"  ..XXOOOOoooooooooooooooooo..  ",
"  ..XXOOOOoooooooooooooooooo..  ",
"  ..XXOOoooooooooooooooooooo..  ",
"  ..XXOOoooooooooooooooooooo..  ",
"  ..XXOOooooooooooooXXXXXXoo..  ",
"  ..XXOOooooooooooooXXXXXXoo..  ",
"  ..XXOOooooooooooooooOOXXoo..  ",
"  ..XXOOooooooooooooooOOXXoo..  ",
"  ..XXOOooooooooooooooOOXXoo..  ",
"  ..XXOOooooooooooooooOOXXoo..  ",
"  ..XXOOooooooooooooooOOXXoo..  ",
"  ..XXOOooooooooooooooOOXXoo..  ",
"  ..XXooooooooooooooXXXXXXoo..  ",
"  ..XXooooooooooooooXXXXXXoo..  ",
"  ..XXoooooooooooooooooooooo..  ",
"  ..XXoooooooooooooooooooooo..  ",
"  ..XXoooooooooooooooooooooo..  ",
"  ..XXoooooooooooooooooooooo..  ",
"  ..XXoooooooooooooooooooooo..  ",
"  ..XXoooooooooooooooooooooo..  ",
"    ........................    ",
"    ........................    ",
"                                ",
"                                "
};
