/* XPM */
static char *tile0811694787634[] = {
/* columns rows colors chars-per-pixel */
"32 32 5 1 ",
"  c #6CA246",
". c #192121",
"X c #9C5144",
"o c #F06643",
"O c #FFA767",
/* pixels */
"                                ",
"                                ",
"                                ",
"                                ",
"                                ",
"                                ",
"                                ",
"                                ",
"        ................        ",
"        ................        ",
"      ..OOOOOOOOOOOOOOOO..      ",
"      ..OOOOOOOOOOOOOOOO..      ",
"    ..OOOOOOOOOOOOOOOOOOOO..    ",
"    ..OOOOOOOOOOOOOOOOOOOO..    ",
"  ..OOOOooooooooooooooooOOOO..  ",
"  ..OOOOooooooooooooooooOOOO..  ",
"  ..OOooooooooooooooooooooOO..  ",
"  ..OOooooooooooooooooooooOO..  ",
"  ..ooooXXXXXXooXXXXXXXXoooo..  ",
"  ..ooooXXXXXXooXXXXXXXXoooo..  ",
"  ..oooooooooooooooooooooooo..  ",
"  ..oooooooooooooooooooooooo..  ",
"  ..ooooXXXXXXXXooXXXXXXoooo..  ",
"  ..ooooXXXXXXXXooXXXXXXoooo..  ",
"  ..oooooooooooooooooooooooo..  ",
"  ..oooooooooooooooooooooooo..  ",
"  ..ooooXXXXXXooXXXXXXXXoooo..  ",
"  ..ooooXXXXXXooXXXXXXXXoooo..  ",
"  ..oooooooooooooooooooooooo..  ",
"  ..oooooooooooooooooooooooo..  ",
"  ..ooooXXXXXXXXooXXXXXXoooo..  ",
"  ..ooooXXXXXXXXooXXXXXXoooo..  "
};
