/* XPM */
static char *tile0631694787632[] = {
/* columns rows colors chars-per-pixel */
"32 32 5 1 ",
"  c #6CA246",
". c #192121",
"X c #EE2B4E",
"o c #9C5144",
"O c #F06643",
/* pixels */
"    ..XXXXXXXXXXOOOOXXXXXX..    ",
"    ..XXXXXXXXXXOOOOXXXXXX..    ",
"    ..XXXXXXXXOOOOOOXXXXXX..    ",
"    ..XXXXXXXXOOOOOOXXXXXX..    ",
"    ..OOOOOOOOOOOOXXXXXXXX..    ",
"    ..OOOOOOOOOOOOXXXXXXXX..    ",
"    ..OOOOOOOOOOXXXXXXXXXX..    ",
"    ..OOOOOOOOOOXXXXXXXXXX..    ",
"  ..OOOOOOOOXXXXXXXXXXXXXX..    ",
"  ..OOOOOOOOXXXXXXXXXXXXXX..    ",
"  ..OOOOOOXXXXXXXXXXXXXXXX..    ",
"  ..OOOOOOXXXXXXXXXXXXXXXX..    ",
"  ..OOOOXXXXXXXXXXXXXXXXXX..    ",
"  ..OOOOXXXXXXXXXXXXXXXXXX..    ",
"  ........XXXXXXXXXXXXXX..      ",
"  ........XXXXXXXXXXXXXX..      ",
"          ..............        ",
"          ..............        ",
"                                ",
"                                ",
"oooooooooooooooooooooooooooooooo",
"oooooooooooooooooooooooooooooooo",
"oooooooooooooooooooooooooooooooo",
"oooooooooooooooooooooooooooooooo",
"oooooooooooooooooooooooooooooooo",
"oooooooooooooooooooooooooooooooo",
"  oooooooooooooooooooo          ",
"  oooooooooooooooooooo          ",
"                                ",
"                                ",
"                                ",
"                                "
};
