/* XPM */
static char *result[] = {
/* columns rows colors chars-per-pixel */
"64 64 14 1 ",
"  c #170625",
". c #1C1030",
"X c #2A103B",
"o c #39133E",
"O c #7F3D13",
"+ c #31164A",
"@ c #391A53",
"# c #4C1346",
"$ c #693360",
"% c #80591E",
"& c #A68937",
"* c #966989",
"= c #B8A3B2",
"- c None",
/* pixels */
"--------------------------------        ------------------------",
"--------------------------------        ------------------------",
"--------------------------------        ------------------------",
"--------------------------------        ------------------------",
"------------------------        %%%%&&&&    --------------------",
"------------------------        %%%%&&&&    --------------------",
"------------------------        %%%%&&&&    --------------------",
"------------------------        %%%%&&&&    --------------------",
"--------------------    %%%%OOOO    %%%%&&&&    ----------------",
"--------------------    %%%%OOOO    %%%%&&&&    ----------------",
"--------------------    %%%%OOOO    %%%%&&&&    ----------------",
"--------------------    %%%%OOOO    %%%%&&&&    ----------------",
"------------------------    oooooooo    OOOO%%%%    ------------",
"------------------------    oooooooo    OOOO%%%%    ------------",
"------------------------    oooooooo    OOOO%%%%    ------------",
"------------------------    oooooooo    OOOO%%%%    ------------",
"------------------------    ########oooo        ----------------",
"------------------------    ########oooo        ----------------",
"------------------------    ########oooo        ----------------",
"------------------------    ########oooo        ----------------",
"--------------------    ####****####oooo    XXXX    ------------",
"--------------------    ####****####oooo    XXXX    ------------",
"--------------------    ####****####oooo    XXXX    ------------",
"--------------------    ####****####oooo    XXXX    ------------",
"--------------------    ####====####ooooXXXXXXXX    ------------",
"--------------------    ####====####ooooXXXXXXXX    ------------",
"--------------------    ####====####ooooXXXXXXXX    ------------",
"--------------------    ####====####ooooXXXXXXXX    ------------",
"----------------    ####====$$$$####ooooXXXXXXXX    ------------",
"----------------    ####====$$$$####ooooXXXXXXXX    ------------",
"----------------    ####====$$$$####ooooXXXXXXXX    ------------",
"----------------    ####====$$$$####ooooXXXXXXXX    ------------",
"----------------    ####====####ooooXXXXXXXX++++    ------------",
"----------------    ####====####ooooXXXXXXXX++++    ------------",
"----------------    ####====####ooooXXXXXXXX++++    ------------",
"----------------    ####====####ooooXXXXXXXX++++    ------------",
"------------    ####****$$$$####ooooXXXX++++++++    ------------",
"------------    ####****$$$$####ooooXXXX++++++++    ------------",
"------------    ####****$$$$####ooooXXXX++++++++    ------------",
"------------    ####****$$$$####ooooXXXX++++++++    ------------",
"------------    ####$$$$####ooooXXXXXXXX++++++++    ------------",
"------------    ####$$$$####ooooXXXXXXXX++++++++    ------------",
"------------    ####$$$$####ooooXXXXXXXX++++++++    ------------",
"------------    ####$$$$####ooooXXXXXXXX++++++++    ------------",
"------------    ####$$$$ooooXXXXXXXX++++++++@@@@    ------------",
"------------    ####$$$$ooooXXXXXXXX++++++++@@@@    ------------",
"------------    ####$$$$ooooXXXXXXXX++++++++@@@@    ------------",
"------------    ####$$$$ooooXXXXXXXX++++++++@@@@    ------------",
"------------    oooo####ooooXXXXXXXX++++@@@@    ----------------",
"------------    oooo####ooooXXXXXXXX++++@@@@    ----------------",
"------------    oooo####ooooXXXXXXXX++++@@@@    ----------------",
"------------    oooo####ooooXXXXXXXX++++@@@@    ----------------",
"----------------    ooooXXXXXXXX++++++++@@@@    ----------------",
"----------------    ooooXXXXXXXX++++++++@@@@    ----------------",
"----------------    ooooXXXXXXXX++++++++@@@@    ----------------",
"----------------    ooooXXXXXXXX++++++++@@@@    ----------------",
"----------------    XXXXooooXXXX++++@@@@    --------------------",
"----------------    XXXXooooXXXX++++@@@@    --------------------",
"----------------    XXXXooooXXXX++++@@@@    --------------------",
"----------------    XXXXooooXXXX++++@@@@    --------------------",
"--------------------                    ....--------------------",
"--------------------                    ....--------------------",
"--------------------                    ....--------------------",
"--------------------                    ....--------------------"
};
