/* XPM */
static char *result[] = {
/* columns rows colors chars-per-pixel */
"64 64 9 1 ",
"  c #170625",
". c #513E4A",
"X c #6F5F67",
"o c #9F908C",
"O c #8B969F",
"+ c #C1AFA0",
"@ c #E2CFBF",
"# c #FFF1C3",
"$ c None",
/* pixels */
"$$$$$$$$$$$$    $$$$$$$$$$$$$$$$$$$$    $$$$$$$$$$$$$$$$$$$$$$$$",
"$$$$$$$$$$$$    $$$$$$$$$$$$$$$$$$$$    $$$$$$$$$$$$$$$$$$$$$$$$",
"$$$$$$$$$$$$    $$$$$$$$$$$$$$$$$$$$    $$$$$$$$$$$$$$$$$$$$$$$$",
"$$$$$$$$$$$$    $$$$$$$$$$$$$$$$$$$$    $$$$$$$$$$$$$$$$$$$$$$$$",
"$$$$$$$$    @@@@    $$$$$$$$$$$$    @@@@    $$$$$$$$$$$$$$$$$$$$",
"$$$$$$$$    @@@@    $$$$$$$$$$$$    @@@@    $$$$$$$$$$$$$$$$$$$$",
"$$$$$$$$    @@@@    $$$$$$$$$$$$    @@@@    $$$$$$$$$$$$$$$$$$$$",
"$$$$$$$$    @@@@    $$$$$$$$$$$$    @@@@    $$$$$$$$$$$$$$$$$$$$",
"$$$$$$$$$$$$    oooo    $$$$    ooooXXXXoooo    $$$$$$$$$$$$$$$$",
"$$$$$$$$$$$$    oooo    $$$$    ooooXXXXoooo    $$$$$$$$$$$$$$$$",
"$$$$$$$$$$$$    oooo    $$$$    ooooXXXXoooo    $$$$$$$$$$$$$$$$",
"$$$$$$$$$$$$    oooo    $$$$    ooooXXXXoooo    $$$$$$$$$$$$$$$$",
"$$$$$$$$$$$$    XXXX        oooo++++####++++OOOO    $$$$$$$$$$$$",
"$$$$$$$$$$$$    XXXX        oooo++++####++++OOOO    $$$$$$$$$$$$",
"$$$$$$$$$$$$    XXXX        oooo++++####++++OOOO    $$$$$$$$$$$$",
"$$$$$$$$$$$$    XXXX        oooo++++####++++OOOO    $$$$$$$$$$$$",
"$$$$$$$$    XXXX    $$$$    XXXXoooo####ooooXXXX    $$$$$$$$$$$$",
"$$$$$$$$    XXXX    $$$$    XXXXoooo####ooooXXXX    $$$$$$$$$$$$",
"$$$$$$$$    XXXX    $$$$    XXXXoooo####ooooXXXX    $$$$$$$$$$$$",
"$$$$$$$$    XXXX    $$$$    XXXXoooo####ooooXXXX    $$$$$$$$$$$$",
"$$$$    oooo++++        oooooooo++++++++++++ooooXXXX    $$$$$$$$",
"$$$$    oooo++++        oooooooo++++++++++++ooooXXXX    $$$$$$$$",
"$$$$    oooo++++        oooooooo++++++++++++ooooXXXX    $$$$$$$$",
"$$$$    oooo++++        oooooooo++++++++++++ooooXXXX    $$$$$$$$",
"    ++++....    @@@@    ....XXXXXXXXooooXXXXXXXX        $$$$$$$$",
"    ++++....    @@@@    ....XXXXXXXXooooXXXXXXXX        $$$$$$$$",
"    ++++....    @@@@    ....XXXXXXXXooooXXXXXXXX        $$$$$$$$",
"    ++++....    @@@@    ....XXXXXXXXooooXXXXXXXX        $$$$$$$$",
"    @@@@    ooooXXXX........oooooooo####++++ooooXXXX    $$$$$$$$",
"    @@@@    ooooXXXX........oooooooo####++++ooooXXXX    $$$$$$$$",
"    @@@@    ooooXXXX........oooooooo####++++ooooXXXX    $$$$$$$$",
"    @@@@    ooooXXXX........oooooooo####++++ooooXXXX    $$$$$$$$",
"    ++++            ooooXXXX....oooo++++ooooXXXXXXXX    $$$$$$$$",
"    ++++            ooooXXXX....oooo++++ooooXXXXXXXX    $$$$$$$$",
"    ++++            ooooXXXX....oooo++++ooooXXXXXXXX    $$$$$$$$",
"    ++++            ooooXXXX....oooo++++ooooXXXXXXXX    $$$$$$$$",
"    oooo    $$$$$$$$    ....XXXX####oooo++++XXXXOOOO    $$$$$$$$",
"    oooo    $$$$$$$$    ....XXXX####oooo++++XXXXOOOO    $$$$$$$$",
"    oooo    $$$$$$$$    ....XXXX####oooo++++XXXXOOOO    $$$$$$$$",
"    oooo    $$$$$$$$    ....XXXX####oooo++++XXXXOOOO    $$$$$$$$",
"$$$$    oooo    $$$$    XXXXoooo++++####++++++++XXXX    $$$$$$$$",
"$$$$    oooo    $$$$    XXXXoooo++++####++++++++XXXX    $$$$$$$$",
"$$$$    oooo    $$$$    XXXXoooo++++####++++++++XXXX    $$$$$$$$",
"$$$$    oooo    $$$$    XXXXoooo++++####++++++++XXXX    $$$$$$$$",
"$$$$$$$$    oooo        XXXXoooooooo++++ooooooooXXXX    $$$$$$$$",
"$$$$$$$$    oooo        XXXXoooooooo++++ooooooooXXXX    $$$$$$$$",
"$$$$$$$$    oooo        XXXXoooooooo++++ooooooooXXXX    $$$$$$$$",
"$$$$$$$$    oooo        XXXXoooooooo++++ooooooooXXXX    $$$$$$$$",
"$$$$$$$$$$$$    @@@@    XXXX....++++####++++XXXXOOOO    $$$$$$$$",
"$$$$$$$$$$$$    @@@@    XXXX....++++####++++XXXXOOOO    $$$$$$$$",
"$$$$$$$$$$$$    @@@@    XXXX....++++####++++XXXXOOOO    $$$$$$$$",
"$$$$$$$$$$$$    @@@@    XXXX....++++####++++XXXXOOOO    $$$$$$$$",
"$$$$$$$$$$$$    XXXXXXXX....XXXXoooo++++ooooXXXXOOOO    $$$$$$$$",
"$$$$$$$$$$$$    XXXXXXXX....XXXXoooo++++ooooXXXXOOOO    $$$$$$$$",
"$$$$$$$$$$$$    XXXXXXXX....XXXXoooo++++ooooXXXXOOOO    $$$$$$$$",
"$$$$$$$$$$$$    XXXXXXXX....XXXXoooo++++ooooXXXXOOOO    $$$$$$$$",
"$$$$$$$$    oooo    ....XXXXoooo++++########++++ooooXXXX    $$$$",
"$$$$$$$$    oooo    ....XXXXoooo++++########++++ooooXXXX    $$$$",
"$$$$$$$$    oooo    ....XXXXoooo++++########++++ooooXXXX    $$$$",
"$$$$$$$$    oooo    ....XXXXoooo++++########++++ooooXXXX    $$$$",
"$$$$$$$$$$$$    $$$$                                    $$$$$$$$",
"$$$$$$$$$$$$    $$$$                                    $$$$$$$$",
"$$$$$$$$$$$$    $$$$                                    $$$$$$$$",
"$$$$$$$$$$$$    $$$$                                    $$$$$$$$"
};
