/* XPM */
static char *tile0461694786962[] = {
/* columns rows colors chars-per-pixel */
"32 32 14 1 ",
"  c #6CA246",
". c #170625",
"X c #402A24",
"o c #5C3C28",
"O c #804F27",
"+ c #966928",
"@ c #B37E32",
"# c #AD910E",
"$ c #B89F19",
"% c #C2AE1E",
"& c #D6C037",
"* c #E6D945",
"= c #F4F14A",
"- c #FAFE72",
/* pixels */
"                                ",
"                                ",
"                          ....  ",
"                          ....  ",
"                        ..%%**..",
"                        ..%%**..",
"                      ..&&%%**..",
"                      ..&&%%**..",
"                    ..==**%%&&..",
"                    ..==**%%&&..",
"                  ..**==**%%&&..",
"                  ..**==**%%&&..",
"  ..........    ..****--&&%%&&..",
"  ..........    ..****--&&%%&&..",
"..@@==$$$$##....****--&&%%&&++..",
"..@@==$$$$##....****--&&%%&&++..",
"..oo@@==$$&&##**==--&&%%%%&&++..",
"..oo@@==$$&&##**==--&&%%%%&&++..",
"..OO++**$$%%&&&&**&&%%%%&&++..  ",
"..OO++**$$%%&&&&**&&%%%%&&++..  ",
"..ooOO++**$$%%&&&&%%%%&&@@..    ",
"..ooOO++**$$%%&&&&%%%%&&@@..    ",
"..XXoooo++&&$$%%%%&&&&@@..      ",
"..XXoooo++&&$$%%%%&&&&@@..      ",
"  ....XXoo++&&&&&&++@@..        ",
"  ....XXoo++&&&&&&++@@..        ",
"      ....OO++++++....          ",
"      ....OO++++++....          ",
"          ........              ",
"          ........              ",
"                                ",
"                                "
};
