/* XPM */
static char *tile0331694786961[] = {
/* columns rows colors chars-per-pixel */
"32 32 20 1 ",
"  c #6CA246",
". c #353401",
"X c #170625",
"o c #620527",
"O c #640426",
"+ c #6C1A37",
"@ c #4C4E01",
"# c #505401",
"$ c #686F0A",
"% c #76334B",
"& c #A00227",
"* c #CA042A",
"= c #D3042B",
"- c #EF1339",
"; c #FF2A51",
": c #FF5E77",
"> c #838C1A",
", c #C1D542",
"< c #FF7D8F",
"1 c #FFFEE8",
/* pixels */
"                                ",
"                                ",
"              XXXX              ",
"              XXXX              ",
"            XX##..XX  XXXX      ",
"            XX##..XX  XXXX      ",
"              XX@@..XX$$##XX    ",
"              XX@@..XX$$##XX    ",
"        XXXXXXXX..XX@@##XX      ",
"        XXXXXXXX..XX@@##XX      ",
"      XX&&==--&&oo@@>>XXXX      ",
"      XX&&==--&&oo@@>>XXXX      ",
"    XX&&--;;**;;**OO..>>,,XX    ",
"    XX&&--;;**;;**OO..>>,,XX    ",
"    XX==;;--<<--<<**OOXX..$$XX  ",
"    XX==;;--<<--<<**OOXX..$$XX  ",
"  XX==----::--11--;;&&XX..##XX  ",
"  XX==----::--11--;;&&XX..##XX  ",
"  XX----;;--<<--<<&&**OO##XX    ",
"  XX----;;--<<--<<&&**OO##XX    ",
"  XX==;;--::--::&&==&&++XX      ",
"  XX==;;--::--::&&==&&++XX      ",
"  XX--==;;--;;--;;&&OO%%XX      ",
"  XX--==;;--;;--;;&&OO%%XX      ",
"  XX==--==;;&&;;&&++%%XX        ",
"  XX==--==;;&&;;&&++%%XX        ",
"    XX&&--&&--&&OOXXXX          ",
"    XX&&--&&--&&OOXXXX          ",
"      XXXXXXXXXXXX              ",
"      XXXXXXXXXXXX              ",
"                                ",
"                                "
};
