/* XPM */
static char *tile0011694786957[] = {
/* columns rows colors chars-per-pixel */
"32 32 19 1 ",
"  c #6CA246",
". c #170625",
"X c #5B141B",
"o c #691C1E",
"O c #701E20",
"+ c #7A2023",
"@ c #97190E",
"# c #AC1F11",
"$ c #B72913",
"% c #832627",
"& c #98302E",
"* c #C03A1F",
"= c #C23E28",
"- c #D04620",
"; c #C84A31",
": c #A94948",
"> c #BB6864",
", c #DB6949",
"< c #E68C6D",
/* pixels */
"                                ",
"                                ",
"                                ",
"                                ",
"        ....                    ",
"        ....                    ",
"      ..####....                ",
"      ..####....                ",
"    ..@@@@@@##--....            ",
"    ..@@@@@@##--....            ",
"  ..@@##$$--@@##--$$....        ",
"  ..@@##$$--@@##--$$....        ",
"..++####@@##--@@##@@@@##....    ",
"..++####@@##--@@##@@@@##....    ",
"..oo++++##**@@@@--$$--@@@@##....",
"..oo++++##**@@@@--$$--@@@@##....",
"..XXoooo++++**;;@@####==##;;&&..",
"..XXoooo++++**;;@@####==##;;&&..",
"....XXXXoooo++++;;,,@@##,,&&%%..",
"....XXXXoooo++++;;,,@@##,,&&%%..",
"    ....XXXXoooo++++,,<<&&%%OO..",
"    ....XXXXoooo++++,,<<&&%%OO..",
"        ....XXXXoooo++>>%%OO..  ",
"        ....XXXXoooo++>>%%OO..  ",
"            ....XXXXoo::OO..    ",
"            ....XXXXoo::OO..    ",
"                ....XX&&..      ",
"                ....XX&&..      ",
"                    ....        ",
"                    ....        ",
"                                ",
"                                "
};
