/* XPM */
static char *tile0261694786960[] = {
/* columns rows colors chars-per-pixel */
"32 32 22 1 ",
"  c #6CA246",
". c #170625",
"X c #B42A21",
"o c #C43D0E",
"O c #C4400E",
"+ c #C5400E",
"@ c #D9581E",
"# c #DA591E",
"$ c #D95A1E",
"% c #E87738",
"& c #E97938",
"* c #E7863B",
"= c #E7853C",
"- c #F88B3B",
"; c #F98C3B",
": c #F98C3C",
"> c #F7A455",
", c #F7A456",
"< c #F8A656",
"1 c #FFC769",
"2 c #FFC86A",
"3 c #FFDE7F",
/* pixels */
"                                ",
"                                ",
"    ......                      ",
"    ......                      ",
"  ..XXoooo....                  ",
"  ..XXoooo....                  ",
"..XX++@@@@%%@@....              ",
"..XX++@@@@%&@@....              ",
"..oo$$XXXXoo%%%%##..            ",
"..oo$$XXXXoo%%%%##..            ",
"..ooXX&&%&::oo@@&&@@..          ",
"..ooXX&&%&::oo@@%%@@..          ",
"..OO@@;;1121,,%%==&&$$..        ",
"..O+@@;;1122,,%%==&&$$..        ",
"  ..OO@$&&,<,,,,,,::**##..      ",
"  ..OO@$&&,<,,,,,,::**##..      ",
"  ..XXOO%%**--XXXXoo**%%@@..    ",
"  ..XXO+%%**--XXXXoo**%%$$..    ",
"    ..XX@@%%XX%%::--oo,,**@#..  ",
"    ..XX@@%%XX%%::--oo>,**@$..  ",
"      ..XX@@oo--1111::%%3333&%  ",
"      ..XX@@oo--1111::%%3333&%  ",
"        ..XX@@%%**::,,3333,,,,  ",
"        ..XX@@%%**::,,3333,,,<  ",
"          ..XX@@%%@@3311,,11&&  ",
"          ..XX@@%%@@3311,,11&&  ",
"            ..ooXX33,,3312%%    ",
"            ..ooXX33,,3312%%    ",
"              ..XX,,11,,%%      ",
"              ..XX,,11,,%%      ",
"                ..oo%%@@        ",
"                ..oo%%@@        "
};
