/* XPM */
static char *tile0221694786959[] = {
/* columns rows colors chars-per-pixel */
"32 32 18 1 ",
"  c #6CA246",
". c #170625",
"X c #2B1331",
"o c #231638",
"O c #281B3E",
"+ c #371532",
"@ c #49243D",
"# c #33254B",
"$ c #6E4156",
"% c #96002F",
"& c #BA0530",
"* c #E70E37",
"= c #FF2A52",
"- c #BE5E56",
"; c #CD7F67",
": c #BB9EBE",
"> c #E5A987",
", c #F7D3A4",
/* pixels */
"              &&==              ",
"              &&==              ",
"              %%&&              ",
"              %%&&              ",
"              &&==              ",
"              &&==              ",
"              &&**              ",
"              &&**              ",
"              ....              ",
"              ....              ",
"              ooXX              ",
"              ooXX              ",
"            ..OO@@..            ",
"            ..OO@@..            ",
"          ..OOooXX$$..          ",
"          ..OOooXX$$..          ",
"          ..##..++::++          ",
"          ..##..++::++          ",
"          -->>>>..$$..          ",
"          -->>>>..$$..          ",
"          ;;>>,,>>$$..          ",
"          ;;>>,,>>$$..          ",
"          %%&&==,,@@..          ",
"          %%&&==,,@@..          ",
"          ;;>>,,>>@@..          ",
"          ;;>>,,>>@@..          ",
"          --;;>>..++..          ",
"          --;;>>..++..          ",
"          ..##....++..          ",
"          ..##....++..          ",
"          ..OOooXX@@..          ",
"          ..OOooXX@@..          "
};
