/* XPM */
static char *tile0401694786962[] = {
/* columns rows colors chars-per-pixel */
"32 32 12 1 ",
"  c #6CA246",
". c #170625",
"X c #1D1130",
"o c #811910",
"O c #AE3218",
"+ c #BF461E",
"@ c #D76E1B",
"# c #D77128",
"$ c #A67059",
"% c #E7A235",
"& c #CF9474",
"* c #E9AF89",
/* pixels */
"                                ",
"                                ",
"      ........    ........      ",
"      ........    ........      ",
"    ..OO++++OO..ooOOOO++OO..    ",
"    ..OO++++OO..ooOOOO++OO..    ",
"  ..++####**##++OOooOOOO$$OO..  ",
"  ..++####**##++OOooOOOO$$OO..  ",
"  ..##++....OO++$$OOoo..OO++..  ",
"  ..##++....OO++$$OOoo..OO++..  ",
"..$$##++..  oooo++++..  ..@@OO..",
"..$$##++..  oooo++++..  ..@@OO..",
"..++%%..  ..++++OO++..  ..%%$$..",
"..++%%..  ..++++OO++..  ..%%$$..",
"..##%%..  ..@@%%++oo    ..%%##..",
"..##%%..  ..@@%%++oo    ..%%##..",
"..++@@..  ooOO++%%++..  ..%%++..",
"..++@@..  ooOO++%%++..  ..%%++..",
"..++**++..++@@OO++@@++..++@@++..",
"..++**++..++@@OO++@@++..++@@++..",
"..OO++oo++@@++..oo**@@++oo++OO..",
"..OO++oo++@@++..oo**@@++oo++OO..",
"  ..++OO$$++..    ..++++OO&&..  ",
"  ..++OO$$++..    ..++++OO&&..  ",
"  ..ooOOOOoo++....++ooOOOOoo..  ",
"  ..ooOOOOoo++....++ooOOOOoo..  ",
"    ..$$++@@@@%%%%@@**OOoo..    ",
"    ..$$++@@@@%%%%@@**OOoo..    ",
"      ....OO++@@@@++++....      ",
"      ....OO++@@@@++++....      ",
"        XX............XX        ",
"        XX............XX        "
};
