/* XPM */
static char *tile0131694786958[] = {
/* columns rows colors chars-per-pixel */
"32 32 17 1 ",
"  c #6CA246",
". c #170625",
"X c #633E06",
"o c #653D08",
"O c #78570B",
"+ c #A40B1A",
"@ c #810E21",
"# c #91233B",
"$ c #C00B1B",
"% c #E60B21",
"& c #A03B57",
"* c #F8394A",
"= c #FF6E76",
"- c #9D870C",
"; c #B7B10D",
": c #FFA3A1",
"> c #EFDAC8",
/* pixels */
"                    ..          ",
"                    ..          ",
"                      ..        ",
"                      ..        ",
"            ......    ..        ",
"            ......    ..        ",
"          ..ooOO;;....          ",
"          ..ooOO;;....          ",
"  ..    ..ooOO--..XX......      ",
"  ..    ..ooOO--..XX......      ",
"    ....ooOO--..##..$$**==..    ",
"    ....ooOO--..##..$$**==..    ",
"        ......@@$$@@..@@**==..  ",
"        ......@@$$@@..@@**==..  ",
"      ..@@++@@$$==::$$**::**%%..",
"      ..@@++@@$$==::$$**::**%%..",
"      ..##@@$$**%%**::>>**%%$$..",
"      ..##@@$$**%%**::>>**%%$$..",
"  ......&&@@++$$%%%%****%%%%++..",
"  ......&&@@++$$%%%%****%%%%++..",
"..OO--..&&@@..++$$%%%%%%$$++@@..",
"..OO--..&&@@..++$$%%%%%%$$++@@..",
"  ....--....--..++$$%%$$$$++..  ",
"  ....--....--..++$$%%$$$$++..  ",
"      ..;;--..@@++++$$++++@@..  ",
"      ..;;--..@@++++$$++++@@..  ",
"        ....&&@@@@@@++$$++..    ",
"        ....&&@@@@@@++$$++..    ",
"          ..####@@..##++@@..    ",
"          ..####@@..##++@@..    ",
"            ......  ......      ",
"            ......  ......      "
};
