/* XPM */
static char *tile0201694786959[] = {
/* columns rows colors chars-per-pixel */
"32 32 32 1 ",
"  c #6CA246",
". c #170625",
"X c #1D1130",
"o c #341B2E",
"O c #7B433B",
"+ c #5A2F40",
"@ c #5C3446",
"# c #D2390E",
"$ c #D64B0E",
"% c #D64D0E",
"& c #E9600E",
"* c #F46C0E",
"= c #9F5A5C",
"- c #B86A4A",
"; c #B87364",
": c #FF890E",
"> c #FFA30E",
", c #E28251",
"< c #FFBC56",
"1 c #D28D6D",
"2 c #C3967A",
"3 c #F2A66F",
"4 c #F3A76F",
"5 c #F3A770",
"6 c #FFC14A",
"7 c #FFC47B",
"8 c #FFC87B",
"9 c #E6B495",
"0 c #E6B698",
"q c #FFE095",
"w c #F7E3D2",
"e c #FFFEE8",
/* pixels */
"              ++@@========      ",
"              ++@@========      ",
"          ..oo2299wwwweeee++    ",
"          ..oo2299wwwweeee++    ",
"        ..,,77qqOO77eeeewwww++  ",
"        ..,,77qqOO77eeeewwww++  ",
"      ....,,5577,,--eeee--wwoo  ",
"      ....,,5577,,--eeee--wwoo  ",
"    ..77==,,553344,,77ee88oo    ",
"    ..77==,,553343,,77ee88oo    ",
"  ..qq11==$$&&**&&&&##ww$$..    ",
"  ..qq11==$$&&**&&&&##ww$$..    ",
"  ..77==..##$$##****&&99##..    ",
"  ..77==..##$$##****&&99##..    ",
"  ..11....$$&&$$>>::&&<<$$..    ",
"  ..11....$$&&$$>>::&&<<$$..    ",
"  ..11==..$$**%%66::##ee$$..    ",
"  ..11==..$$**%%66::##ee$$..    ",
"  ..==;;..$$::****>>**##::..    ",
"  ..==;;..$$::****>>**##::..    ",
"    ..;;==##$$##&&**%$**##..    ",
"    ..;;==##$$##&&**$$**##..    ",
"    ..==;;$$&&%%>>::&&::$$..    ",
"    ..==;;$$&&%%>>::&&::$$..    ",
"      ..==$$**%%66::**>>$$..    ",
"      ..==$$**%%66::**>>$$..    ",
"        ..$$::****>>****$$..    ",
"        ..$$::****>>****$$..    ",
"        ..==,,5577wweeww00..    ",
"        ..==,,5577wweeww00..    ",
"        XX................      ",
"        XX................      "
};
