/* XPM */
static char *tile0211694786959[] = {
/* columns rows colors chars-per-pixel */
"32 32 26 1 ",
"  c #6CA246",
". c #170625",
"X c #731221",
"o c #902A1C",
"O c #912B1E",
"+ c #A52E20",
"@ c #AE3C2F",
"# c #BE3A28",
"$ c #C03B28",
"% c #CE4F1E",
"& c #C9532D",
"* c #C9532E",
"= c #DC5D25",
"- c #DD5E25",
"; c #DB6437",
": c #ED7537",
"> c #EF7637",
", c #B76651",
"< c #FF904A",
"1 c #FF914B",
"2 c #CC846C",
"3 c #FFB66B",
"4 c #FFB66C",
"5 c #FFE37F",
"6 c #E6A383",
"7 c #EDC0AB",
/* pixels */
"                                ",
"                                ",
"              ......            ",
"              ......            ",
"            ..::44::..          ",
"            ..::44::..          ",
"    ........@@22::**++..        ",
"    ........@@22::**++..        ",
"  ..33::22666677**++oo..        ",
"  ..33::22666677**++oO..        ",
"..55@@**&&##++22++@@##++..      ",
"..55@@&*&&##++22++@@##++..      ",
"..33OO@@##@@OOXX22ooXXXXXX..    ",
"..33OO@@##@@OOXX22ooXXXXXX..    ",
"..<<##**;;;;**##++22++##++++..  ",
"..<<##**;;;;**##++22++##++++..  ",
"..::XXoo####@@ooXXXX,,@@XXXX..  ",
"..::XXoo####@@ooXXXX,,@@XXXX..  ",
"..==>>@@&&&&&&;;****##,,@@*&++..",
"..--::@@*&&&&&;;****##,,@@&&++..",
"..%%==::oo####@@##@@XXooXXOOXX..",
"..%%--::oo####@@##@@XXooXXOOXX..",
"  ..%%--::1133@@####****$$**##..",
"  ..%&--::1133@@####****$$**##..",
"    ....%%----333355@@##Oo##43..",
"    ....%%----333355@@##oo##33..",
"        ......%%--::555533<<>>..",
"        ......%%--::555533<<>>..",
"              ......--::>>==@@..",
"              ......--::>:=-@@..",
"                    ..........  ",
"                    ..........  "
};
