/* XPM */
static char *tile0521694786963[] = {
/* columns rows colors chars-per-pixel */
"32 32 17 1 ",
"  c #6CA246",
". c #170625",
"X c #60201C",
"o c #61201C",
"O c #79321F",
"+ c #7A331F",
"@ c #4A2426",
"# c #7A3320",
"$ c #904A28",
"% c #A3562E",
"& c #B55B2C",
"* c #C4652A",
"= c #B17C68",
"- c #B27C69",
"; c #B78164",
": c #EECFA0",
"> c #EFD0A0",
/* pixels */
"                                ",
"                                ",
"                                ",
"                                ",
"                                ",
"                                ",
"          ........              ",
"          ........              ",
"        ..@@oo+O##..        ..  ",
"        ..@@ooOO##..        ..  ",
"      ..@@XX++$$**##..  ....::..",
"      ..@@XX++$$**##..  ....::..",
"    ..@@XX++%%##$$%%XX..oo--..  ",
"    ..@@XX++%%##$$%%XX..oo--..  ",
"  ..@@XX++$$$$&&++XX@@XX++XX..  ",
"  ..@@XX++$$$$&&++XX@@XX++XX..  ",
"  ..XX++%%++oo##$$++oX..::..    ",
"  ..XX++%%++oo##$$++oo..>>..    ",
"  ..oo##$$&&++oo++@@@@--oo..    ",
"  ..oo##$$&&++oo++@@@@--oo..    ",
"    ..XX##$$$$oo..>:++@@..      ",
"    ..XX##$$$$oo..>>++@@..      ",
"      ..oo++##@@-;oo@@..        ",
"      ..oo++##@@;;oo@@..        ",
"        ..@@XX##@@....          ",
"        ..@@XX##@@....          ",
"          ........              ",
"          ........              ",
"                                ",
"                                ",
"                                ",
"                                "
};
