/* XPM */
static char *tile0631694786964[] = {
/* columns rows colors chars-per-pixel */
"32 32 17 1 ",
"  c #6CA246",
". c #43020E",
"X c #65020E",
"o c #66020E",
"O c #CA2B37",
"+ c #F35E17",
"@ c #EC462E",
"# c #F37833",
"$ c #E7584D",
"% c #D27878",
"& c #FF9C58",
"* c #E8807D",
"= c #B89CAA",
"- c #E9B2B2",
"; c #EBD1D0",
": c #EADFD9",
"> c #FFFEE8",
/* pixels */
"        XXXX                    ",
"        XXXX                    ",
"      XXOOXX                    ",
"      XXOOXX                    ",
"    XoOO$$XX                    ",
"    XXOO$$XX                    ",
"  ooOO$$##XX                    ",
"  ooOO$$##XX                    ",
"  oo$$##XX                      ",
"  oo$$##XX                      ",
"..$$**oo                        ",
"..$$**oo                        ",
"..%%--;;oo  oo    >>>>>>>>      ",
"..%%--;;oo  oo    >>>>>>>>      ",
"oo@@####++oo  oo>>::::::>>>>>>  ",
"oo@@####++oo  oo>>::::::>>>>>>  ",
"..%%--;;**oo  oo  >>====::::::..",
"..%%--;;**oo  oo  >>====::::::..",
"..==--;;##++oo  ooXX**----====..",
"..==--;;##++oo  oooX**----====..",
"  oo++##;;**++Xooo++--;;----==..",
"  oo++##;;**++XXoo++--;;----==..",
"  ..%%----++**++**##;;------..  ",
"  ..%%----++**++**##;;------..  ",
"    ..%%@@;;>>&&>>;;##----==..  ",
"    ..%%@@;;>>&&>>;;##----==..  ",
"      oo%%==--++;;--++%%==..    ",
"      oo%%==--++;;--++%%==..    ",
"        ....%%@@%%==%%oo..      ",
"        ....%%@@%%==%%oo..      ",
"            ..Xo......          ",
"            ..XX......          "
};
