/* XPM */
static char *tile0241694786959[] = {
/* columns rows colors chars-per-pixel */
"32 32 16 1 ",
"  c #6CA246",
". c #A92B0E",
"X c #BA4B0E",
"o c #BA4D0E",
"O c #FFA00E",
"+ c #FFA10E",
"@ c #FFA20E",
"# c #FFBD0E",
"$ c #FFBE0E",
"% c #FFCF28",
"& c #FFFD2C",
"* c #FFEA33",
"= c #FFE935",
"- c #FFEB35",
"; c #FFFE61",
": c #FFFE62",
/* pixels */
"                                ",
"                                ",
"                    XX..        ",
"                    oo..        ",
"                XXXXOO@@..      ",
"                XXoo@@@@..      ",
"            XXXXO@$$$$@@OO..    ",
"            XXooO@$$$$@@OO..    ",
"        XXooO@$$$$OO@@OO@@OO..  ",
"        XXoo@O$$$$OO@@OO@@OO..  ",
"    XXooOO$$$$OO----*-##OO--@O..",
"    XXooOO$$$$OO==----##OO--@O..",
"  XXOO$$$$--**--:;**--:;$$==$$..",
"  XXOO$$$$--**--:;**--::$$==$$..",
"  XX::::--@@--******----==--$$..",
"  XX::::--@@--******----==--$$..",
"  XX&&::;;;:--$$O@*-==$$**==$$..",
"  XX&&::;;;:--$$OO--==$$**==$$..",
"  oo::--OO====&&$$--&&=-$$**OO..",
"  oX;;--OO====&&$$--&&=*$$**@O..",
"    oo$#$$@@***=**::::%%@@@@..  ",
"    oX$#$$@@**--**::;;%%@@@@..  ",
"    XX--&&$$::::--%%%%oXoX..    ",
"    XX-*&&$$::;:--%%%%XXXX..    ",
"  XX--::::::--%%ooXXoo          ",
"  XX--;:::::--%%ooXXoo          ",
"  XX&&;;**XXooXX                ",
"  XX&&;;**XXooXX                ",
"    XXooXX                      ",
"    XXooXX                      ",
"                                ",
"                                "
};
