/* XPM */
static char *tile0151694786958[] = {
/* columns rows colors chars-per-pixel */
"32 32 9 1 ",
"  c #6CA246",
". c #170625",
"X c #7C1D0E",
"o c #A94516",
"O c #B7582D",
"+ c #C46B28",
"@ c #D28039",
"# c #F19A4A",
"$ c #EDB76B",
/* pixels */
"                                ",
"                                ",
"                                ",
"                                ",
"            ............        ",
"            ............        ",
"          ..XXOOXXOOOOoo..      ",
"          ..XXOOXXOOOOoo..      ",
"      ....ooOO@@++@@++OOXX..    ",
"      ....ooOO@@++@@++OOXX..    ",
"    ..XXooOO++++@@##@@++oo..    ",
"    ..XXooOO++++@@##@@++oo..    ",
"  ..XXooOO++++@@##$$##ooOO..    ",
"  ..XXooOO++++@@##$$##ooOO..    ",
"  ..ooOOoo@@XX@@##@@@@++oo..    ",
"  ..ooOOoo@@XX@@##@@@@++oo..    ",
"  ..XX++XXoo##oo@@@@ooOOXX..    ",
"  ..XX++XXoo##oo@@@@ooOOXX..    ",
"  ..XXoo++oo++@@++OOOOoo..      ",
"  ..XXoo++oo++@@++OOOOoo..      ",
"    ..XXooOOOOOOOOooooXX..      ",
"    ..XXooOOOOOOOOooooXX..      ",
"      ..XXooXXooooXX....        ",
"      ..XXooXXooooXX....        ",
"        ............            ",
"        ............            ",
"                                ",
"                                ",
"                                ",
"                                ",
"                                ",
"                                "
};
