/* XPM */
static char *tile0161694786959[] = {
/* columns rows colors chars-per-pixel */
"32 32 19 1 ",
"  c #6CA246",
". c #170625",
"X c #D95700",
"o c #EC750E",
"O c #EC840E",
"+ c #ED850E",
"@ c #FFB00E",
"# c #FFB10E",
"$ c #FFC80E",
"% c #FFF236",
"& c #D6955F",
"* c #F4C186",
"= c #FFD98E",
"- c #FFDA8E",
"; c #FFDF91",
": c #FFDF92",
"> c #FFFEC6",
", c #FFFEC7",
"< c #FFFEE8",
/* pixels */
"                                ",
"                                ",
"                                ",
"                                ",
"                                ",
"                                ",
"      ............              ",
"      ............              ",
"    ..&&::<<<<::&&........      ",
"    ..&&::<<<<::&&........      ",
"  ..**::++@@@#<<<<<<<<::&&..    ",
"  ..**::++@@@@<<<<<<<<::&&..    ",
"..**<<oo@@$$%%@@:;++####<<::..  ",
"..**<<oo@@$$%%@@::++####<<-:..  ",
"..>><<XX++@@$$++oo@@$$%%@@<<--..",
"..>><<XX++@@$$++oo@@$$%%#@<<--..",
"..&&>>::XXoo++::XX++@@$$OO<<<<..",
"..&&>>::XXoo++::XX++@@$$OO<<<<..",
"  ..**<<::::<<>>::XXoo++<<<<=-..",
"  ..**<<::::<<>>;:XXooO+<<<<=-..",
"  ..&&**>,,,--&&>>>><<>><<,,..  ",
"  ..&&**>,,,--&&>>>><<>><<,>..  ",
"    ..&&--**......&&;;>>,,-=..  ",
"    ..&&=-**......&&;;>>,,--..  ",
"      ......      ....&&>>..    ",
"      ......      ....&&>>..    ",
"                      ....      ",
"                      ....      ",
"                                ",
"                                ",
"                                ",
"                                "
};
