/* XPM */
static char *tile0561694786964[] = {
/* columns rows colors chars-per-pixel */
"32 32 16 1 ",
"  c #6CA246",
". c #3A2C14",
"X c #170625",
"o c #6F140E",
"O c #4D4112",
"+ c #94321B",
"@ c #89701F",
"# c #B04625",
"$ c #948425",
"% c #AF9F36",
"& c #B7A440",
"* c #D2834E",
"= c #C8B845",
"- c #DBCD55",
"; c #E0D26A",
": c #F5F77A",
/* pixels */
"                                ",
"                                ",
"                  OOOOOOXX      ",
"                  OOOOOOXX      ",
"              OOOO$$$$@@OOXX    ",
"              OOOO$$$$@@OOXX    ",
"          ..OO$$%%==%%$$@@@@XX  ",
"          ..OO$$%%==%%$$@@@@XX  ",
"        ..$$&&==;;;;==%%$$@@OO  ",
"        ..$$&&==;;;;==%%$$@@OO  ",
"      ..$$&&;;++##++;;==%%$$OO  ",
"      ..$$&&;;++##++;;==%%$$OO  ",
"    ..$$&&;;++##**##;;==%%$$XX  ",
"    ..$$&&;;++##**##;;==%%$$XX  ",
"  ..$$%%==;;oo++##++--==$$OO    ",
"  ..$$%%==;;oo++##++--==$$OO    ",
"  ..$$%%==;;oooo++;;==%%$$XX    ",
"  ..$$%%==;;oooo++;;==%%$$XX    ",
"  XX$$%%====;;::;;==%%$$OO      ",
"  XX$$%%====;;::;;==%%$$OO      ",
"  XX..$$%%%%======%%%%$$XX      ",
"  XX..$$%%%%======%%%%$$XX      ",
"  XXXX..$$$$%%%%%%$$$$..        ",
"  XXXX..$$$$%%%%%%$$$$..        ",
"  XXXXXX....$$$$$$....XX        ",
"  XXXXXX....$$$$$$....XX        ",
"    XXXXXXXX......XXXX          ",
"    XXXXXXXX......XXXX          ",
"      XXXXXXXXXXXXXX            ",
"      XXXXXXXXXXXXXX            ",
"        XXXXXXXXXX              ",
"        XXXXXXXXXX              "
};
