/* XPM */
static char *tile0001694787623[] = {
/* columns rows colors chars-per-pixel */
"32 32 5 1 ",
"  c #6CA246",
". c #192121",
"X c #9C5144",
"o c #F06643",
"O c #FFA767",
/* pixels */
"                                ",
"                                ",
"      ....................      ",
"      ....................      ",
"    ..OOOOOOOOOOOOOOOOOOOO..    ",
"    ..OOOOOOOOOOOOOOOOOOOO..    ",
"  ..OOOOooooooooooooooooOOOO..  ",
"  ..OOOOooooooooooooooooOOOO..  ",
"  ..OOooooOOooOOooOOooOOooOO..  ",
"  ..OOooooOOooOOooOOooOOooOO..  ",
"  ..OOooooOOooOOooOOooOOooOO..  ",
"  ..OOooooOOooOOooOOooOOooOO..  ",
"  ..OOooooOOooOOooOOooOOooOO..  ",
"  ..OOooooOOooOOooOOooOOooOO..  ",
"  ..OOooooOOooOOooOOooOOooOO..  ",
"  ..OOooooOOooOOooOOooOOooOO..  ",
"  ..OOOOooooooooooooooooOOOO..  ",
"  ..OOOOooooooooooooooooOOOO..  ",
"  ..ooOOOOOOOOOOOOOOOOOOOOoo..  ",
"  ..ooOOOOOOOOOOOOOOOOOOOOoo..  ",
"  ..oooooooooooooooooooooooo..  ",
"  ..oooooooooooooooooooooooo..  ",
"  ..ooooXXXXXXXXXXXXXXXXoooo..  ",
"  ..ooooXXXXXXXXXXXXXXXXoooo..  ",
"  ..ooXXXXooXXooXXooXXooXXoo..  ",
"  ..ooXXXXooXXooXXooXXooXXoo..  ",
"  ..ooooXXXXXXXXXXXXXXXXoooo..  ",
"  ..ooooXXXXXXXXXXXXXXXXoooo..  ",
"  XXXXooooooooooooooooooooXXXX  ",
"  XXXXooooooooooooooooooooXXXX  ",
"    XXXXXXXXXXXXXXXXXXXXXXXX    ",
"    XXXXXXXXXXXXXXXXXXXXXXXX    "
};
