/* XPM */
static char *tile0101694787624[] = {
/* columns rows colors chars-per-pixel */
"32 32 7 1 ",
"  c #6CA246",
". c #192121",
"X c #9C5144",
"o c #F06643",
"O c #D6B081",
"+ c #F3CC9E",
"@ c white",
/* pixels */
"                                ",
"                                ",
"                                ",
"                                ",
"      ..............            ",
"      ..............            ",
"  ......@@@@@@@@@@@@..........  ",
"  ......@@@@@@@@@@@@..........  ",
"  ..++XX@@@@@@@@@@@@@@@@XX++..  ",
"  ..++XX@@@@@@@@@@@@@@@@XX++..  ",
"  ..++XX@@@@@@@@@@@@@@@@oo++..  ",
"  ..++XX@@@@@@@@@@@@@@@@oo++..  ",
"  ..++OO@@@@@@@@@@@@@@OOoo++..  ",
"  ..++OO@@@@@@@@@@@@@@OOoo++..  ",
"  ..++ooOOOOOOOOOOOOOOOOoo++..  ",
"  ..++ooOOOOOOOOOOOOOOOOoo++..  ",
"  ..++ooOOOO@@@@@@@@@@OOoo++..  ",
"  ..++ooOOOO@@@@@@@@@@OOoo++..  ",
"  ..++oooooooooooooooooooo++..  ",
"  ..++oooooooooooooooooooo++..  ",
"  ..++++++++++++++++++++++++..  ",
"  ..++++++++++++++++++++++++..  ",
"  ..ooooooooXXXXXXXXoooooooo..  ",
"  ..ooooooooXXXXXXXXoooooooo..  ",
"  ..ooXXXXooooooooooooooXXoo..  ",
"  ..ooXXXXooooooooooooooXXoo..  ",
"  ..ooooooooXXXXooXXXXoooooo..  ",
"  ..ooooooooXXXXooXXXXoooooo..  ",
"  XXXXXXXXXXXXXXXXXXXXXXXXXXXX  ",
"  XXXXXXXXXXXXXXXXXXXXXXXXXXXX  ",
"    XXXXXXXXXXXXXXXXXXXXXXXX    ",
"    XXXXXXXXXXXXXXXXXXXXXXXX    "
};
