/* XPM */
static char *tile0611694787632[] = {
/* columns rows colors chars-per-pixel */
"32 32 4 1 ",
"  c #6CA246",
". c #192121",
"X c #9C5144",
"o c #F06643",
/* pixels */
"            ..XXXXXX..          ",
"            ..XXXXXX..          ",
"            ..oooooo..          ",
"            ..oooooo..          ",
"            ..oooooo..          ",
"            ..oooooo..          ",
"            ..oooooo..          ",
"            ..oooooo..          ",
"            ..oooooo..          ",
"            ..oooooo..          ",
"            ..oooooo..          ",
"            ..oooooo..          ",
"            ..oooooo..          ",
"            ..oooooo..          ",
"            ..oooooo..          ",
"            ..oooooo..          ",
"            ..oooooo..          ",
"            ..oooooo..          ",
"            ..oooooo..          ",
"            ..oooooo..          ",
"XXXXXXXXXXXX..oooooo..          ",
"XXXXXXXXXXXX..oooooo..          ",
"XXXXXXXXXXXX..oooooo..          ",
"XXXXXXXXXXXX..oooooo..          ",
"XXXXXXXXXXXXXXXXXXXX            ",
"XXXXXXXXXXXXXXXXXXXX            ",
"                                ",
"                                ",
"                                ",
"                                ",
"                                ",
"                                "
};
