/* XPM */
static char *tile0141694787625[] = {
/* columns rows colors chars-per-pixel */
"32 32 6 1 ",
"  c #6CA246",
". c #192121",
"X c #EE2B4E",
"o c #9C5144",
"O c #F06643",
"+ c #F3CC9E",
/* pixels */
"                                ",
"                                ",
"                                ",
"                                ",
"................................",
"................................",
"..++++++XXXXXXXXXXXXXXooOO++++..",
"..++++++XXXXXXXXXXXXXXooOO++++..",
"..++++++XXXXXXXXXXXXXXooOO++++..",
"..++++++XXXXXXXXXXXXXXooOO++++..",
"..++++++XXXXXXXXXXXXXXooOO++++..",
"..++++++XXXXXXXXXXXXXXooOO++++..",
"..++++++XXXXXXXXXXXXXXooOO++++..",
"..++++++XXXXXXXXXXXXXXooOO++++..",
"..++++++XXXXXXXXXXXXXXooOO++++..",
"..++++++XXXXXXXXXXXXXXooOO++++..",
"..++++++XXXXXXXXXXXXXXooOO++++..",
"..++++++XXXXXXXXXXXXXXooOO++++..",
"..++++++XXXXXXXXXXXXXXooOO++++..",
"..++++++XXXXXXXXXXXXXXooOO++++..",
"..OOOOOO..oooooooooooo..OOOOOO..",
"..OOOOOO..oooooooooooo..OOOOOO..",
"....oooo..oooooooooooo..oooo....",
"....oooo..oooooooooooo..oooo....",
"  ..oooo....oooooooo....oooo..  ",
"  ..oooo....oooooooo....oooo..  ",
"  ..oooo................oooo..  ",
"  ..oooo................oooo..  ",
"  ..oooo..            ..oooo..  ",
"  ..oooo..            ..oooo..  ",
"    oooo                oooo    ",
"    oooo                oooo    "
};
