/* XPM */
static char *tile0201694787626[] = {
/* columns rows colors chars-per-pixel */
"32 32 7 1 ",
"  c #6CA246",
". c #192121",
"X c #3E3944",
"o c #573E52",
"O c #9C5144",
"+ c #F06643",
"@ c #CE926F",
/* pixels */
"      ....................      ",
"      ....................      ",
"    ..@@@@++++++++++++++++..    ",
"    ..@@@@++++++++++++++++..    ",
"  ..++@@@@XXXXXXXXXXXX++++OO..  ",
"  ..++@@@@XXXXXXXXXXXX++++OO..  ",
"..OO++++XXXXXXXXXXXXXXXX++++OO..",
"..OO++++XXXXXXXXXXXXXXXX++++OO..",
"..OO++++XX............XX++++OO..",
"..OO++++XX............XX++++OO..",
"..OO++++................++++OO..",
"..OO++++................++++OO..",
"..OO++++++............++++++OO..",
"..OO++++++............++++++OO..",
"....OO++++++++++++++++++++OO....",
"....OO++++++++++++++++++++OO....",
"..OO..OO++++++++++++++++OO..OO..",
"..OO..OO++++++++++++++++OO..OO..",
"..OOOOOOOOOOOOOOOOOOOOOOOOOOOO..",
"..OOOOOOOOOOOOOOOOOOOOOOOOOOOO..",
"..OOOO++++OOOOOOOOOOOOOOOOOOOO..",
"..OOOO++++OOOOOOOOOOOOOOOOOOOO..",
"..ooOO++++OOOOOOOOOOOOOOOOOOoo..",
"..ooOO++++OOOOOOOOOOOOOOOOOOoo..",
"..oooo..OOOOOOOOOOOOOOOO..oooo..",
"..oooo..OOOOOOOOOOOOOOOO..oooo..",
"..oooo..oooo..oooo..oooo..oooo..",
"..oooo..oooo..oooo..oooo..oooo..",
"    oooooooo..oooo..oooooooooo  ",
"    oooooooo..oooo..oooooooooo  ",
"                                ",
"                                "
};
