/* XPM */
static char *tile0581694786964[] = {
/* columns rows colors chars-per-pixel */
"32 32 16 1 ",
"  c #6CA246",
". c #170625",
"X c #613134",
"o c #803E3A",
"O c #91513A",
"+ c #A76A39",
"@ c #BD6A30",
"# c #804345",
"$ c #804956",
"% c #B27A49",
"& c #B47B4B",
"* c #C38D5E",
"= c #F2A045",
"- c #D3A365",
"; c #EFCE73",
": c #DED8AC",
/* pixels */
"          ........              ",
"          ........              ",
"      ....OO++OOXX..            ",
"      ....OO++OOXX..            ",
"    ..OO++++;;++OO..            ",
"    ..OO++++;;++OO..            ",
"  ..OO&&**;;XXXX**..            ",
"  ..OO&&**;;XXXX**..            ",
"..OO++++XXXX$$XX..              ",
"..OO++++XXXX$$XX..              ",
"..oo++--@@==XX@@==..            ",
"..oo++--@@==XX@@==..            ",
"..OO**++XXXX..XX..    ......    ",
"..OO**++XXXX..XX..    ......    ",
"..oo++;;**==XX==..  ..XXXX$$..  ",
"..oo++;;**==XX==..  ..XXXX$$..  ",
"..OO++**@@XX@@......XXooOOXX$$..",
"..OO++**@@XX@@......XXooOOXX$$..",
"..oo**++;;oo##ooXXoo++OOooOO##..",
"..oo**++;;oo##ooXXoo++OOooOO##..",
"  ..OO**++::OO++OO++OO%%OOoo##..",
"  ..OO**++::OO++OO++OO%%OOoo##..",
"    ..++++**++::++;;OO++oo##..  ",
"    ..++++**++::++;;OO++oo##..  ",
"      ..oo&&OO**OO**++OOXX..    ",
"      ..oo&&OO**OO**++OOXX..    ",
"        ..oooo++oo++OO....      ",
"        ..oooo++oo++OO....      ",
"          ............          ",
"          ............          ",
"                                ",
"                                "
};
