/* XPM */
static char *tile0311694786960[] = {
/* columns rows colors chars-per-pixel */
"32 32 16 1 ",
"  c #6CA246",
". c #1C0631",
"X c #4D2130",
"o c #733732",
"O c #9F5633",
"+ c #B15938",
"@ c #AF6835",
"# c #B97743",
"$ c #C4833F",
"% c #BC824B",
"& c #D29448",
"* c #CEA669",
"= c #D9AE64",
"- c #DDBF75",
"; c #E2D68E",
": c #E9FFD0",
/* pixels */
"              ..........        ",
"              ..........        ",
"            ..OO@@OO@@OO..      ",
"            ..OO@@OO@@OO..      ",
"          ..@@%%$$%%$$%%@@..    ",
"          ..@@%%$$%%$$%%@@..    ",
"        ..OO$$--&&**&&**OO..    ",
"        ..OO$$--&&**&&**OO..    ",
"      ..OO**--&&--&&$$%%@@..    ",
"      ..OO**--&&--&&$$%%@@..    ",
"      ..%%--::--##@@OO@@..      ",
"      ..%%--::--##@@OO@@..      ",
"    ..OO@@$$&&@@OO......        ",
"    ..OO@@$$&&@@OO......        ",
"    ..%%--::--OO..              ",
"    ..%%--::--OO..              ",
"  ..@@@@$$&&$$@@..              ",
"  ..@@@@$$&&$$@@..              ",
"  ..OO%%--::;;OO..              ",
"  ..OO%%--::;;OO..              ",
"  ..@@--;;$$==;;%%..            ",
"  ..@@--;;$$==;;%%..            ",
"    ..%%@@==::**%%@@..          ",
"    ..%%@@==::**%%@@..          ",
"    ..OO%%--**%%++oo..          ",
"    ..OO%%--**%%++oo..          ",
"      ..@@**%%++ooXX..          ",
"      ..@@**%%++ooXX..          ",
"        ..@@@@ooXX..            ",
"        ..@@@@ooXX..            ",
"          ........              ",
"          ........              "
};
