/* XPM */
static char *tile0001694786956[] = {
/* columns rows colors chars-per-pixel */
"32 32 13 1 ",
"  c #6CA246",
". c #170625",
"X c #5E0B13",
"o c #992415",
"O c #97392A",
"+ c #AD3B22",
"@ c #B54D2B",
"# c #BA4A28",
"$ c #C85A2B",
"% c #CD632D",
"& c #DB7E3D",
"* c #F49746",
"= c #FFB65B",
/* pixels */
"                                ",
"                                ",
"                                ",
"                                ",
"          ............          ",
"          ............          ",
"      ....&&**====**&&....      ",
"      ....&&**====**&&....      ",
"    ..%%&&%%++==%%oo%%&&&&..    ",
"    ..%%&&%%++==%%oo%%&&&&..    ",
"  ..++**&&**==%%XXXX&&==oo&&..  ",
"  ..++**&&**==%%XXXX&&==oo&&..  ",
"..++$$&&$$oo****$$==**&&&&##%%..",
"..++$$&&$$oo****$$==**&&&&##%%..",
"..++##%%ooXX%%ooXX**##XX##%%++..",
"..++##%%ooXX%%ooXX**##XX##%%++..",
"..OO$$&&**%%**&&==&&XXoo&&%%OO..",
"..OO$$&&**%%**&&==&&XXoo&&%%OO..",
"  ..OO++%%&&++**$$++$$&&%%@@..  ",
"  ..OO++%%&&++**$$++$$&&%%@@..  ",
"    ..OO++##%%$$##&&++%%@@..    ",
"    ..OO++##%%$$##&&++%%@@..    ",
"      ....OO####++@@%%......    ",
"      ....OO####++@@%%......    ",
"          ............  ..$$..  ",
"          ............  ..$$..  ",
"                          ..    ",
"                          ..    ",
"                    ..          ",
"                    ..          ",
"                                ",
"                                "
};
