/* XPM */
static char *tile0441694786962[] = {
/* columns rows colors chars-per-pixel */
"32 32 15 1 ",
"  c #6CA246",
". c #170625",
"X c #661E22",
"o c #85070E",
"O c #991112",
"+ c #A61613",
"@ c #B11E18",
"# c #B9261A",
"$ c #C12F1C",
"% c #D24029",
"& c #E06331",
"* c #E66A37",
"= c #EC753C",
"- c #F48840",
"; c #FFAD47",
/* pixels */
"                                ",
"                                ",
"                      ....      ",
"                      ....      ",
"                    ..@@%%..    ",
"                    ..@@%%..    ",
"                  ..ooXXXX%%..  ",
"                  ..ooXXXX%%..  ",
"                ..ooXXooXX==..  ",
"                ..ooXXooXX==..  ",
"                ..OOooooooXX--..",
"                ..OOooooooXX--..",
"              ..OOooOO++ooOO;;..",
"              ..OOooOO++ooOO;;..",
"          ....OO++OO++ooOO++--..",
"          ....OO++OO++ooOO++--..",
"    ......OO@@++OO@@OOOO##OO--..",
"    ......OO@@++OO@@OOOO##OO--..",
"  ..++@@##@@OOoo++OO$$##++@@&&..",
"  ..++@@##@@OOoo++OO$$##++@@&&..",
"..$$++OO++OOoo++@@$$++@@@@**..  ",
"..$$++OO++OOoo++@@$$++@@@@**..  ",
"  ..&&ooOO%%++@@OO@@##@@%%..    ",
"  ..&&ooOO%%++@@OO@@##@@%%..    ",
"    ..--&&..$$++##++@@&&..      ",
"    ..--&&..$$++##++@@&&..      ",
"      ....  ..++++--&&..        ",
"      ....  ..++++--&&..        ",
"            ..%%&&....          ",
"            ..%%&&....          ",
"              ....              ",
"              ....              "
};
