/* XPM */
static char *tile0511694786963[] = {
/* columns rows colors chars-per-pixel */
"32 32 20 1 ",
"  c #6CA246",
". c #170625",
"X c #76001B",
"o c #4C231F",
"O c #6D3418",
"+ c #91001E",
"@ c #A50023",
"# c #B71639",
"$ c #892920",
"% c #994A0E",
"& c #B06B0E",
"* c #B91E43",
"= c #B01B4E",
"- c #B8356F",
"; c #9B664E",
": c #E14065",
"> c #C88E0E",
", c #DA4987",
"< c #FF98AD",
"1 c #FFFEE8",
/* pixels */
"    ........                    ",
"    ........                    ",
"  ..;;ooOOOO..                  ",
"  ..;;ooOOOO..                  ",
"    ..;;....%%..                ",
"    ..;;....%%..                ",
"      ..    ..&&..              ",
"      ..    ..&&..              ",
"            ..>>..              ",
"            ..>>..              ",
"              ..>>..            ",
"              ..>>..            ",
"              ..>>..            ",
"              ..>>..            ",
"          ......&&......        ",
"          ......&&......        ",
"        ..@@::XX$$**<<::..      ",
"        ..@@::XX$$**<<::..      ",
"      ..@@++##::<<11::**::..    ",
"      ..@@++##::<<11::**::..    ",
"      ..@@@@XXXXXXXX++++::..    ",
"      ..@@@@XXXXXXXX++++::..    ",
"      ..==@@++XXXXXXXX++**..    ",
"      ..==@@++XXXXXXXX++**..    ",
"      ..--==@@++++XXXX++**..    ",
"      ..--==@@++++XXXX++**..    ",
"        ..,,==@@++XX++**..      ",
"        ..,,==@@++XX++**..      ",
"          ..--==XX++@@..        ",
"          ..--==XX++@@..        ",
"            ..........          ",
"            ..........          "
};
