/* XPM */
static char *tile0601694786964[] = {
/* columns rows colors chars-per-pixel */
"32 32 23 1 ",
"  c #6CA246",
". c #05000E",
"X c #170625",
"o c #6C5F4B",
"O c #6E565B",
"+ c #9C6117",
"@ c #A06313",
"# c #B17925",
"$ c #887476",
"% c #C2903E",
"& c #998B6B",
"* c #DBB761",
"= c #9E8B8A",
"- c #BEB59C",
"; c #F2DF86",
": c #F6E59D",
"> c #E8E2A9",
", c #FFF5A0",
"< c #FFF7B7",
"1 c #F7F1B8",
"2 c #F7F2BB",
"3 c #FFFAC1",
"4 c #FFFEE8",
/* pixels */
"  XXXXXXXXXXXXXXXXXXXXXXXX  ..  ",
"  XXXXXXXXXXXXXXXXXXXXXXXX  ..  ",
"XX##++%%**;;33;;**44%%##++XX&&..",
"XX##++%%**;;33;;**44%%##++XX&&..",
"  XX==$$oooooooooo&&--&&OO&&..  ",
"  XX==$$oooooooooo&&--&&OO&&..  ",
"XX##%%##**;;,,;;**11##%%**XX--..",
"XX##%%##**;;,,;;**11##%%**XX--..",
"XX%%**%%##******####44##%%XX&&..",
"XX%%**%%##******####44##%%XX&&..",
"XX%%**%%++######@@**44**@@XXoo..",
"XX%%**%%++######@@**44**@@XXoo..",
"XX##%%####**;;**##**22**##XX..  ",
"XX##%%####**;;**##**21**##XX..  ",
"XX%%##++**;;<<;;**##**##%%XX    ",
"XX%%##++**;;<<;;**##**##%%XX    ",
"XX**%%++##**;;**##@@##%%**XX    ",
"XX**%%++##**;;**##@@##%%**XX    ",
"XX**%%##**##@@##****##%%**XX    ",
"XX**%%##**##@@##****##%%**XX    ",
"XX%%##**,,**##**;;,,**##%%XX    ",
"XX%%##**,,**##**;;,,**##%%XX    ",
"XX##++**;;**##**;;;;>>++##XX    ",
"XX##++**;;**##**;;;;>>++##XX    ",
"XX%%####**##++##****44##**XX    ",
"XX%%####**##++##****44##**XX    ",
"XX**%%##++%%%%##++##11**;;XX    ",
"XX**%%##++%%%%##++##11**;;XX    ",
"  XX**%%%%****%%##::**;;XX      ",
"  XX**%%%%****%%##::**;;XX      ",
"    XXXXXXXXXXXXXXXXXXXX        ",
"    XXXXXXXXXXXXXXXXXXXX        "
};
