/* XPM */
static char *tile0391694786961[] = {
/* columns rows colors chars-per-pixel */
"32 32 13 1 ",
"  c #6CA246",
". c #170625",
"X c #1D1030",
"o c #1D1130",
"O c #503612",
"+ c #694714",
"@ c #7E5D13",
"# c #635B26",
"$ c #796F36",
"% c #A67A0E",
"& c #C19111",
"* c #938A4F",
"= c #B7B271",
/* pixels */
"                      ....      ",
"                      ....      ",
"                    ..OOOO....  ",
"                    ..OOOO....  ",
"                  ..++OO++OOOO..",
"                  ..++OO++OOOO..",
"                ..OOOO++OO++OO..",
"                ..OOOO++OO++OO..",
"                ..OO@@OOOO##OO..",
"                ..OO@@OOOO##OO..",
"              ..OOOO%%@@OO$$++..",
"              ..OOOO%%@@OO$$++..",
"              ..OO%%OO++$$OO++..",
"              ..OO%%OO++$$OO++..",
"            ..OO@@&&@@OO**++..  ",
"            ..OO@@&&@@OO**++..  ",
"        ....OO@@++@@OO**OO++..  ",
"        ....OO@@++@@OO**OO++..  ",
"    ....OOOO++&&OO++OO==OO..    ",
"    ....OOOO++&&OO++OO==OO..    ",
"  ..OOOO++@@&&OO++OO**OO++..    ",
"  ..OOOO++@@&&OO++OO**OO++..    ",
"..OO++@@OO++@@++$$@@OO++..      ",
"..OO++@@OO++@@++$$@@OO++..      ",
"..++OO++%%OOOO$$OO++OO..        ",
"..++OO++%%OOOO$$OO++OO..        ",
"..OO++OOOO++OOOO++....          ",
"..OO++OOOO++OOOO++....          ",
"  ..OOOO++OOOO....              ",
"  ..OOOO++OOOO....              ",
"    ..........XXoo              ",
"    ..........Xooo              "
};
