/* XPM */
static char *tile0141694786958[] = {
/* columns rows colors chars-per-pixel */
"32 32 18 1 ",
"  c #6CA246",
". c #07010F",
"X c #1D1130",
"o c #1F3E25",
"O c #485512",
"+ c #637917",
"@ c #305B43",
"# c #725144",
"$ c #81277F",
"% c #9A7A4E",
"& c #7D9926",
"* c #9CC434",
"= c #BE9C6E",
"- c #A751AC",
"; c #DDD2B6",
": c #D493D7",
"> c #FFF2D1",
", c white",
/* pixels */
"                  ......        ",
"                  ......        ",
"    ........    ..++OO++..      ",
"    ........    ..++OO++..      ",
"  ..++&&**&&....++++&&OO++..    ",
"  ..++&&**&&....++++&&OO++..    ",
"  ..&&++OOOO&&..OO..++**OO++..  ",
"  ..&&++OOOO&&..OO..++**OO++..  ",
"..&&++ooOO..OO++@@ooOO++&&OO..  ",
"..&&++ooOO..OO++@@ooOO++&&OO..  ",
"..++oo@@..  ..++..@@ooOO++oo..  ",
"..++oo@@..  ..++..@@ooOO++oo..  ",
"  ..@@..  ....oo..@@ooOO..oo..  ",
"  ..@@..  ....oo..@@ooOO..oo..  ",
"    ..oo..$$$$$$$$$$oo..@@..    ",
"    ..oo..$$$$$$$$$$oo..@@..    ",
"      ..$$$$$$$$--$$$$....      ",
"      ..$$$$$$$$--$$$$....      ",
"      ..$$--$$--::--$$..        ",
"      ..$$--$$--::--$$..        ",
"      ..::;;::::>>::::..        ",
"      ..::;;::::>>::::..        ",
"        ..;;>>,,,,>>..          ",
"        ..;;>>,,,,>>..          ",
"          ..;;>>>>....          ",
"          ..;;>>>>....          ",
"            ..##....==..        ",
"            ..##....==..        ",
"              ..%%==..          ",
"              ..%%==..          ",
"              XX....XX          ",
"              XX....XX          "
};
