/* XPM */
static char *tile0101694786958[] = {
/* columns rows colors chars-per-pixel */
"32 32 18 1 ",
"  c #6CA246",
". c #170625",
"X c #AD381E",
"o c #DB230E",
"O c #E7410E",
"+ c #F2580E",
"@ c #F2760F",
"# c #FA7B2D",
"$ c #AD694E",
"% c #A57264",
"& c #FF941B",
"* c #FFB128",
"= c #C78954",
"- c #FF9547",
"; c #FFBD6D",
": c #EAD0A0",
"> c #FFEFD4",
", c #FFEED5",
/* pixels */
"        ................        ",
"        ................        ",
"      ..%%======::>>::==..      ",
"      ..%%======::>>::==..      ",
"      ..%%$$$$$$$$==$$$$..      ",
"      ..%%$$$$$$$$==$$$$..      ",
"        ..XXXXXXXXXXXX..        ",
"        ..XXXXXXXXXXXX..        ",
"      ..@@@@&&oo++@@&&@@..      ",
"      ..@@@@&&oo++@@&&@@..      ",
"    ..@@OO++OO&&**++;;&&@@..    ",
"    ..@@OO++OO&&**++;;&&@@..    ",
"    ..@@&&OO@@&&**&&,,@@@@..    ",
"    ..@@&&OO@@&&**&&,>@@@@..    ",
"  ..oo@@++oo++@@&&@@&&>>@@oo..  ",
"  ..oo@@++oo++@@&&@@&&>>@@oo..  ",
"  ..@@ooOOoooo++@@OO@@;;@@++..  ",
"  ..@@ooOOoooo++@@OO@@;;@@++..  ",
"  ..++++oo@@@@&&oo++OO;;++++..  ",
"  ..++++oo@@@@&&oo++OO;;++++..  ",
"  ..++oo++OOOOOO@@oo@@--OO++..  ",
"  ..++oo++OOOOOO@@oo@@--OO++..  ",
"  ..++oo++OOooOO++oo++--oo++..  ",
"  ..++oo++OOooOO++oo++--oo++..  ",
"  ..OO++oo++++++ooOOoo##++OO..  ",
"  ..OO++oo++++++ooOOoo##++OO..  ",
"  ..ooOO++ooooooOOOO++ooOOoo..  ",
"  ..ooOO++ooooooOOOO++ooOOoo..  ",
"    ..ooooOOooOOooooooOOOO..    ",
"    ..ooooOOooOOooooooOOOO..    ",
"      ....................      ",
"      ....................      "
};
