/* XPM */
static char *tile0621694786964[] = {
/* columns rows colors chars-per-pixel */
"32 32 21 1 ",
"  c #6CA246",
". c #05000E",
"X c #170625",
"o c #50010E",
"O c #4E2938",
"+ c #743D3D",
"@ c #964E42",
"# c #D07152",
"$ c #F26E5B",
"% c #C9805B",
"& c #F68154",
"* c #CF8C64",
"= c #FF8D60",
"- c #FEA66D",
"; c #F2AA71",
": c #FFA179",
"> c #F6BD7F",
", c #FEC180",
"< c #FFC399",
"1 c #FCD997",
"2 c #FEE7B5",
/* pixels */
"                                ",
"                                ",
"                                ",
"                                ",
"            XXXXXXXX      ++    ",
"            XXXXXXXX      ++    ",
"        XXXX$$$$$$$$XXXXOO&&++  ",
"        XXXX$$$$$$$$XXXXOO&&++  ",
"      XX$$$$&&====&&$$$$&&OO    ",
"      XX$$$$&&====&&$$$$&&OO    ",
"    XX==>>====;;$$$$&&==&&XX    ",
"    XX==>>====;;$$$$&&==&&XX    ",
"    XX>>==<<;;====&&==$$==XX    ",
"    XX>>==<<;;====&&==$$==XX    ",
"  XX>>;;<<22==11--====$$==$$oo  ",
"  XX>>;;<<22==11--====$$==$$oo  ",
"  XX11;;<<22;;22,,--$$==&&$$oo  ",
"  XX11;;<<22;;22,,--$$==&&$$oo  ",
"  XX,,,,22;;22<<11$$==&&$$==oo  ",
"  XX,,,,22;;22<<11$$==&&$$==oo  ",
"  XX**1111,,<<,,==--==$$==::oo  ",
"  XX**1111,,<<,,==--==$$==::oo  ",
"    XX**>>11,,==,,==$$==::XX    ",
"    XX**>>11,,==,,==$$==::XX    ",
"  ..@@##11==;;;;&&$$==::<<XX    ",
"  ..@@##11==;;;;&&$$==::<<XX    ",
"XX  ..++##%%========::<<XX      ",
"XX  ..++##%%========::<<XX      ",
"      XX@@XX%%==::::XXXX        ",
"      XX@@XX%%==::::XXXX        ",
"        ..  XXXXXXXX            ",
"        ..  XXXXXXXX            "
};
