/* XPM */
static char *tile0541694786963[] = {
/* columns rows colors chars-per-pixel */
"32 32 14 1 ",
"  c #6CA246",
". c #170625",
"X c #99080E",
"o c #BC0613",
"O c #9E3C0E",
"+ c #DF1526",
"@ c #A26B0E",
"# c #FE493B",
"$ c #FF5863",
"% c #D08B0F",
"& c #C1A714",
"* c #DCBB14",
"= c #EAFC1B",
"- c #FF7F83",
/* pixels */
"        ..    ..                ",
"        ..    ..                ",
"      ..%%....@@..              ",
"      ..%%....@@..              ",
"    ..@@..  ..%%..      ..      ",
"    ..@@..  ..%%..      ..      ",
"    ..OO&&....**@@..  ..&&..    ",
"    ..OO&&....**@@..  ..&&..    ",
"    ..OOOO**..==@@OO..**OO..    ",
"    ..OOOO**..==@@OO..**OO..    ",
"  ..  ..OO==OO##%%@@oo%%..      ",
"  ..  ..OO==OO##%%@@oo%%..      ",
"..%%....XX@@**XX++##++@@XX..    ",
"..%%....XX@@**XX++##++@@XX..    ",
"  ..@@OOXXOO@@--##++**XXooXX..  ",
"  ..@@OOXXOO@@--##++**XXooXX..  ",
"    ..OO..XX++##$$##==%%OOooXX..",
"    ..OO..XX++##$$##==%%OOooXX..",
"      ..XX@@**@@##++%%@@$$++oo..",
"      ..XX@@**@@##++%%@@$$++oo..",
"  ....OOOO++XX==@@++@@--##++oo..",
"  ....OOOO++XX==@@++@@--##++oo..",
"..@@==**@@OO++@@OOXXoooo++##oo..",
"..@@==**@@OO++@@OOXXoooo++##oo..",
"..**........XXOOoo--$$##oo++XX..",
"..**........XXOOoo--$$##oo++XX..",
"  ..    ..%%@@XX$$OOXX++++oo..  ",
"  ..    ..%%@@XX$$OOXX++++oo..  ",
"      ..**....&&@@XXooooXX..    ",
"      ..**....&&@@XXooooXX..    ",
"        ..    ............      ",
"        ..    ............      "
};
