/* XPM */
static char *tile0231694786959[] = {
/* columns rows colors chars-per-pixel */
"32 32 11 1 ",
"  c #6CA246",
". c #1C0000",
"X c #4E0302",
"o c #6E0806",
"O c #9A0F0B",
"+ c #8C3028",
"@ c #C25B52",
"# c #D49692",
"$ c #E8A596",
"% c #F3D1C9",
"& c white",
/* pixels */
"                                ",
"                                ",
"                                ",
"                                ",
"                                ",
"                                ",
"        %%                      ",
"        %%                      ",
"      %%&&                      ",
"      %%&&                      ",
"    &&$$%%                      ",
"    &&$$%%                      ",
"  &&%%$$$$++oo      ....        ",
"  &&%%$$$$++oo      ....        ",
"&&%%%%%%$$@@++ooXX..XX..        ",
"&&%%%%%%$$@@++ooXX..XX..        ",
"        %%$$@@OOooooXX..        ",
"        %%$$@@OOooooXX..        ",
"          %%$$@@OOOOooXX..      ",
"          %%$$@@OOOOooXX..      ",
"          &&%%$$@@@@OOoooo..    ",
"          &&%%$$@@@@OOoooo..    ",
"            &&@@OOOOoo@@OOXX..  ",
"            &&@@OOOOoo@@OOXX..  ",
"              &&%%$$$$@@..oo..  ",
"              &&%%$$$$@@..oo..  ",
"                ##%%@@OOOOOO..  ",
"                ##%%@@OOOOOO..  ",
"                    XX......XX  ",
"                    XX......XX  ",
"                                ",
"                                "
};
