/* XPM */
static char *tile0431694786962[] = {
/* columns rows colors chars-per-pixel */
"32 32 20 1 ",
"  c #6CA246",
". c #170625",
"X c #A51E0F",
"o c #AA651C",
"O c #8F563C",
"+ c #D2470E",
"@ c #E6590E",
"# c #F1640E",
"$ c #FF7F0E",
"% c #9C6144",
"& c #AF704F",
"* c #A57A75",
"= c #FF7F44",
"- c #CB8216",
"; c #FF970E",
": c #FFB40E",
"> c #C38B53",
", c #FFBC93",
"< c #FBDC98",
"1 c #FFFEE8",
/* pixels */
"                                ",
"                                ",
"                                ",
"                                ",
"      ..................        ",
"      ..................        ",
"      ..**&&%%OO>><<>>..        ",
"      ..**&&%%OO>><<>>..        ",
"        ..XXXXXXXXXX..          ",
"        ..XXXXXXXXXX..          ",
"      ..++++++@@@@++++..        ",
"      ..++++++@@@@++++..        ",
"    ..++@@@@@@@@==,,==++..      ",
"    ..++@@@@@@@@==,,==++..      ",
"    ..@@########====11++..      ",
"    ..@@########====11++..      ",
"  ..@@##$$$$######==,,==++..    ",
"  ..@@##$$$$######==,,==++..    ",
"  ..##$$;;$$$$$$####==##++..    ",
"  ..##$$;;$$$$$$####==##++..    ",
"  ..$$$$;;;;;;$$$$######++..    ",
"  ..$$$$;;;;;;$$$$######++..    ",
"    ..;;::;;;;$$$$####++..      ",
"    ..;;::;;;;$$$$####++..      ",
"    ..##;;;;$$$$$$####++..      ",
"    ..##;;;;$$$$$$####++..      ",
"      ..##$$$$$$####++..        ",
"      ..##$$$$$$####++..        ",
"        ..............          ",
"        ..............          ",
"            oo--oo              ",
"            oo--oo              "
};
